G04 #@! TF.GenerationSoftware,KiCad,Pcbnew,(5.1.2-1)-1*
G04 #@! TF.CreationDate,2019-05-24T13:24:50+02:00*
G04 #@! TF.ProjectId,XoomFloppy,586f6f6d-466c-46f7-9070-792e6b696361,1.1*
G04 #@! TF.SameCoordinates,Original*
G04 #@! TF.FileFunction,Copper,L1,Top*
G04 #@! TF.FilePolarity,Positive*
%FSLAX46Y46*%
G04 Gerber Fmt 4.6, Leading zero omitted, Abs format (unit mm)*
G04 Created by KiCad (PCBNEW (5.1.2-1)-1) date 2019-05-24 13:24:50*
%MOMM*%
%LPD*%
G04 APERTURE LIST*
%ADD10C,1.800000*%
%ADD11C,2.200000*%
%ADD12O,3.500000X2.000000*%
%ADD13C,5.400000*%
%ADD14R,0.970000X1.500000*%
%ADD15R,1.350000X1.350000*%
%ADD16O,1.350000X1.350000*%
%ADD17R,1.500000X0.970000*%
%ADD18C,0.550000*%
%ADD19C,0.100000*%
%ADD20R,1.500000X0.600000*%
%ADD21R,1.060000X0.650000*%
%ADD22R,1.800000X1.070000*%
%ADD23R,2.000000X2.400000*%
%ADD24R,1.000000X1.000000*%
%ADD25O,1.000000X1.000000*%
%ADD26C,0.700000*%
%ADD27C,0.600000*%
%ADD28C,0.350000*%
%ADD29C,0.250000*%
%ADD30C,0.254000*%
G04 APERTURE END LIST*
D10*
X105500000Y-81500000D03*
X105500000Y-79000000D03*
X105500000Y-77000000D03*
X105500000Y-74500000D03*
D11*
X103400000Y-80300000D03*
X103400000Y-75700000D03*
D12*
X103400000Y-83850000D03*
X103400000Y-72150000D03*
D13*
X150750000Y-83400000D03*
X150800000Y-72600000D03*
D14*
X119745000Y-85000000D03*
X121655000Y-85000000D03*
X129445000Y-85000000D03*
X131355000Y-85000000D03*
X111555000Y-74000000D03*
X109645000Y-74000000D03*
X111855000Y-82100000D03*
X109945000Y-82100000D03*
X126055000Y-73900000D03*
X124145000Y-73900000D03*
D15*
X137800000Y-83000000D03*
D16*
X137800000Y-81000000D03*
X137800000Y-79000000D03*
X137800000Y-77000000D03*
X137800000Y-75000000D03*
X137800000Y-73000000D03*
D14*
X135255000Y-77000000D03*
X133345000Y-77000000D03*
X149145000Y-79300000D03*
X151055000Y-79300000D03*
X135255000Y-74300000D03*
X133345000Y-74300000D03*
X149145000Y-76700000D03*
X151055000Y-76700000D03*
X135255000Y-82400000D03*
X133345000Y-82400000D03*
X146855000Y-71200000D03*
X144945000Y-71200000D03*
X135255000Y-71500000D03*
X133345000Y-71500000D03*
X140145000Y-71200000D03*
X142055000Y-71200000D03*
X133345000Y-79800000D03*
X135255000Y-79800000D03*
X146855000Y-84800000D03*
X144945000Y-84800000D03*
D17*
X129700000Y-77045000D03*
X129700000Y-78955000D03*
X129700000Y-71245000D03*
X129700000Y-73155000D03*
D14*
X111045000Y-71700000D03*
X112955000Y-71700000D03*
X112903000Y-84300000D03*
X110993000Y-84300000D03*
X140145000Y-84800000D03*
X142055000Y-84800000D03*
D18*
X112214897Y-78825305D03*
D19*
G36*
X111843666Y-79585445D02*
G01*
X111454757Y-79196536D01*
X112586128Y-78065165D01*
X112975037Y-78454074D01*
X111843666Y-79585445D01*
X111843666Y-79585445D01*
G37*
D18*
X112780583Y-79390990D03*
D19*
G36*
X112409352Y-80151130D02*
G01*
X112020443Y-79762221D01*
X113151814Y-78630850D01*
X113540723Y-79019759D01*
X112409352Y-80151130D01*
X112409352Y-80151130D01*
G37*
D18*
X113346268Y-79956676D03*
D19*
G36*
X112975037Y-80716816D02*
G01*
X112586128Y-80327907D01*
X113717499Y-79196536D01*
X114106408Y-79585445D01*
X112975037Y-80716816D01*
X112975037Y-80716816D01*
G37*
D18*
X113911953Y-80522361D03*
D19*
G36*
X113540722Y-81282501D02*
G01*
X113151813Y-80893592D01*
X114283184Y-79762221D01*
X114672093Y-80151130D01*
X113540722Y-81282501D01*
X113540722Y-81282501D01*
G37*
D18*
X114477639Y-81088047D03*
D19*
G36*
X114106408Y-81848187D02*
G01*
X113717499Y-81459278D01*
X114848870Y-80327907D01*
X115237779Y-80716816D01*
X114106408Y-81848187D01*
X114106408Y-81848187D01*
G37*
D18*
X115043324Y-81653732D03*
D19*
G36*
X114672093Y-82413872D02*
G01*
X114283184Y-82024963D01*
X115414555Y-80893592D01*
X115803464Y-81282501D01*
X114672093Y-82413872D01*
X114672093Y-82413872D01*
G37*
D18*
X115609010Y-82219417D03*
D19*
G36*
X115237779Y-82979557D02*
G01*
X114848870Y-82590648D01*
X115980241Y-81459277D01*
X116369150Y-81848186D01*
X115237779Y-82979557D01*
X115237779Y-82979557D01*
G37*
D18*
X116174695Y-82785103D03*
D19*
G36*
X115803464Y-83545243D02*
G01*
X115414555Y-83156334D01*
X116545926Y-82024963D01*
X116934835Y-82413872D01*
X115803464Y-83545243D01*
X115803464Y-83545243D01*
G37*
D18*
X118225305Y-82785103D03*
D19*
G36*
X118985445Y-83156334D02*
G01*
X118596536Y-83545243D01*
X117465165Y-82413872D01*
X117854074Y-82024963D01*
X118985445Y-83156334D01*
X118985445Y-83156334D01*
G37*
D18*
X118790990Y-82219417D03*
D19*
G36*
X119551130Y-82590648D02*
G01*
X119162221Y-82979557D01*
X118030850Y-81848186D01*
X118419759Y-81459277D01*
X119551130Y-82590648D01*
X119551130Y-82590648D01*
G37*
D18*
X119356676Y-81653732D03*
D19*
G36*
X120116816Y-82024963D02*
G01*
X119727907Y-82413872D01*
X118596536Y-81282501D01*
X118985445Y-80893592D01*
X120116816Y-82024963D01*
X120116816Y-82024963D01*
G37*
D18*
X119922361Y-81088047D03*
D19*
G36*
X120682501Y-81459278D02*
G01*
X120293592Y-81848187D01*
X119162221Y-80716816D01*
X119551130Y-80327907D01*
X120682501Y-81459278D01*
X120682501Y-81459278D01*
G37*
D18*
X120488047Y-80522361D03*
D19*
G36*
X121248187Y-80893592D02*
G01*
X120859278Y-81282501D01*
X119727907Y-80151130D01*
X120116816Y-79762221D01*
X121248187Y-80893592D01*
X121248187Y-80893592D01*
G37*
D18*
X121053732Y-79956676D03*
D19*
G36*
X121813872Y-80327907D02*
G01*
X121424963Y-80716816D01*
X120293592Y-79585445D01*
X120682501Y-79196536D01*
X121813872Y-80327907D01*
X121813872Y-80327907D01*
G37*
D18*
X121619417Y-79390990D03*
D19*
G36*
X122379557Y-79762221D02*
G01*
X121990648Y-80151130D01*
X120859277Y-79019759D01*
X121248186Y-78630850D01*
X122379557Y-79762221D01*
X122379557Y-79762221D01*
G37*
D18*
X122185103Y-78825305D03*
D19*
G36*
X122945243Y-79196536D02*
G01*
X122556334Y-79585445D01*
X121424963Y-78454074D01*
X121813872Y-78065165D01*
X122945243Y-79196536D01*
X122945243Y-79196536D01*
G37*
D18*
X122185103Y-76774695D03*
D19*
G36*
X121813872Y-77534835D02*
G01*
X121424963Y-77145926D01*
X122556334Y-76014555D01*
X122945243Y-76403464D01*
X121813872Y-77534835D01*
X121813872Y-77534835D01*
G37*
D18*
X121619417Y-76209010D03*
D19*
G36*
X121248186Y-76969150D02*
G01*
X120859277Y-76580241D01*
X121990648Y-75448870D01*
X122379557Y-75837779D01*
X121248186Y-76969150D01*
X121248186Y-76969150D01*
G37*
D18*
X121053732Y-75643324D03*
D19*
G36*
X120682501Y-76403464D02*
G01*
X120293592Y-76014555D01*
X121424963Y-74883184D01*
X121813872Y-75272093D01*
X120682501Y-76403464D01*
X120682501Y-76403464D01*
G37*
D18*
X120488047Y-75077639D03*
D19*
G36*
X120116816Y-75837779D02*
G01*
X119727907Y-75448870D01*
X120859278Y-74317499D01*
X121248187Y-74706408D01*
X120116816Y-75837779D01*
X120116816Y-75837779D01*
G37*
D18*
X119922361Y-74511953D03*
D19*
G36*
X119551130Y-75272093D02*
G01*
X119162221Y-74883184D01*
X120293592Y-73751813D01*
X120682501Y-74140722D01*
X119551130Y-75272093D01*
X119551130Y-75272093D01*
G37*
D18*
X119356676Y-73946268D03*
D19*
G36*
X118985445Y-74706408D02*
G01*
X118596536Y-74317499D01*
X119727907Y-73186128D01*
X120116816Y-73575037D01*
X118985445Y-74706408D01*
X118985445Y-74706408D01*
G37*
D18*
X118790990Y-73380583D03*
D19*
G36*
X118419759Y-74140723D02*
G01*
X118030850Y-73751814D01*
X119162221Y-72620443D01*
X119551130Y-73009352D01*
X118419759Y-74140723D01*
X118419759Y-74140723D01*
G37*
D18*
X118225305Y-72814897D03*
D19*
G36*
X117854074Y-73575037D02*
G01*
X117465165Y-73186128D01*
X118596536Y-72054757D01*
X118985445Y-72443666D01*
X117854074Y-73575037D01*
X117854074Y-73575037D01*
G37*
D18*
X116174695Y-72814897D03*
D19*
G36*
X116934835Y-73186128D02*
G01*
X116545926Y-73575037D01*
X115414555Y-72443666D01*
X115803464Y-72054757D01*
X116934835Y-73186128D01*
X116934835Y-73186128D01*
G37*
D18*
X115609010Y-73380583D03*
D19*
G36*
X116369150Y-73751814D02*
G01*
X115980241Y-74140723D01*
X114848870Y-73009352D01*
X115237779Y-72620443D01*
X116369150Y-73751814D01*
X116369150Y-73751814D01*
G37*
D18*
X115043324Y-73946268D03*
D19*
G36*
X115803464Y-74317499D02*
G01*
X115414555Y-74706408D01*
X114283184Y-73575037D01*
X114672093Y-73186128D01*
X115803464Y-74317499D01*
X115803464Y-74317499D01*
G37*
D18*
X114477639Y-74511953D03*
D19*
G36*
X115237779Y-74883184D02*
G01*
X114848870Y-75272093D01*
X113717499Y-74140722D01*
X114106408Y-73751813D01*
X115237779Y-74883184D01*
X115237779Y-74883184D01*
G37*
D18*
X113911953Y-75077639D03*
D19*
G36*
X114672093Y-75448870D02*
G01*
X114283184Y-75837779D01*
X113151813Y-74706408D01*
X113540722Y-74317499D01*
X114672093Y-75448870D01*
X114672093Y-75448870D01*
G37*
D18*
X113346268Y-75643324D03*
D19*
G36*
X114106408Y-76014555D02*
G01*
X113717499Y-76403464D01*
X112586128Y-75272093D01*
X112975037Y-74883184D01*
X114106408Y-76014555D01*
X114106408Y-76014555D01*
G37*
D18*
X112780583Y-76209010D03*
D19*
G36*
X113540723Y-76580241D02*
G01*
X113151814Y-76969150D01*
X112020443Y-75837779D01*
X112409352Y-75448870D01*
X113540723Y-76580241D01*
X113540723Y-76580241D01*
G37*
D18*
X112214897Y-76774695D03*
D19*
G36*
X112975037Y-77145926D02*
G01*
X112586128Y-77534835D01*
X111454757Y-76403464D01*
X111843666Y-76014555D01*
X112975037Y-77145926D01*
X112975037Y-77145926D01*
G37*
D20*
X146800000Y-81810000D03*
X146800000Y-80540000D03*
X146800000Y-79270000D03*
X146800000Y-78000000D03*
X146800000Y-76730000D03*
X146800000Y-75460000D03*
X146800000Y-74190000D03*
X141400000Y-74190000D03*
X141400000Y-75460000D03*
X141400000Y-76730000D03*
X141400000Y-78000000D03*
X141400000Y-79270000D03*
X141400000Y-80540000D03*
X141400000Y-81810000D03*
D17*
X107700000Y-71445000D03*
X107700000Y-73355000D03*
D21*
X108100000Y-77050000D03*
X108100000Y-78000000D03*
X108100000Y-78950000D03*
X110300000Y-78950000D03*
X110300000Y-77050000D03*
X110300000Y-78000000D03*
D22*
X107850000Y-81495000D03*
X107850000Y-84505000D03*
D23*
X123750000Y-84100000D03*
X127450000Y-84100000D03*
D24*
X127100000Y-70800000D03*
D25*
X125830000Y-70800000D03*
X124560000Y-70800000D03*
X123290000Y-70800000D03*
X122020000Y-70800000D03*
X120750000Y-70800000D03*
X119480000Y-70800000D03*
X118210000Y-70800000D03*
X116940000Y-70800000D03*
X115670000Y-70800000D03*
D26*
X106985000Y-78000000D03*
D27*
X116200000Y-76700000D03*
X117300000Y-84900000D03*
X121904900Y-83028200D03*
X114681700Y-77485800D03*
X125288500Y-83481400D03*
X114663000Y-78414100D03*
X120602900Y-78122400D03*
X120694400Y-77137000D03*
X145441800Y-75719200D03*
X139424000Y-76730000D03*
X116053000Y-80765900D03*
X143414700Y-82415200D03*
X117576900Y-83256300D03*
X145502900Y-79270000D03*
X145492400Y-76730000D03*
X119705600Y-83238600D03*
X118633400Y-75084500D03*
X142950800Y-79270000D03*
X132273700Y-75924700D03*
X119280200Y-78750800D03*
X131337000Y-75926400D03*
X119623100Y-79547300D03*
X131470200Y-79792100D03*
X118803300Y-76160000D03*
X143056200Y-84800000D03*
X123625100Y-72648600D03*
X113023400Y-81488100D03*
X111869600Y-77530000D03*
X109863200Y-80827800D03*
X114174300Y-83624600D03*
X114278400Y-76556600D03*
X131986600Y-71163400D03*
X140052800Y-78842300D03*
X132193700Y-83831900D03*
X117287900Y-73752300D03*
D28*
X144084700Y-71200000D02*
X142915300Y-71200000D01*
X144945000Y-71200000D02*
X144084700Y-71200000D01*
X144084700Y-71200000D02*
X142770100Y-69885400D01*
X142770100Y-69885400D02*
X111085800Y-69885400D01*
X111085800Y-69885400D02*
X109075600Y-71895600D01*
X109075600Y-71895600D02*
X109075600Y-72305300D01*
X109075600Y-72305300D02*
X109645000Y-72874700D01*
X107700000Y-72305300D02*
X109075600Y-72305300D01*
X150153800Y-72725600D02*
X147502800Y-70074600D01*
X147502800Y-70074600D02*
X146070400Y-70074600D01*
X146070400Y-70074600D02*
X144945000Y-71200000D01*
X142055000Y-71200000D02*
X142915300Y-71200000D01*
X111855000Y-85300300D02*
X111855000Y-82100000D01*
X105525300Y-83850000D02*
X105525300Y-84234700D01*
X105525300Y-84234700D02*
X106716000Y-85425400D01*
X106716000Y-85425400D02*
X111729900Y-85425400D01*
X111729900Y-85425400D02*
X111855000Y-85300300D01*
X111855000Y-85300300D02*
X111980100Y-85425400D01*
X111980100Y-85425400D02*
X118459300Y-85425400D01*
X118459300Y-85425400D02*
X118884700Y-85000000D01*
X119745000Y-85000000D02*
X118884700Y-85000000D01*
X103400000Y-83850000D02*
X105525300Y-83850000D01*
X106317000Y-72941600D02*
X105500000Y-73758600D01*
X105500000Y-73758600D02*
X105500000Y-74500000D01*
X107700000Y-71875100D02*
X107383500Y-71875100D01*
X107383500Y-71875100D02*
X106317000Y-72941600D01*
X106317000Y-72941600D02*
X105525300Y-72150000D01*
X103400000Y-72150000D02*
X105525300Y-72150000D01*
X107700000Y-71875100D02*
X107700000Y-72305300D01*
X107700000Y-71445000D02*
X107700000Y-71875100D01*
X131355000Y-85000000D02*
X132215300Y-85000000D01*
X147285200Y-84800000D02*
X146159800Y-85925400D01*
X146159800Y-85925400D02*
X133140700Y-85925400D01*
X133140700Y-85925400D02*
X132215300Y-85000000D01*
X147285200Y-84800000D02*
X147715300Y-84800000D01*
X146855000Y-84800000D02*
X147285200Y-84800000D01*
X150750000Y-83400000D02*
X149115300Y-83400000D01*
X149115300Y-83400000D02*
X147715300Y-84800000D01*
X150750000Y-83400000D02*
X150750000Y-80730300D01*
X150750000Y-80730300D02*
X151055000Y-80425300D01*
X111855000Y-82100000D02*
X111855000Y-80974700D01*
X111855000Y-80974700D02*
X112328300Y-80974700D01*
X112328300Y-80974700D02*
X113346300Y-79956700D01*
X129700000Y-77045000D02*
X129700000Y-77905300D01*
X137800000Y-81000000D02*
X134687500Y-81000000D01*
X134687500Y-81000000D02*
X134394600Y-80707100D01*
X134394600Y-80707100D02*
X134394600Y-79079700D01*
X134394600Y-79079700D02*
X133989500Y-78674600D01*
X133989500Y-78674600D02*
X131329600Y-78674600D01*
X131329600Y-78674600D02*
X130560300Y-77905300D01*
X130560300Y-77905300D02*
X129700000Y-77905300D01*
X114177400Y-79125600D02*
X114913800Y-79125600D01*
X114913800Y-79125600D02*
X115393400Y-78646000D01*
X115393400Y-78646000D02*
X115393400Y-75427800D01*
X115393400Y-75427800D02*
X115308700Y-75343100D01*
X109645000Y-74000000D02*
X109645000Y-72874700D01*
X107194700Y-78000000D02*
X106985000Y-78000000D01*
X108100000Y-78000000D02*
X107194700Y-78000000D01*
X114477600Y-74512000D02*
X115308700Y-75343100D01*
X113346300Y-79956700D02*
X114177400Y-79125600D01*
X151055000Y-79300000D02*
X151055000Y-80425300D01*
X149507600Y-73892400D02*
X150153800Y-73246200D01*
X150153800Y-73246200D02*
X150153800Y-72725600D01*
X150800000Y-72600000D02*
X150674400Y-72725600D01*
X150674400Y-72725600D02*
X150153800Y-72725600D01*
X149507600Y-73892400D02*
X147925300Y-73892400D01*
X147925300Y-73892400D02*
X147925300Y-74190000D01*
X146800000Y-74190000D02*
X147925300Y-74190000D01*
X149507600Y-73892400D02*
X151055000Y-75439800D01*
X151055000Y-75439800D02*
X151055000Y-76700000D01*
X151055000Y-76700000D02*
X151055000Y-79300000D01*
D29*
X112214900Y-78825300D02*
X113554400Y-77485800D01*
X113554400Y-77485800D02*
X114681700Y-77485800D01*
X121904900Y-83028200D02*
X122424700Y-83548000D01*
X122424700Y-83548000D02*
X122424700Y-84100000D01*
X123750000Y-84100000D02*
X122424700Y-84100000D01*
X122424700Y-84100000D02*
X122424700Y-84230300D01*
X122424700Y-84230300D02*
X121655000Y-85000000D01*
X126124700Y-84100000D02*
X125506100Y-83481400D01*
X125506100Y-83481400D02*
X125288500Y-83481400D01*
X112780600Y-79391000D02*
X113757500Y-78414100D01*
X113757500Y-78414100D02*
X114663000Y-78414100D01*
X127450000Y-84100000D02*
X126124700Y-84100000D01*
X127450000Y-84100000D02*
X127737000Y-84100000D01*
X128112700Y-84100000D02*
X128775300Y-84100000D01*
X128112700Y-84100000D02*
X127737000Y-84100000D01*
X128775300Y-84100000D02*
X128775300Y-84330300D01*
X128775300Y-84330300D02*
X129445000Y-85000000D01*
X129700000Y-73155000D02*
X128624700Y-73155000D01*
X126055000Y-73900000D02*
X127879700Y-73900000D01*
X127879700Y-73900000D02*
X128624700Y-73155000D01*
X120258000Y-79161000D02*
X120258000Y-78467300D01*
X120258000Y-78467300D02*
X120602900Y-78122400D01*
X121053700Y-79956700D02*
X120258000Y-79161000D01*
X125830000Y-70800000D02*
X125830000Y-71625300D01*
X125830000Y-71625300D02*
X125208900Y-72246400D01*
X125208900Y-72246400D02*
X125208900Y-74806600D01*
X125208900Y-74806600D02*
X127388500Y-76986200D01*
X127388500Y-76986200D02*
X127388500Y-78957000D01*
X127388500Y-78957000D02*
X126014000Y-80331500D01*
X126014000Y-80331500D02*
X122559900Y-80331500D01*
X122559900Y-80331500D02*
X121619400Y-79391000D01*
X121389500Y-78029600D02*
X121389500Y-77853300D01*
X121389500Y-77853300D02*
X120777700Y-77241500D01*
X120777700Y-77241500D02*
X120777700Y-77220300D01*
X120777700Y-77220300D02*
X120694400Y-77137000D01*
X122185100Y-78825300D02*
X121389500Y-78029600D01*
X122185100Y-76774700D02*
X122980800Y-75979000D01*
X123290000Y-70800000D02*
X123290000Y-71625300D01*
X123290000Y-71625300D02*
X122980700Y-71934600D01*
X122980700Y-71934600D02*
X122980700Y-75979000D01*
X122980700Y-75979000D02*
X122980800Y-75979000D01*
X121619400Y-76209000D02*
X122415200Y-75413200D01*
X122020000Y-70800000D02*
X122020000Y-71625300D01*
X122020000Y-71625300D02*
X122415200Y-72020500D01*
X122415200Y-72020500D02*
X122415200Y-75413200D01*
X121053700Y-75643300D02*
X121849400Y-74847600D01*
X120750000Y-70800000D02*
X120750000Y-71625300D01*
X120750000Y-71625300D02*
X121849400Y-72724700D01*
X121849400Y-72724700D02*
X121849400Y-74847600D01*
X120488000Y-75077600D02*
X121283700Y-74281900D01*
X119480000Y-70800000D02*
X119480000Y-71625300D01*
X119480000Y-71625300D02*
X121283700Y-73429000D01*
X121283700Y-73429000D02*
X121283700Y-74281900D01*
X119922400Y-74512000D02*
X120718100Y-73716300D01*
X118210000Y-70800000D02*
X118210000Y-71625300D01*
X118210000Y-71625300D02*
X118735300Y-71625300D01*
X118735300Y-71625300D02*
X120718100Y-73608100D01*
X120718100Y-73608100D02*
X120718100Y-73716300D01*
X140324700Y-74190000D02*
X139990300Y-74190000D01*
X139990300Y-74190000D02*
X138800300Y-73000000D01*
X137800000Y-73000000D02*
X138800300Y-73000000D01*
X136065300Y-71500000D02*
X136065300Y-72265600D01*
X136065300Y-72265600D02*
X136799700Y-73000000D01*
X137800000Y-73000000D02*
X136799700Y-73000000D01*
X135255000Y-71500000D02*
X136065300Y-71500000D01*
X141400000Y-74190000D02*
X140324700Y-74190000D01*
X137800000Y-77000000D02*
X138800300Y-77000000D01*
X146800000Y-80540000D02*
X145724700Y-80540000D01*
X145724700Y-80540000D02*
X142559400Y-77374700D01*
X142559400Y-77374700D02*
X139175000Y-77374700D01*
X139175000Y-77374700D02*
X138800300Y-77000000D01*
X135255000Y-77000000D02*
X137800000Y-77000000D01*
X145724700Y-75460000D02*
X145465500Y-75719200D01*
X145465500Y-75719200D02*
X145441800Y-75719200D01*
X146800000Y-75460000D02*
X145724700Y-75460000D01*
X137800000Y-83000000D02*
X136799700Y-83000000D01*
X135255000Y-82400000D02*
X136199700Y-82400000D01*
X136199700Y-82400000D02*
X136799700Y-83000000D01*
X137800000Y-79000000D02*
X136799700Y-79000000D01*
X135255000Y-79800000D02*
X136065300Y-79800000D01*
X136799700Y-79000000D02*
X136799700Y-79065600D01*
X136799700Y-79065600D02*
X136065300Y-79800000D01*
X140324700Y-76730000D02*
X139424000Y-76730000D01*
X141400000Y-76730000D02*
X140324700Y-76730000D01*
X146800000Y-78000000D02*
X145724700Y-78000000D01*
X145724700Y-78000000D02*
X143829400Y-76104700D01*
X143829400Y-76104700D02*
X139905000Y-76104700D01*
X139905000Y-76104700D02*
X138800300Y-75000000D01*
X137800000Y-75000000D02*
X138800300Y-75000000D01*
X137800000Y-75000000D02*
X136765300Y-75000000D01*
X136765300Y-75000000D02*
X136065300Y-74300000D01*
X135255000Y-74300000D02*
X136065300Y-74300000D01*
X134444600Y-83310400D02*
X134279600Y-83475400D01*
X134279600Y-83475400D02*
X132721600Y-83475400D01*
X132721600Y-83475400D02*
X132430200Y-83184000D01*
X132430200Y-83184000D02*
X131467100Y-83184000D01*
X131467100Y-83184000D02*
X130255400Y-84395700D01*
X130255400Y-84395700D02*
X130255400Y-85892900D01*
X130255400Y-85892900D02*
X130072900Y-86075400D01*
X130072900Y-86075400D02*
X120976500Y-86075400D01*
X120976500Y-86075400D02*
X120555400Y-85654300D01*
X120555400Y-85654300D02*
X120555400Y-84059200D01*
X120555400Y-84059200D02*
X120390400Y-83894200D01*
X120390400Y-83894200D02*
X115682900Y-83894200D01*
X115682900Y-83894200D02*
X113681900Y-81893200D01*
X113681900Y-81893200D02*
X113681900Y-81883700D01*
X114477600Y-81088000D02*
X113681900Y-81883700D01*
X134444600Y-83310400D02*
X134444600Y-81759600D01*
X134444600Y-81759600D02*
X133894200Y-81209200D01*
X133894200Y-81209200D02*
X131143900Y-81209200D01*
X131143900Y-81209200D02*
X129700000Y-79765300D01*
X140324700Y-80540000D02*
X140324700Y-82292700D01*
X140324700Y-82292700D02*
X138613000Y-84004400D01*
X138613000Y-84004400D02*
X135138600Y-84004400D01*
X135138600Y-84004400D02*
X134444600Y-83310400D01*
X129700000Y-78955000D02*
X129700000Y-79765300D01*
X141400000Y-80540000D02*
X140324700Y-80540000D01*
X145724700Y-81810000D02*
X145119500Y-82415200D01*
X145119500Y-82415200D02*
X143414700Y-82415200D01*
X146800000Y-81810000D02*
X145724700Y-81810000D01*
X147337700Y-81810000D02*
X146800000Y-81810000D01*
X115043300Y-81653700D02*
X115931100Y-80765900D01*
X115931100Y-80765900D02*
X116053000Y-80765900D01*
X149145000Y-80375300D02*
X148795200Y-80725100D01*
X148795200Y-80725100D02*
X148795200Y-80762500D01*
X148795200Y-80762500D02*
X147875300Y-81682400D01*
X147875300Y-81682400D02*
X147875300Y-81810000D01*
X147337700Y-81810000D02*
X147875300Y-81810000D01*
X149145000Y-79300000D02*
X149145000Y-80375300D01*
X146800000Y-79270000D02*
X145502900Y-79270000D01*
X146800000Y-79270000D02*
X147875300Y-79270000D01*
X149145000Y-77775300D02*
X148944900Y-77775300D01*
X148944900Y-77775300D02*
X147875300Y-78844900D01*
X147875300Y-78844900D02*
X147875300Y-79270000D01*
X149145000Y-76700000D02*
X149145000Y-77775300D01*
X118225300Y-82785100D02*
X117754100Y-83256300D01*
X117754100Y-83256300D02*
X117576900Y-83256300D01*
X145492400Y-76730000D02*
X144762700Y-76000300D01*
X144762700Y-76000300D02*
X144762700Y-73292300D01*
X144762700Y-73292300D02*
X146044700Y-72010300D01*
X146044700Y-72010300D02*
X146044700Y-71200000D01*
X146800000Y-76730000D02*
X145492400Y-76730000D01*
X118791000Y-82219400D02*
X119705600Y-83134000D01*
X119705600Y-83134000D02*
X119705600Y-83238600D01*
X146855000Y-71200000D02*
X146044700Y-71200000D01*
X140145000Y-71200000D02*
X140955300Y-71200000D01*
X141400000Y-75460000D02*
X142475300Y-75460000D01*
X142475300Y-75460000D02*
X142475300Y-73530300D01*
X142475300Y-73530300D02*
X140955300Y-72010300D01*
X140955300Y-72010300D02*
X140955300Y-71200000D01*
X120718100Y-81883700D02*
X125735600Y-81883700D01*
X125735600Y-81883700D02*
X128556300Y-79063000D01*
X128556300Y-79063000D02*
X128556300Y-76431500D01*
X128556300Y-76431500D02*
X128776200Y-76211600D01*
X128776200Y-76211600D02*
X129413000Y-76211600D01*
X129413000Y-76211600D02*
X132400000Y-73224600D01*
X132400000Y-73224600D02*
X133333100Y-73224600D01*
X133333100Y-73224600D02*
X134155400Y-72402300D01*
X134155400Y-72402300D02*
X134155400Y-70868500D01*
X134155400Y-70868500D02*
X134634200Y-70389700D01*
X134634200Y-70389700D02*
X138524400Y-70389700D01*
X138524400Y-70389700D02*
X139334700Y-71200000D01*
X140145000Y-71200000D02*
X139334700Y-71200000D01*
X119922400Y-81088000D02*
X120718100Y-81883700D01*
X118633400Y-75084500D02*
X118633400Y-74814400D01*
X118633400Y-74814400D02*
X118561000Y-74742000D01*
X119356700Y-73946300D02*
X118561000Y-74742000D01*
X142950800Y-79270000D02*
X142950800Y-81994800D01*
X142950800Y-81994800D02*
X142789400Y-82156200D01*
X142789400Y-82156200D02*
X142789400Y-83454700D01*
X142789400Y-83454700D02*
X144134700Y-84800000D01*
X142475300Y-78000000D02*
X142950800Y-78475500D01*
X142950800Y-78475500D02*
X142950800Y-79270000D01*
X144945000Y-84800000D02*
X144134700Y-84800000D01*
X141400000Y-78000000D02*
X142475300Y-78000000D01*
X116404700Y-81423700D02*
X116404700Y-81423800D01*
X116404700Y-81423800D02*
X116431400Y-81423800D01*
X116431400Y-81423800D02*
X119104400Y-78750800D01*
X119104400Y-78750800D02*
X119280200Y-78750800D01*
X133345000Y-75924700D02*
X132273700Y-75924700D01*
X115609000Y-82219400D02*
X116404700Y-81423700D01*
X133345000Y-77000000D02*
X133345000Y-75924700D01*
X132534700Y-74300000D02*
X131337100Y-75497600D01*
X131337100Y-75497600D02*
X131337100Y-75926400D01*
X131337100Y-75926400D02*
X131337000Y-75926400D01*
X116174700Y-82785100D02*
X119412500Y-79547300D01*
X119412500Y-79547300D02*
X119623100Y-79547300D01*
X133345000Y-74300000D02*
X132534700Y-74300000D01*
X120152400Y-82449400D02*
X120201800Y-82400000D01*
X120201800Y-82400000D02*
X132534700Y-82400000D01*
X119356700Y-81653700D02*
X120152400Y-82449400D01*
X133345000Y-82400000D02*
X132534700Y-82400000D01*
X117995400Y-74176200D02*
X118008100Y-74189000D01*
X118008100Y-74189000D02*
X118008100Y-75364800D01*
X118008100Y-75364800D02*
X118803300Y-76160000D01*
X118791000Y-73380600D02*
X117995400Y-74176200D01*
X133345000Y-79800000D02*
X132534700Y-79800000D01*
X131470200Y-79792100D02*
X132526800Y-79792100D01*
X132526800Y-79792100D02*
X132534700Y-79800000D01*
X142475300Y-81810000D02*
X142475300Y-81833400D01*
X142475300Y-81833400D02*
X142339100Y-81969600D01*
X142339100Y-81969600D02*
X142339100Y-83440600D01*
X142339100Y-83440600D02*
X142055000Y-83724700D01*
X142865300Y-84800000D02*
X143056200Y-84800000D01*
X142055000Y-84800000D02*
X142865300Y-84800000D01*
X124145000Y-72824700D02*
X123801200Y-72824700D01*
X123801200Y-72824700D02*
X123625100Y-72648600D01*
X124145000Y-73900000D02*
X124145000Y-72824700D01*
X142055000Y-84800000D02*
X142055000Y-83724700D01*
X113116300Y-81318100D02*
X113116300Y-81395200D01*
X113116300Y-81395200D02*
X113023400Y-81488100D01*
X113912000Y-80522400D02*
X113116300Y-81318100D01*
X112780600Y-76209000D02*
X111984800Y-75413200D01*
X112214900Y-76774700D02*
X111419300Y-75979000D01*
X111419300Y-75979000D02*
X111560300Y-75838000D01*
X111560300Y-75838000D02*
X111560300Y-75837700D01*
X111560300Y-75837700D02*
X111984800Y-75413200D01*
X111869600Y-77530000D02*
X112214900Y-77184700D01*
X112214900Y-77184700D02*
X112214900Y-76774700D01*
X141400000Y-81810000D02*
X142475300Y-81810000D01*
X109863200Y-80827800D02*
X109863200Y-80942900D01*
X109863200Y-80942900D02*
X109945000Y-81024700D01*
X109945000Y-82100000D02*
X109945000Y-81024700D01*
X107850000Y-81495000D02*
X109075300Y-81495000D01*
X109075300Y-81495000D02*
X109075300Y-81635400D01*
X109075300Y-81635400D02*
X109539900Y-82100000D01*
X109945000Y-82100000D02*
X109539900Y-82100000D01*
X111555000Y-74000000D02*
X111555000Y-72924700D01*
X115043300Y-73946300D02*
X113894100Y-72797100D01*
X113894100Y-72797100D02*
X113894100Y-70910400D01*
X113894100Y-70910400D02*
X113608300Y-70624600D01*
X113608300Y-70624600D02*
X112327500Y-70624600D01*
X112327500Y-70624600D02*
X112144600Y-70807500D01*
X112144600Y-70807500D02*
X112144600Y-72335100D01*
X112144600Y-72335100D02*
X111555000Y-72924700D01*
X112955000Y-72775300D02*
X112955000Y-74120600D01*
X112955000Y-74120600D02*
X113912000Y-75077600D01*
X112955000Y-71700000D02*
X112955000Y-72775300D01*
X113346300Y-75643300D02*
X114142000Y-76439000D01*
X114142000Y-76439000D02*
X114160800Y-76439000D01*
X114160800Y-76439000D02*
X114278400Y-76556600D01*
X112903000Y-84300000D02*
X113713300Y-84300000D01*
X114174300Y-83624600D02*
X113713300Y-84085600D01*
X113713300Y-84085600D02*
X113713300Y-84300000D01*
X141400000Y-79270000D02*
X140324700Y-79270000D01*
X140324700Y-79270000D02*
X140324700Y-79114200D01*
X140324700Y-79114200D02*
X140052800Y-78842300D01*
X130775300Y-71245000D02*
X130856900Y-71163400D01*
X130856900Y-71163400D02*
X131986600Y-71163400D01*
X129700000Y-71245000D02*
X130775300Y-71245000D01*
X107850000Y-84505000D02*
X107850000Y-83644700D01*
X107850000Y-83644700D02*
X107644700Y-83644700D01*
X107644700Y-83644700D02*
X105500000Y-81500000D01*
X109444700Y-78000000D02*
X109444700Y-76126000D01*
X109444700Y-76126000D02*
X107700000Y-74381300D01*
X107700000Y-74381300D02*
X107700000Y-73355000D01*
X110300000Y-78000000D02*
X109444700Y-78000000D01*
X109444700Y-78000000D02*
X109444700Y-78935500D01*
X109444700Y-78935500D02*
X108154800Y-80225400D01*
X108154800Y-80225400D02*
X106774600Y-80225400D01*
X106774600Y-80225400D02*
X105500000Y-81500000D01*
X110300000Y-78950000D02*
X110993000Y-79643000D01*
X110993000Y-79643000D02*
X110993000Y-83224700D01*
X110993000Y-84300000D02*
X110993000Y-83224700D01*
X111045000Y-71700000D02*
X111045000Y-72775300D01*
X110300000Y-77050000D02*
X110455400Y-76894600D01*
X110455400Y-76894600D02*
X110455400Y-73364900D01*
X110455400Y-73364900D02*
X111045000Y-72775300D01*
X133345000Y-71500000D02*
X132534700Y-71500000D01*
X120488000Y-80522400D02*
X121283700Y-81318100D01*
X121283700Y-81318100D02*
X125664300Y-81318100D01*
X125664300Y-81318100D02*
X127843600Y-79138800D01*
X127843600Y-79138800D02*
X127843600Y-76507100D01*
X127843600Y-76507100D02*
X130138400Y-74212300D01*
X130138400Y-74212300D02*
X130385500Y-74212300D01*
X130385500Y-74212300D02*
X132534700Y-72063100D01*
X132534700Y-72063100D02*
X132534700Y-71500000D01*
X116174700Y-72814900D02*
X115379100Y-72019200D01*
X116940000Y-70800000D02*
X116010500Y-71729500D01*
X116010500Y-71729500D02*
X115668800Y-71729500D01*
X115668800Y-71729500D02*
X115379100Y-72019200D01*
X115609000Y-73380600D02*
X114813200Y-72584800D01*
X115670000Y-70800000D02*
X114813200Y-71656800D01*
X114813200Y-71656800D02*
X114813200Y-72584800D01*
X132193700Y-83831900D02*
X133161800Y-84800000D01*
X133161800Y-84800000D02*
X140145000Y-84800000D01*
X118225300Y-72814900D02*
X117287900Y-73752300D01*
X108100000Y-77050000D02*
X107244700Y-77050000D01*
X107244700Y-77050000D02*
X107194700Y-77000000D01*
X107194700Y-77000000D02*
X105500000Y-77000000D01*
X108100000Y-78950000D02*
X107244700Y-78950000D01*
X107244700Y-78950000D02*
X107194700Y-79000000D01*
X107194700Y-79000000D02*
X105500000Y-79000000D01*
D30*
G36*
X132598001Y-85311003D02*
G01*
X132621799Y-85340001D01*
X132650797Y-85363799D01*
X132737523Y-85434974D01*
X132858958Y-85499883D01*
X132869553Y-85505546D01*
X133012814Y-85549003D01*
X133124467Y-85560000D01*
X133124476Y-85560000D01*
X133161799Y-85563676D01*
X133199122Y-85560000D01*
X139022913Y-85560000D01*
X139034188Y-85674482D01*
X139061646Y-85765000D01*
X132476595Y-85765000D01*
X132478072Y-85750000D01*
X132475000Y-85285750D01*
X132316252Y-85127002D01*
X132414000Y-85127002D01*
X132598001Y-85311003D01*
X132598001Y-85311003D01*
G37*
X132598001Y-85311003D02*
X132621799Y-85340001D01*
X132650797Y-85363799D01*
X132737523Y-85434974D01*
X132858958Y-85499883D01*
X132869553Y-85505546D01*
X133012814Y-85549003D01*
X133124467Y-85560000D01*
X133124476Y-85560000D01*
X133161799Y-85563676D01*
X133199122Y-85560000D01*
X139022913Y-85560000D01*
X139034188Y-85674482D01*
X139061646Y-85765000D01*
X132476595Y-85765000D01*
X132478072Y-85750000D01*
X132475000Y-85285750D01*
X132316252Y-85127002D01*
X132414000Y-85127002D01*
X132598001Y-85311003D01*
G36*
X111633603Y-70243696D02*
G01*
X111604599Y-70267499D01*
X111565285Y-70315403D01*
X111530000Y-70311928D01*
X110560000Y-70311928D01*
X110435518Y-70324188D01*
X110315820Y-70360498D01*
X110205506Y-70419463D01*
X110108815Y-70498815D01*
X110029463Y-70595506D01*
X109970498Y-70705820D01*
X109934188Y-70825518D01*
X109921928Y-70950000D01*
X109921928Y-72450000D01*
X109934188Y-72574482D01*
X109946406Y-72614759D01*
X109930750Y-72615000D01*
X109772000Y-72773750D01*
X109772000Y-73031222D01*
X109749854Y-73072654D01*
X109728420Y-73143315D01*
X109706398Y-73215914D01*
X109697543Y-73305820D01*
X109691724Y-73364900D01*
X109695401Y-73402232D01*
X109695401Y-74147000D01*
X109518000Y-74147000D01*
X109518000Y-74127000D01*
X109498000Y-74127000D01*
X109498000Y-73873000D01*
X109518000Y-73873000D01*
X109518000Y-72773750D01*
X109359250Y-72615000D01*
X109160000Y-72611928D01*
X109038474Y-72623897D01*
X108980537Y-72515506D01*
X108901185Y-72418815D01*
X108878259Y-72400000D01*
X108901185Y-72381185D01*
X108980537Y-72284494D01*
X109039502Y-72174180D01*
X109075812Y-72054482D01*
X109088072Y-71930000D01*
X109085000Y-71730750D01*
X108926250Y-71572000D01*
X107827000Y-71572000D01*
X107827000Y-71592000D01*
X107573000Y-71592000D01*
X107573000Y-71572000D01*
X106473750Y-71572000D01*
X106315000Y-71730750D01*
X106311928Y-71930000D01*
X106324188Y-72054482D01*
X106360498Y-72174180D01*
X106419463Y-72284494D01*
X106498815Y-72381185D01*
X106521741Y-72400000D01*
X106498815Y-72418815D01*
X106419463Y-72515506D01*
X106360498Y-72625820D01*
X106324188Y-72745518D01*
X106311928Y-72870000D01*
X106311928Y-73215564D01*
X106300792Y-73181739D01*
X106028225Y-73050842D01*
X105735358Y-72975635D01*
X105570379Y-72966550D01*
X105580010Y-72952761D01*
X105709144Y-72658355D01*
X105740124Y-72530434D01*
X105620777Y-72277000D01*
X103527000Y-72277000D01*
X103527000Y-73785000D01*
X104140538Y-73785000D01*
X104050842Y-73971775D01*
X104024665Y-74073712D01*
X104012616Y-74067784D01*
X103682415Y-73979631D01*
X103341361Y-73957591D01*
X103002561Y-74002511D01*
X102679034Y-74112664D01*
X102480726Y-74218662D01*
X102372893Y-74493288D01*
X103400000Y-75520395D01*
X103414143Y-75506253D01*
X103593748Y-75685858D01*
X103579605Y-75700000D01*
X103593748Y-75714143D01*
X103414143Y-75893748D01*
X103400000Y-75879605D01*
X102372893Y-76906712D01*
X102480726Y-77181338D01*
X102787384Y-77332216D01*
X103117585Y-77420369D01*
X103458639Y-77442409D01*
X103797439Y-77397489D01*
X104000257Y-77328434D01*
X104023989Y-77447743D01*
X104139701Y-77727095D01*
X104307688Y-77978505D01*
X104329183Y-78000000D01*
X104307688Y-78021495D01*
X104139701Y-78272905D01*
X104023989Y-78552257D01*
X104001595Y-78664842D01*
X103682415Y-78579631D01*
X103341361Y-78557591D01*
X103002561Y-78602511D01*
X102679034Y-78712664D01*
X102480726Y-78818662D01*
X102372893Y-79093288D01*
X103400000Y-80120395D01*
X103414143Y-80106253D01*
X103593748Y-80285858D01*
X103579605Y-80300000D01*
X103593748Y-80314143D01*
X103414143Y-80493748D01*
X103400000Y-80479605D01*
X102372893Y-81506712D01*
X102480726Y-81781338D01*
X102787384Y-81932216D01*
X103117585Y-82020369D01*
X103458639Y-82042409D01*
X103797439Y-81997489D01*
X104018887Y-81922092D01*
X104023989Y-81947743D01*
X104134691Y-82215000D01*
X103527000Y-82215000D01*
X103527000Y-83723000D01*
X105620777Y-83723000D01*
X105740124Y-83469566D01*
X105709144Y-83341645D01*
X105580010Y-83047239D01*
X105571461Y-83035000D01*
X105651184Y-83035000D01*
X105908930Y-82983731D01*
X106474113Y-83548915D01*
X106419463Y-83615506D01*
X106360498Y-83725820D01*
X106324188Y-83845518D01*
X106311928Y-83970000D01*
X106311928Y-85040000D01*
X106324188Y-85164482D01*
X106360498Y-85284180D01*
X106419463Y-85394494D01*
X106498815Y-85491185D01*
X106595506Y-85570537D01*
X106705820Y-85629502D01*
X106825518Y-85665812D01*
X106950000Y-85678072D01*
X108750000Y-85678072D01*
X108874482Y-85665812D01*
X108994180Y-85629502D01*
X109104494Y-85570537D01*
X109201185Y-85491185D01*
X109280537Y-85394494D01*
X109339502Y-85284180D01*
X109375812Y-85164482D01*
X109388072Y-85040000D01*
X109388072Y-83970000D01*
X109375812Y-83845518D01*
X109339502Y-83725820D01*
X109280537Y-83615506D01*
X109201185Y-83518815D01*
X109104494Y-83439463D01*
X108994180Y-83380498D01*
X108874482Y-83344188D01*
X108750000Y-83331928D01*
X108544575Y-83331928D01*
X108484974Y-83220424D01*
X108390001Y-83104699D01*
X108274276Y-83009726D01*
X108142247Y-82939154D01*
X107998986Y-82895697D01*
X107967387Y-82892585D01*
X107742874Y-82668072D01*
X108750000Y-82668072D01*
X108821928Y-82660988D01*
X108821928Y-82850000D01*
X108834188Y-82974482D01*
X108870498Y-83094180D01*
X108929463Y-83204494D01*
X109008815Y-83301185D01*
X109105506Y-83380537D01*
X109215820Y-83439502D01*
X109335518Y-83475812D01*
X109460000Y-83488072D01*
X109876027Y-83488072D01*
X109869928Y-83550000D01*
X109869928Y-85050000D01*
X109882188Y-85174482D01*
X109918498Y-85294180D01*
X109977463Y-85404494D01*
X110056815Y-85501185D01*
X110153506Y-85580537D01*
X110263820Y-85639502D01*
X110383518Y-85675812D01*
X110508000Y-85688072D01*
X111478000Y-85688072D01*
X111602482Y-85675812D01*
X111722180Y-85639502D01*
X111832494Y-85580537D01*
X111929185Y-85501185D01*
X111948000Y-85478259D01*
X111966815Y-85501185D01*
X112063506Y-85580537D01*
X112173820Y-85639502D01*
X112293518Y-85675812D01*
X112418000Y-85688072D01*
X113388000Y-85688072D01*
X113512482Y-85675812D01*
X113632180Y-85639502D01*
X113742494Y-85580537D01*
X113839185Y-85501185D01*
X113918537Y-85404494D01*
X113977502Y-85294180D01*
X114013812Y-85174482D01*
X114026072Y-85050000D01*
X114026072Y-84994575D01*
X114137576Y-84934974D01*
X114253301Y-84840001D01*
X114348274Y-84724276D01*
X114380600Y-84663799D01*
X114418846Y-84592247D01*
X114439175Y-84525230D01*
X114447029Y-84523668D01*
X114617189Y-84453186D01*
X114770328Y-84350862D01*
X114900562Y-84220628D01*
X114914166Y-84200268D01*
X115119100Y-84405202D01*
X115142899Y-84434201D01*
X115258624Y-84529174D01*
X115390653Y-84599746D01*
X115533914Y-84643203D01*
X115645567Y-84654200D01*
X115645576Y-84654200D01*
X115682899Y-84657876D01*
X115720222Y-84654200D01*
X118624603Y-84654200D01*
X118625000Y-84714250D01*
X118783750Y-84873000D01*
X119618000Y-84873000D01*
X119618000Y-84853000D01*
X119795401Y-84853000D01*
X119795400Y-85147000D01*
X119618000Y-85147000D01*
X119618000Y-85127000D01*
X118783750Y-85127000D01*
X118625000Y-85285750D01*
X118621928Y-85750000D01*
X118623405Y-85765000D01*
X102035945Y-85765000D01*
X101852098Y-85746974D01*
X101709822Y-85704018D01*
X101578608Y-85634250D01*
X101463439Y-85540321D01*
X101368708Y-85425810D01*
X101298025Y-85295085D01*
X101254078Y-85153116D01*
X101235000Y-84971599D01*
X101235000Y-84674251D01*
X101404078Y-84916317D01*
X101636046Y-85138895D01*
X101906980Y-85311942D01*
X102206468Y-85428807D01*
X102523000Y-85485000D01*
X103273000Y-85485000D01*
X103273000Y-83977000D01*
X103527000Y-83977000D01*
X103527000Y-85485000D01*
X104277000Y-85485000D01*
X104593532Y-85428807D01*
X104893020Y-85311942D01*
X105163954Y-85138895D01*
X105395922Y-84916317D01*
X105580010Y-84652761D01*
X105709144Y-84358355D01*
X105740124Y-84230434D01*
X105620777Y-83977000D01*
X103527000Y-83977000D01*
X103273000Y-83977000D01*
X103253000Y-83977000D01*
X103253000Y-83723000D01*
X103273000Y-83723000D01*
X103273000Y-82215000D01*
X102523000Y-82215000D01*
X102206468Y-82271193D01*
X101906980Y-82388058D01*
X101636046Y-82561105D01*
X101404078Y-82783683D01*
X101235000Y-83025749D01*
X101235000Y-80358639D01*
X101657591Y-80358639D01*
X101702511Y-80697439D01*
X101812664Y-81020966D01*
X101918662Y-81219274D01*
X102193288Y-81327107D01*
X103220395Y-80300000D01*
X102193288Y-79272893D01*
X101918662Y-79380726D01*
X101767784Y-79687384D01*
X101679631Y-80017585D01*
X101657591Y-80358639D01*
X101235000Y-80358639D01*
X101235000Y-75758639D01*
X101657591Y-75758639D01*
X101702511Y-76097439D01*
X101812664Y-76420966D01*
X101918662Y-76619274D01*
X102193288Y-76727107D01*
X103220395Y-75700000D01*
X102193288Y-74672893D01*
X101918662Y-74780726D01*
X101767784Y-75087384D01*
X101679631Y-75417585D01*
X101657591Y-75758639D01*
X101235000Y-75758639D01*
X101235000Y-72974251D01*
X101404078Y-73216317D01*
X101636046Y-73438895D01*
X101906980Y-73611942D01*
X102206468Y-73728807D01*
X102523000Y-73785000D01*
X103273000Y-73785000D01*
X103273000Y-72277000D01*
X103253000Y-72277000D01*
X103253000Y-72023000D01*
X103273000Y-72023000D01*
X103273000Y-70515000D01*
X103527000Y-70515000D01*
X103527000Y-72023000D01*
X105620777Y-72023000D01*
X105740124Y-71769566D01*
X105709144Y-71641645D01*
X105580010Y-71347239D01*
X105395922Y-71083683D01*
X105267022Y-70960000D01*
X106311928Y-70960000D01*
X106315000Y-71159250D01*
X106473750Y-71318000D01*
X107573000Y-71318000D01*
X107573000Y-70483750D01*
X107827000Y-70483750D01*
X107827000Y-71318000D01*
X108926250Y-71318000D01*
X109085000Y-71159250D01*
X109088072Y-70960000D01*
X109075812Y-70835518D01*
X109039502Y-70715820D01*
X108980537Y-70605506D01*
X108901185Y-70508815D01*
X108804494Y-70429463D01*
X108694180Y-70370498D01*
X108574482Y-70334188D01*
X108450000Y-70321928D01*
X107985750Y-70325000D01*
X107827000Y-70483750D01*
X107573000Y-70483750D01*
X107414250Y-70325000D01*
X106950000Y-70321928D01*
X106825518Y-70334188D01*
X106705820Y-70370498D01*
X106595506Y-70429463D01*
X106498815Y-70508815D01*
X106419463Y-70605506D01*
X106360498Y-70715820D01*
X106324188Y-70835518D01*
X106311928Y-70960000D01*
X105267022Y-70960000D01*
X105163954Y-70861105D01*
X104893020Y-70688058D01*
X104593532Y-70571193D01*
X104277000Y-70515000D01*
X103527000Y-70515000D01*
X103273000Y-70515000D01*
X102523000Y-70515000D01*
X102206468Y-70571193D01*
X101906980Y-70688058D01*
X101636046Y-70861105D01*
X101404078Y-71083683D01*
X101235000Y-71325749D01*
X101235000Y-71035945D01*
X101253026Y-70852098D01*
X101295982Y-70709822D01*
X101365750Y-70578608D01*
X101459680Y-70463439D01*
X101574187Y-70368709D01*
X101704916Y-70298024D01*
X101846883Y-70254078D01*
X102028401Y-70235000D01*
X111642299Y-70235000D01*
X111633603Y-70243696D01*
X111633603Y-70243696D01*
G37*
X111633603Y-70243696D02*
X111604599Y-70267499D01*
X111565285Y-70315403D01*
X111530000Y-70311928D01*
X110560000Y-70311928D01*
X110435518Y-70324188D01*
X110315820Y-70360498D01*
X110205506Y-70419463D01*
X110108815Y-70498815D01*
X110029463Y-70595506D01*
X109970498Y-70705820D01*
X109934188Y-70825518D01*
X109921928Y-70950000D01*
X109921928Y-72450000D01*
X109934188Y-72574482D01*
X109946406Y-72614759D01*
X109930750Y-72615000D01*
X109772000Y-72773750D01*
X109772000Y-73031222D01*
X109749854Y-73072654D01*
X109728420Y-73143315D01*
X109706398Y-73215914D01*
X109697543Y-73305820D01*
X109691724Y-73364900D01*
X109695401Y-73402232D01*
X109695401Y-74147000D01*
X109518000Y-74147000D01*
X109518000Y-74127000D01*
X109498000Y-74127000D01*
X109498000Y-73873000D01*
X109518000Y-73873000D01*
X109518000Y-72773750D01*
X109359250Y-72615000D01*
X109160000Y-72611928D01*
X109038474Y-72623897D01*
X108980537Y-72515506D01*
X108901185Y-72418815D01*
X108878259Y-72400000D01*
X108901185Y-72381185D01*
X108980537Y-72284494D01*
X109039502Y-72174180D01*
X109075812Y-72054482D01*
X109088072Y-71930000D01*
X109085000Y-71730750D01*
X108926250Y-71572000D01*
X107827000Y-71572000D01*
X107827000Y-71592000D01*
X107573000Y-71592000D01*
X107573000Y-71572000D01*
X106473750Y-71572000D01*
X106315000Y-71730750D01*
X106311928Y-71930000D01*
X106324188Y-72054482D01*
X106360498Y-72174180D01*
X106419463Y-72284494D01*
X106498815Y-72381185D01*
X106521741Y-72400000D01*
X106498815Y-72418815D01*
X106419463Y-72515506D01*
X106360498Y-72625820D01*
X106324188Y-72745518D01*
X106311928Y-72870000D01*
X106311928Y-73215564D01*
X106300792Y-73181739D01*
X106028225Y-73050842D01*
X105735358Y-72975635D01*
X105570379Y-72966550D01*
X105580010Y-72952761D01*
X105709144Y-72658355D01*
X105740124Y-72530434D01*
X105620777Y-72277000D01*
X103527000Y-72277000D01*
X103527000Y-73785000D01*
X104140538Y-73785000D01*
X104050842Y-73971775D01*
X104024665Y-74073712D01*
X104012616Y-74067784D01*
X103682415Y-73979631D01*
X103341361Y-73957591D01*
X103002561Y-74002511D01*
X102679034Y-74112664D01*
X102480726Y-74218662D01*
X102372893Y-74493288D01*
X103400000Y-75520395D01*
X103414143Y-75506253D01*
X103593748Y-75685858D01*
X103579605Y-75700000D01*
X103593748Y-75714143D01*
X103414143Y-75893748D01*
X103400000Y-75879605D01*
X102372893Y-76906712D01*
X102480726Y-77181338D01*
X102787384Y-77332216D01*
X103117585Y-77420369D01*
X103458639Y-77442409D01*
X103797439Y-77397489D01*
X104000257Y-77328434D01*
X104023989Y-77447743D01*
X104139701Y-77727095D01*
X104307688Y-77978505D01*
X104329183Y-78000000D01*
X104307688Y-78021495D01*
X104139701Y-78272905D01*
X104023989Y-78552257D01*
X104001595Y-78664842D01*
X103682415Y-78579631D01*
X103341361Y-78557591D01*
X103002561Y-78602511D01*
X102679034Y-78712664D01*
X102480726Y-78818662D01*
X102372893Y-79093288D01*
X103400000Y-80120395D01*
X103414143Y-80106253D01*
X103593748Y-80285858D01*
X103579605Y-80300000D01*
X103593748Y-80314143D01*
X103414143Y-80493748D01*
X103400000Y-80479605D01*
X102372893Y-81506712D01*
X102480726Y-81781338D01*
X102787384Y-81932216D01*
X103117585Y-82020369D01*
X103458639Y-82042409D01*
X103797439Y-81997489D01*
X104018887Y-81922092D01*
X104023989Y-81947743D01*
X104134691Y-82215000D01*
X103527000Y-82215000D01*
X103527000Y-83723000D01*
X105620777Y-83723000D01*
X105740124Y-83469566D01*
X105709144Y-83341645D01*
X105580010Y-83047239D01*
X105571461Y-83035000D01*
X105651184Y-83035000D01*
X105908930Y-82983731D01*
X106474113Y-83548915D01*
X106419463Y-83615506D01*
X106360498Y-83725820D01*
X106324188Y-83845518D01*
X106311928Y-83970000D01*
X106311928Y-85040000D01*
X106324188Y-85164482D01*
X106360498Y-85284180D01*
X106419463Y-85394494D01*
X106498815Y-85491185D01*
X106595506Y-85570537D01*
X106705820Y-85629502D01*
X106825518Y-85665812D01*
X106950000Y-85678072D01*
X108750000Y-85678072D01*
X108874482Y-85665812D01*
X108994180Y-85629502D01*
X109104494Y-85570537D01*
X109201185Y-85491185D01*
X109280537Y-85394494D01*
X109339502Y-85284180D01*
X109375812Y-85164482D01*
X109388072Y-85040000D01*
X109388072Y-83970000D01*
X109375812Y-83845518D01*
X109339502Y-83725820D01*
X109280537Y-83615506D01*
X109201185Y-83518815D01*
X109104494Y-83439463D01*
X108994180Y-83380498D01*
X108874482Y-83344188D01*
X108750000Y-83331928D01*
X108544575Y-83331928D01*
X108484974Y-83220424D01*
X108390001Y-83104699D01*
X108274276Y-83009726D01*
X108142247Y-82939154D01*
X107998986Y-82895697D01*
X107967387Y-82892585D01*
X107742874Y-82668072D01*
X108750000Y-82668072D01*
X108821928Y-82660988D01*
X108821928Y-82850000D01*
X108834188Y-82974482D01*
X108870498Y-83094180D01*
X108929463Y-83204494D01*
X109008815Y-83301185D01*
X109105506Y-83380537D01*
X109215820Y-83439502D01*
X109335518Y-83475812D01*
X109460000Y-83488072D01*
X109876027Y-83488072D01*
X109869928Y-83550000D01*
X109869928Y-85050000D01*
X109882188Y-85174482D01*
X109918498Y-85294180D01*
X109977463Y-85404494D01*
X110056815Y-85501185D01*
X110153506Y-85580537D01*
X110263820Y-85639502D01*
X110383518Y-85675812D01*
X110508000Y-85688072D01*
X111478000Y-85688072D01*
X111602482Y-85675812D01*
X111722180Y-85639502D01*
X111832494Y-85580537D01*
X111929185Y-85501185D01*
X111948000Y-85478259D01*
X111966815Y-85501185D01*
X112063506Y-85580537D01*
X112173820Y-85639502D01*
X112293518Y-85675812D01*
X112418000Y-85688072D01*
X113388000Y-85688072D01*
X113512482Y-85675812D01*
X113632180Y-85639502D01*
X113742494Y-85580537D01*
X113839185Y-85501185D01*
X113918537Y-85404494D01*
X113977502Y-85294180D01*
X114013812Y-85174482D01*
X114026072Y-85050000D01*
X114026072Y-84994575D01*
X114137576Y-84934974D01*
X114253301Y-84840001D01*
X114348274Y-84724276D01*
X114380600Y-84663799D01*
X114418846Y-84592247D01*
X114439175Y-84525230D01*
X114447029Y-84523668D01*
X114617189Y-84453186D01*
X114770328Y-84350862D01*
X114900562Y-84220628D01*
X114914166Y-84200268D01*
X115119100Y-84405202D01*
X115142899Y-84434201D01*
X115258624Y-84529174D01*
X115390653Y-84599746D01*
X115533914Y-84643203D01*
X115645567Y-84654200D01*
X115645576Y-84654200D01*
X115682899Y-84657876D01*
X115720222Y-84654200D01*
X118624603Y-84654200D01*
X118625000Y-84714250D01*
X118783750Y-84873000D01*
X119618000Y-84873000D01*
X119618000Y-84853000D01*
X119795401Y-84853000D01*
X119795400Y-85147000D01*
X119618000Y-85147000D01*
X119618000Y-85127000D01*
X118783750Y-85127000D01*
X118625000Y-85285750D01*
X118621928Y-85750000D01*
X118623405Y-85765000D01*
X102035945Y-85765000D01*
X101852098Y-85746974D01*
X101709822Y-85704018D01*
X101578608Y-85634250D01*
X101463439Y-85540321D01*
X101368708Y-85425810D01*
X101298025Y-85295085D01*
X101254078Y-85153116D01*
X101235000Y-84971599D01*
X101235000Y-84674251D01*
X101404078Y-84916317D01*
X101636046Y-85138895D01*
X101906980Y-85311942D01*
X102206468Y-85428807D01*
X102523000Y-85485000D01*
X103273000Y-85485000D01*
X103273000Y-83977000D01*
X103527000Y-83977000D01*
X103527000Y-85485000D01*
X104277000Y-85485000D01*
X104593532Y-85428807D01*
X104893020Y-85311942D01*
X105163954Y-85138895D01*
X105395922Y-84916317D01*
X105580010Y-84652761D01*
X105709144Y-84358355D01*
X105740124Y-84230434D01*
X105620777Y-83977000D01*
X103527000Y-83977000D01*
X103273000Y-83977000D01*
X103253000Y-83977000D01*
X103253000Y-83723000D01*
X103273000Y-83723000D01*
X103273000Y-82215000D01*
X102523000Y-82215000D01*
X102206468Y-82271193D01*
X101906980Y-82388058D01*
X101636046Y-82561105D01*
X101404078Y-82783683D01*
X101235000Y-83025749D01*
X101235000Y-80358639D01*
X101657591Y-80358639D01*
X101702511Y-80697439D01*
X101812664Y-81020966D01*
X101918662Y-81219274D01*
X102193288Y-81327107D01*
X103220395Y-80300000D01*
X102193288Y-79272893D01*
X101918662Y-79380726D01*
X101767784Y-79687384D01*
X101679631Y-80017585D01*
X101657591Y-80358639D01*
X101235000Y-80358639D01*
X101235000Y-75758639D01*
X101657591Y-75758639D01*
X101702511Y-76097439D01*
X101812664Y-76420966D01*
X101918662Y-76619274D01*
X102193288Y-76727107D01*
X103220395Y-75700000D01*
X102193288Y-74672893D01*
X101918662Y-74780726D01*
X101767784Y-75087384D01*
X101679631Y-75417585D01*
X101657591Y-75758639D01*
X101235000Y-75758639D01*
X101235000Y-72974251D01*
X101404078Y-73216317D01*
X101636046Y-73438895D01*
X101906980Y-73611942D01*
X102206468Y-73728807D01*
X102523000Y-73785000D01*
X103273000Y-73785000D01*
X103273000Y-72277000D01*
X103253000Y-72277000D01*
X103253000Y-72023000D01*
X103273000Y-72023000D01*
X103273000Y-70515000D01*
X103527000Y-70515000D01*
X103527000Y-72023000D01*
X105620777Y-72023000D01*
X105740124Y-71769566D01*
X105709144Y-71641645D01*
X105580010Y-71347239D01*
X105395922Y-71083683D01*
X105267022Y-70960000D01*
X106311928Y-70960000D01*
X106315000Y-71159250D01*
X106473750Y-71318000D01*
X107573000Y-71318000D01*
X107573000Y-70483750D01*
X107827000Y-70483750D01*
X107827000Y-71318000D01*
X108926250Y-71318000D01*
X109085000Y-71159250D01*
X109088072Y-70960000D01*
X109075812Y-70835518D01*
X109039502Y-70715820D01*
X108980537Y-70605506D01*
X108901185Y-70508815D01*
X108804494Y-70429463D01*
X108694180Y-70370498D01*
X108574482Y-70334188D01*
X108450000Y-70321928D01*
X107985750Y-70325000D01*
X107827000Y-70483750D01*
X107573000Y-70483750D01*
X107414250Y-70325000D01*
X106950000Y-70321928D01*
X106825518Y-70334188D01*
X106705820Y-70370498D01*
X106595506Y-70429463D01*
X106498815Y-70508815D01*
X106419463Y-70605506D01*
X106360498Y-70715820D01*
X106324188Y-70835518D01*
X106311928Y-70960000D01*
X105267022Y-70960000D01*
X105163954Y-70861105D01*
X104893020Y-70688058D01*
X104593532Y-70571193D01*
X104277000Y-70515000D01*
X103527000Y-70515000D01*
X103273000Y-70515000D01*
X102523000Y-70515000D01*
X102206468Y-70571193D01*
X101906980Y-70688058D01*
X101636046Y-70861105D01*
X101404078Y-71083683D01*
X101235000Y-71325749D01*
X101235000Y-71035945D01*
X101253026Y-70852098D01*
X101295982Y-70709822D01*
X101365750Y-70578608D01*
X101459680Y-70463439D01*
X101574187Y-70368709D01*
X101704916Y-70298024D01*
X101846883Y-70254078D01*
X102028401Y-70235000D01*
X111642299Y-70235000D01*
X111633603Y-70243696D01*
G36*
X131482000Y-84873000D02*
G01*
X131502000Y-84873000D01*
X131502000Y-85127000D01*
X131482000Y-85127000D01*
X131482000Y-85147000D01*
X131228000Y-85147000D01*
X131228000Y-85127000D01*
X131208000Y-85127000D01*
X131208000Y-84873000D01*
X131228000Y-84873000D01*
X131228000Y-84853000D01*
X131482000Y-84853000D01*
X131482000Y-84873000D01*
X131482000Y-84873000D01*
G37*
X131482000Y-84873000D02*
X131502000Y-84873000D01*
X131502000Y-85127000D01*
X131482000Y-85127000D01*
X131482000Y-85147000D01*
X131228000Y-85147000D01*
X131228000Y-85127000D01*
X131208000Y-85127000D01*
X131208000Y-84873000D01*
X131228000Y-84873000D01*
X131228000Y-84853000D01*
X131482000Y-84853000D01*
X131482000Y-84873000D01*
G36*
X145925518Y-82735812D02*
G01*
X146050000Y-82748072D01*
X147463516Y-82748072D01*
X147398866Y-83395431D01*
X147401052Y-83417941D01*
X147340000Y-83411928D01*
X147140750Y-83415000D01*
X146982000Y-83573750D01*
X146982000Y-84673000D01*
X147002000Y-84673000D01*
X147002000Y-84927000D01*
X146982000Y-84927000D01*
X146982000Y-84947000D01*
X146728000Y-84947000D01*
X146728000Y-84927000D01*
X146708000Y-84927000D01*
X146708000Y-84673000D01*
X146728000Y-84673000D01*
X146728000Y-83573750D01*
X146569250Y-83415000D01*
X146370000Y-83411928D01*
X146245518Y-83424188D01*
X146125820Y-83460498D01*
X146015506Y-83519463D01*
X145918815Y-83598815D01*
X145900000Y-83621741D01*
X145881185Y-83598815D01*
X145784494Y-83519463D01*
X145674180Y-83460498D01*
X145554482Y-83424188D01*
X145430000Y-83411928D01*
X144460000Y-83411928D01*
X144335518Y-83424188D01*
X144215820Y-83460498D01*
X144105506Y-83519463D01*
X144008815Y-83598815D01*
X144008590Y-83599089D01*
X143713126Y-83303624D01*
X143857589Y-83243786D01*
X143960235Y-83175200D01*
X145082178Y-83175200D01*
X145119500Y-83178876D01*
X145156822Y-83175200D01*
X145156833Y-83175200D01*
X145268486Y-83164203D01*
X145411747Y-83120746D01*
X145543776Y-83050174D01*
X145659501Y-82955201D01*
X145683303Y-82926198D01*
X145885752Y-82723749D01*
X145925518Y-82735812D01*
X145925518Y-82735812D01*
G37*
X145925518Y-82735812D02*
X146050000Y-82748072D01*
X147463516Y-82748072D01*
X147398866Y-83395431D01*
X147401052Y-83417941D01*
X147340000Y-83411928D01*
X147140750Y-83415000D01*
X146982000Y-83573750D01*
X146982000Y-84673000D01*
X147002000Y-84673000D01*
X147002000Y-84927000D01*
X146982000Y-84927000D01*
X146982000Y-84947000D01*
X146728000Y-84947000D01*
X146728000Y-84927000D01*
X146708000Y-84927000D01*
X146708000Y-84673000D01*
X146728000Y-84673000D01*
X146728000Y-83573750D01*
X146569250Y-83415000D01*
X146370000Y-83411928D01*
X146245518Y-83424188D01*
X146125820Y-83460498D01*
X146015506Y-83519463D01*
X145918815Y-83598815D01*
X145900000Y-83621741D01*
X145881185Y-83598815D01*
X145784494Y-83519463D01*
X145674180Y-83460498D01*
X145554482Y-83424188D01*
X145430000Y-83411928D01*
X144460000Y-83411928D01*
X144335518Y-83424188D01*
X144215820Y-83460498D01*
X144105506Y-83519463D01*
X144008815Y-83598815D01*
X144008590Y-83599089D01*
X143713126Y-83303624D01*
X143857589Y-83243786D01*
X143960235Y-83175200D01*
X145082178Y-83175200D01*
X145119500Y-83178876D01*
X145156822Y-83175200D01*
X145156833Y-83175200D01*
X145268486Y-83164203D01*
X145411747Y-83120746D01*
X145543776Y-83050174D01*
X145659501Y-82955201D01*
X145683303Y-82926198D01*
X145885752Y-82723749D01*
X145925518Y-82735812D01*
G36*
X150943748Y-83385858D02*
G01*
X150929605Y-83400000D01*
X150943748Y-83414143D01*
X150764143Y-83593748D01*
X150750000Y-83579605D01*
X150735858Y-83593748D01*
X150556253Y-83414143D01*
X150570395Y-83400000D01*
X150556253Y-83385858D01*
X150735858Y-83206253D01*
X150750000Y-83220395D01*
X150764143Y-83206253D01*
X150943748Y-83385858D01*
X150943748Y-83385858D01*
G37*
X150943748Y-83385858D02*
X150929605Y-83400000D01*
X150943748Y-83414143D01*
X150764143Y-83593748D01*
X150750000Y-83579605D01*
X150735858Y-83593748D01*
X150556253Y-83414143D01*
X150570395Y-83400000D01*
X150556253Y-83385858D01*
X150735858Y-83206253D01*
X150750000Y-83220395D01*
X150764143Y-83206253D01*
X150943748Y-83385858D01*
G36*
X138750724Y-78009674D02*
G01*
X138882753Y-78080246D01*
X139026014Y-78123703D01*
X139137667Y-78134700D01*
X139137677Y-78134700D01*
X139175000Y-78138376D01*
X139212323Y-78134700D01*
X139438110Y-78134700D01*
X139326538Y-78246272D01*
X139224214Y-78399411D01*
X139153732Y-78569571D01*
X139117800Y-78750211D01*
X139117800Y-78934389D01*
X139153732Y-79115029D01*
X139224214Y-79285189D01*
X139326538Y-79438328D01*
X139456772Y-79568562D01*
X139609911Y-79670886D01*
X139701749Y-79708926D01*
X139784699Y-79810001D01*
X139900424Y-79904974D01*
X139900473Y-79905000D01*
X139900424Y-79905026D01*
X139784699Y-79999999D01*
X139689726Y-80115724D01*
X139619154Y-80247753D01*
X139575697Y-80391014D01*
X139561023Y-80540000D01*
X139564700Y-80577333D01*
X139564701Y-81977897D01*
X139113072Y-82429526D01*
X139113072Y-82325000D01*
X139100812Y-82200518D01*
X139064502Y-82080820D01*
X139005537Y-81970506D01*
X138926185Y-81873815D01*
X138832441Y-81796881D01*
X138929473Y-81663629D01*
X139037238Y-81430528D01*
X139067910Y-81329400D01*
X138944224Y-81127000D01*
X137927000Y-81127000D01*
X137927000Y-81147000D01*
X137673000Y-81147000D01*
X137673000Y-81127000D01*
X136655776Y-81127000D01*
X136532090Y-81329400D01*
X136562762Y-81430528D01*
X136670527Y-81663629D01*
X136767559Y-81796881D01*
X136715175Y-81839871D01*
X136623976Y-81765026D01*
X136491947Y-81694454D01*
X136378072Y-81659911D01*
X136378072Y-81650000D01*
X136365812Y-81525518D01*
X136329502Y-81405820D01*
X136270537Y-81295506D01*
X136191185Y-81198815D01*
X136094494Y-81119463D01*
X136058082Y-81100000D01*
X136094494Y-81080537D01*
X136191185Y-81001185D01*
X136270537Y-80904494D01*
X136329502Y-80794180D01*
X136365812Y-80674482D01*
X136378072Y-80550000D01*
X136378072Y-80494575D01*
X136489576Y-80434974D01*
X136605301Y-80340001D01*
X136629103Y-80310998D01*
X136946159Y-79993943D01*
X136957648Y-80003372D01*
X136821697Y-80128773D01*
X136670527Y-80336371D01*
X136562762Y-80569472D01*
X136532090Y-80670600D01*
X136655776Y-80873000D01*
X137673000Y-80873000D01*
X137673000Y-80853000D01*
X137927000Y-80853000D01*
X137927000Y-80873000D01*
X138944224Y-80873000D01*
X139067910Y-80670600D01*
X139037238Y-80569472D01*
X138929473Y-80336371D01*
X138778303Y-80128773D01*
X138642352Y-80003372D01*
X138730792Y-79930792D01*
X138894495Y-79731318D01*
X139016138Y-79503741D01*
X139091045Y-79256805D01*
X139116338Y-79000000D01*
X139091045Y-78743195D01*
X139016138Y-78496259D01*
X138894495Y-78268682D01*
X138730792Y-78069208D01*
X138646461Y-78000000D01*
X138692699Y-77962054D01*
X138750724Y-78009674D01*
X138750724Y-78009674D01*
G37*
X138750724Y-78009674D02*
X138882753Y-78080246D01*
X139026014Y-78123703D01*
X139137667Y-78134700D01*
X139137677Y-78134700D01*
X139175000Y-78138376D01*
X139212323Y-78134700D01*
X139438110Y-78134700D01*
X139326538Y-78246272D01*
X139224214Y-78399411D01*
X139153732Y-78569571D01*
X139117800Y-78750211D01*
X139117800Y-78934389D01*
X139153732Y-79115029D01*
X139224214Y-79285189D01*
X139326538Y-79438328D01*
X139456772Y-79568562D01*
X139609911Y-79670886D01*
X139701749Y-79708926D01*
X139784699Y-79810001D01*
X139900424Y-79904974D01*
X139900473Y-79905000D01*
X139900424Y-79905026D01*
X139784699Y-79999999D01*
X139689726Y-80115724D01*
X139619154Y-80247753D01*
X139575697Y-80391014D01*
X139561023Y-80540000D01*
X139564700Y-80577333D01*
X139564701Y-81977897D01*
X139113072Y-82429526D01*
X139113072Y-82325000D01*
X139100812Y-82200518D01*
X139064502Y-82080820D01*
X139005537Y-81970506D01*
X138926185Y-81873815D01*
X138832441Y-81796881D01*
X138929473Y-81663629D01*
X139037238Y-81430528D01*
X139067910Y-81329400D01*
X138944224Y-81127000D01*
X137927000Y-81127000D01*
X137927000Y-81147000D01*
X137673000Y-81147000D01*
X137673000Y-81127000D01*
X136655776Y-81127000D01*
X136532090Y-81329400D01*
X136562762Y-81430528D01*
X136670527Y-81663629D01*
X136767559Y-81796881D01*
X136715175Y-81839871D01*
X136623976Y-81765026D01*
X136491947Y-81694454D01*
X136378072Y-81659911D01*
X136378072Y-81650000D01*
X136365812Y-81525518D01*
X136329502Y-81405820D01*
X136270537Y-81295506D01*
X136191185Y-81198815D01*
X136094494Y-81119463D01*
X136058082Y-81100000D01*
X136094494Y-81080537D01*
X136191185Y-81001185D01*
X136270537Y-80904494D01*
X136329502Y-80794180D01*
X136365812Y-80674482D01*
X136378072Y-80550000D01*
X136378072Y-80494575D01*
X136489576Y-80434974D01*
X136605301Y-80340001D01*
X136629103Y-80310998D01*
X136946159Y-79993943D01*
X136957648Y-80003372D01*
X136821697Y-80128773D01*
X136670527Y-80336371D01*
X136562762Y-80569472D01*
X136532090Y-80670600D01*
X136655776Y-80873000D01*
X137673000Y-80873000D01*
X137673000Y-80853000D01*
X137927000Y-80853000D01*
X137927000Y-80873000D01*
X138944224Y-80873000D01*
X139067910Y-80670600D01*
X139037238Y-80569472D01*
X138929473Y-80336371D01*
X138778303Y-80128773D01*
X138642352Y-80003372D01*
X138730792Y-79930792D01*
X138894495Y-79731318D01*
X139016138Y-79503741D01*
X139091045Y-79256805D01*
X139116338Y-79000000D01*
X139091045Y-78743195D01*
X139016138Y-78496259D01*
X138894495Y-78268682D01*
X138730792Y-78069208D01*
X138646461Y-78000000D01*
X138692699Y-77962054D01*
X138750724Y-78009674D01*
G36*
X111958167Y-80602315D02*
G01*
X112054858Y-80681667D01*
X112055905Y-80682227D01*
X112109780Y-80745970D01*
X111982000Y-80873750D01*
X111982000Y-81973000D01*
X112002000Y-81973000D01*
X112002000Y-82227000D01*
X111982000Y-82227000D01*
X111982000Y-82247000D01*
X111753000Y-82247000D01*
X111753000Y-80397148D01*
X111958167Y-80602315D01*
X111958167Y-80602315D01*
G37*
X111958167Y-80602315D02*
X112054858Y-80681667D01*
X112055905Y-80682227D01*
X112109780Y-80745970D01*
X111982000Y-80873750D01*
X111982000Y-81973000D01*
X112002000Y-81973000D01*
X112002000Y-82227000D01*
X111982000Y-82227000D01*
X111982000Y-82247000D01*
X111753000Y-82247000D01*
X111753000Y-80397148D01*
X111958167Y-80602315D01*
G36*
X116691872Y-74478562D02*
G01*
X116845011Y-74580886D01*
X117015171Y-74651368D01*
X117195811Y-74687300D01*
X117248100Y-74687300D01*
X117248101Y-75327468D01*
X117244424Y-75364800D01*
X117248101Y-75402133D01*
X117259098Y-75513786D01*
X117267323Y-75540901D01*
X117302554Y-75657046D01*
X117373126Y-75789076D01*
X117438050Y-75868185D01*
X117468100Y-75904801D01*
X117497098Y-75928599D01*
X117880147Y-76311649D01*
X117904232Y-76432729D01*
X117974714Y-76602889D01*
X118077038Y-76756028D01*
X118207272Y-76886262D01*
X118360411Y-76988586D01*
X118530571Y-77059068D01*
X118711211Y-77095000D01*
X118895389Y-77095000D01*
X119076029Y-77059068D01*
X119246189Y-76988586D01*
X119399328Y-76886262D01*
X119529562Y-76756028D01*
X119631886Y-76602889D01*
X119702368Y-76432729D01*
X119721796Y-76335058D01*
X119762322Y-76368316D01*
X119762800Y-76368571D01*
X119763055Y-76369049D01*
X119842407Y-76465740D01*
X119947911Y-76571244D01*
X119865814Y-76694111D01*
X119795332Y-76864271D01*
X119759400Y-77044911D01*
X119759400Y-77229089D01*
X119795332Y-77409729D01*
X119856272Y-77556852D01*
X119774314Y-77679511D01*
X119703832Y-77849671D01*
X119691966Y-77909323D01*
X119552929Y-77851732D01*
X119372289Y-77815800D01*
X119188111Y-77815800D01*
X119007471Y-77851732D01*
X118837311Y-77922214D01*
X118684172Y-78024538D01*
X118553938Y-78154772D01*
X118451614Y-78307911D01*
X118436855Y-78343543D01*
X116694894Y-80085504D01*
X116649028Y-80039638D01*
X116495889Y-79937314D01*
X116325729Y-79866832D01*
X116145089Y-79830900D01*
X115960911Y-79830900D01*
X115780271Y-79866832D01*
X115610111Y-79937314D01*
X115460568Y-80037235D01*
X115300055Y-79876722D01*
X115203364Y-79797370D01*
X115202886Y-79797114D01*
X115202630Y-79796636D01*
X115123278Y-79699945D01*
X114769555Y-79346222D01*
X114935729Y-79313168D01*
X115105889Y-79242686D01*
X115259028Y-79140362D01*
X115389262Y-79010128D01*
X115491586Y-78856989D01*
X115562068Y-78686829D01*
X115598000Y-78506189D01*
X115598000Y-78322011D01*
X115562068Y-78141371D01*
X115491586Y-77971211D01*
X115486730Y-77963943D01*
X115510286Y-77928689D01*
X115580768Y-77758529D01*
X115616700Y-77577889D01*
X115616700Y-77393711D01*
X115580768Y-77213071D01*
X115510286Y-77042911D01*
X115407962Y-76889772D01*
X115277728Y-76759538D01*
X115201484Y-76708594D01*
X115213400Y-76648689D01*
X115213400Y-76464511D01*
X115177468Y-76283871D01*
X115106986Y-76113711D01*
X115027933Y-75995400D01*
X115123278Y-75900055D01*
X115202630Y-75803364D01*
X115203191Y-75802315D01*
X115290281Y-75728707D01*
X115290281Y-75598485D01*
X115297905Y-75573352D01*
X115310165Y-75448870D01*
X115298761Y-75333076D01*
X115414555Y-75344480D01*
X115539037Y-75332220D01*
X115564173Y-75324595D01*
X115694393Y-75324595D01*
X115768001Y-75237505D01*
X115769049Y-75236945D01*
X115865740Y-75157593D01*
X116254649Y-74768684D01*
X116334001Y-74671993D01*
X116334256Y-74671516D01*
X116334735Y-74671260D01*
X116431426Y-74591908D01*
X116618322Y-74405012D01*
X116691872Y-74478562D01*
X116691872Y-74478562D01*
G37*
X116691872Y-74478562D02*
X116845011Y-74580886D01*
X117015171Y-74651368D01*
X117195811Y-74687300D01*
X117248100Y-74687300D01*
X117248101Y-75327468D01*
X117244424Y-75364800D01*
X117248101Y-75402133D01*
X117259098Y-75513786D01*
X117267323Y-75540901D01*
X117302554Y-75657046D01*
X117373126Y-75789076D01*
X117438050Y-75868185D01*
X117468100Y-75904801D01*
X117497098Y-75928599D01*
X117880147Y-76311649D01*
X117904232Y-76432729D01*
X117974714Y-76602889D01*
X118077038Y-76756028D01*
X118207272Y-76886262D01*
X118360411Y-76988586D01*
X118530571Y-77059068D01*
X118711211Y-77095000D01*
X118895389Y-77095000D01*
X119076029Y-77059068D01*
X119246189Y-76988586D01*
X119399328Y-76886262D01*
X119529562Y-76756028D01*
X119631886Y-76602889D01*
X119702368Y-76432729D01*
X119721796Y-76335058D01*
X119762322Y-76368316D01*
X119762800Y-76368571D01*
X119763055Y-76369049D01*
X119842407Y-76465740D01*
X119947911Y-76571244D01*
X119865814Y-76694111D01*
X119795332Y-76864271D01*
X119759400Y-77044911D01*
X119759400Y-77229089D01*
X119795332Y-77409729D01*
X119856272Y-77556852D01*
X119774314Y-77679511D01*
X119703832Y-77849671D01*
X119691966Y-77909323D01*
X119552929Y-77851732D01*
X119372289Y-77815800D01*
X119188111Y-77815800D01*
X119007471Y-77851732D01*
X118837311Y-77922214D01*
X118684172Y-78024538D01*
X118553938Y-78154772D01*
X118451614Y-78307911D01*
X118436855Y-78343543D01*
X116694894Y-80085504D01*
X116649028Y-80039638D01*
X116495889Y-79937314D01*
X116325729Y-79866832D01*
X116145089Y-79830900D01*
X115960911Y-79830900D01*
X115780271Y-79866832D01*
X115610111Y-79937314D01*
X115460568Y-80037235D01*
X115300055Y-79876722D01*
X115203364Y-79797370D01*
X115202886Y-79797114D01*
X115202630Y-79796636D01*
X115123278Y-79699945D01*
X114769555Y-79346222D01*
X114935729Y-79313168D01*
X115105889Y-79242686D01*
X115259028Y-79140362D01*
X115389262Y-79010128D01*
X115491586Y-78856989D01*
X115562068Y-78686829D01*
X115598000Y-78506189D01*
X115598000Y-78322011D01*
X115562068Y-78141371D01*
X115491586Y-77971211D01*
X115486730Y-77963943D01*
X115510286Y-77928689D01*
X115580768Y-77758529D01*
X115616700Y-77577889D01*
X115616700Y-77393711D01*
X115580768Y-77213071D01*
X115510286Y-77042911D01*
X115407962Y-76889772D01*
X115277728Y-76759538D01*
X115201484Y-76708594D01*
X115213400Y-76648689D01*
X115213400Y-76464511D01*
X115177468Y-76283871D01*
X115106986Y-76113711D01*
X115027933Y-75995400D01*
X115123278Y-75900055D01*
X115202630Y-75803364D01*
X115203191Y-75802315D01*
X115290281Y-75728707D01*
X115290281Y-75598485D01*
X115297905Y-75573352D01*
X115310165Y-75448870D01*
X115298761Y-75333076D01*
X115414555Y-75344480D01*
X115539037Y-75332220D01*
X115564173Y-75324595D01*
X115694393Y-75324595D01*
X115768001Y-75237505D01*
X115769049Y-75236945D01*
X115865740Y-75157593D01*
X116254649Y-74768684D01*
X116334001Y-74671993D01*
X116334256Y-74671516D01*
X116334735Y-74671260D01*
X116431426Y-74591908D01*
X116618322Y-74405012D01*
X116691872Y-74478562D01*
G36*
X151182000Y-76573000D02*
G01*
X151202000Y-76573000D01*
X151202000Y-76827000D01*
X151182000Y-76827000D01*
X151182000Y-77926250D01*
X151255750Y-78000000D01*
X151182000Y-78073750D01*
X151182000Y-79173000D01*
X151202000Y-79173000D01*
X151202000Y-79427000D01*
X151182000Y-79427000D01*
X151182000Y-79447000D01*
X150928000Y-79447000D01*
X150928000Y-79427000D01*
X150908000Y-79427000D01*
X150908000Y-79173000D01*
X150928000Y-79173000D01*
X150928000Y-78073750D01*
X150854250Y-78000000D01*
X150928000Y-77926250D01*
X150928000Y-76827000D01*
X150908000Y-76827000D01*
X150908000Y-76573000D01*
X150928000Y-76573000D01*
X150928000Y-76553000D01*
X151182000Y-76553000D01*
X151182000Y-76573000D01*
X151182000Y-76573000D01*
G37*
X151182000Y-76573000D02*
X151202000Y-76573000D01*
X151202000Y-76827000D01*
X151182000Y-76827000D01*
X151182000Y-77926250D01*
X151255750Y-78000000D01*
X151182000Y-78073750D01*
X151182000Y-79173000D01*
X151202000Y-79173000D01*
X151202000Y-79427000D01*
X151182000Y-79427000D01*
X151182000Y-79447000D01*
X150928000Y-79447000D01*
X150928000Y-79427000D01*
X150908000Y-79427000D01*
X150908000Y-79173000D01*
X150928000Y-79173000D01*
X150928000Y-78073750D01*
X150854250Y-78000000D01*
X150928000Y-77926250D01*
X150928000Y-76827000D01*
X150908000Y-76827000D01*
X150908000Y-76573000D01*
X150928000Y-76573000D01*
X150928000Y-76553000D01*
X151182000Y-76553000D01*
X151182000Y-76573000D01*
G36*
X131830811Y-76753286D02*
G01*
X132000971Y-76823768D01*
X132181611Y-76859700D01*
X132221928Y-76859700D01*
X132221928Y-77750000D01*
X132234188Y-77874482D01*
X132270498Y-77994180D01*
X132329463Y-78104494D01*
X132408815Y-78201185D01*
X132505506Y-78280537D01*
X132615820Y-78339502D01*
X132735518Y-78375812D01*
X132860000Y-78388072D01*
X133830000Y-78388072D01*
X133954482Y-78375812D01*
X134074180Y-78339502D01*
X134184494Y-78280537D01*
X134281185Y-78201185D01*
X134300000Y-78178259D01*
X134318815Y-78201185D01*
X134415506Y-78280537D01*
X134525820Y-78339502D01*
X134645518Y-78375812D01*
X134770000Y-78388072D01*
X135740000Y-78388072D01*
X135864482Y-78375812D01*
X135984180Y-78339502D01*
X136094494Y-78280537D01*
X136191185Y-78201185D01*
X136270537Y-78104494D01*
X136329502Y-77994180D01*
X136365812Y-77874482D01*
X136377087Y-77760000D01*
X136729044Y-77760000D01*
X136869208Y-77930792D01*
X136953539Y-78000000D01*
X136869208Y-78069208D01*
X136726113Y-78243571D01*
X136650714Y-78250997D01*
X136507453Y-78294454D01*
X136375424Y-78365026D01*
X136259699Y-78459999D01*
X136164726Y-78575724D01*
X136164214Y-78576681D01*
X136094494Y-78519463D01*
X135984180Y-78460498D01*
X135864482Y-78424188D01*
X135740000Y-78411928D01*
X134770000Y-78411928D01*
X134645518Y-78424188D01*
X134525820Y-78460498D01*
X134415506Y-78519463D01*
X134318815Y-78598815D01*
X134300000Y-78621741D01*
X134281185Y-78598815D01*
X134184494Y-78519463D01*
X134074180Y-78460498D01*
X133954482Y-78424188D01*
X133830000Y-78411928D01*
X132860000Y-78411928D01*
X132735518Y-78424188D01*
X132615820Y-78460498D01*
X132505506Y-78519463D01*
X132408815Y-78598815D01*
X132329463Y-78695506D01*
X132270498Y-78805820D01*
X132234188Y-78925518D01*
X132223691Y-79032100D01*
X132015735Y-79032100D01*
X131913089Y-78963514D01*
X131742929Y-78893032D01*
X131562289Y-78857100D01*
X131378111Y-78857100D01*
X131197471Y-78893032D01*
X131088072Y-78938346D01*
X131088072Y-78470000D01*
X131075812Y-78345518D01*
X131039502Y-78225820D01*
X130980537Y-78115506D01*
X130901185Y-78018815D01*
X130878259Y-78000000D01*
X130901185Y-77981185D01*
X130980537Y-77884494D01*
X131039502Y-77774180D01*
X131075812Y-77654482D01*
X131088072Y-77530000D01*
X131085000Y-77330750D01*
X130926250Y-77172000D01*
X129827000Y-77172000D01*
X129827000Y-77192000D01*
X129573000Y-77192000D01*
X129573000Y-77172000D01*
X129553000Y-77172000D01*
X129553000Y-76961488D01*
X129561986Y-76960603D01*
X129705247Y-76917146D01*
X129741066Y-76898000D01*
X129827000Y-76898000D01*
X129827000Y-76918000D01*
X130926250Y-76918000D01*
X131032105Y-76812145D01*
X131064271Y-76825468D01*
X131244911Y-76861400D01*
X131429089Y-76861400D01*
X131609729Y-76825468D01*
X131779889Y-76754986D01*
X131806622Y-76737124D01*
X131830811Y-76753286D01*
X131830811Y-76753286D01*
G37*
X131830811Y-76753286D02*
X132000971Y-76823768D01*
X132181611Y-76859700D01*
X132221928Y-76859700D01*
X132221928Y-77750000D01*
X132234188Y-77874482D01*
X132270498Y-77994180D01*
X132329463Y-78104494D01*
X132408815Y-78201185D01*
X132505506Y-78280537D01*
X132615820Y-78339502D01*
X132735518Y-78375812D01*
X132860000Y-78388072D01*
X133830000Y-78388072D01*
X133954482Y-78375812D01*
X134074180Y-78339502D01*
X134184494Y-78280537D01*
X134281185Y-78201185D01*
X134300000Y-78178259D01*
X134318815Y-78201185D01*
X134415506Y-78280537D01*
X134525820Y-78339502D01*
X134645518Y-78375812D01*
X134770000Y-78388072D01*
X135740000Y-78388072D01*
X135864482Y-78375812D01*
X135984180Y-78339502D01*
X136094494Y-78280537D01*
X136191185Y-78201185D01*
X136270537Y-78104494D01*
X136329502Y-77994180D01*
X136365812Y-77874482D01*
X136377087Y-77760000D01*
X136729044Y-77760000D01*
X136869208Y-77930792D01*
X136953539Y-78000000D01*
X136869208Y-78069208D01*
X136726113Y-78243571D01*
X136650714Y-78250997D01*
X136507453Y-78294454D01*
X136375424Y-78365026D01*
X136259699Y-78459999D01*
X136164726Y-78575724D01*
X136164214Y-78576681D01*
X136094494Y-78519463D01*
X135984180Y-78460498D01*
X135864482Y-78424188D01*
X135740000Y-78411928D01*
X134770000Y-78411928D01*
X134645518Y-78424188D01*
X134525820Y-78460498D01*
X134415506Y-78519463D01*
X134318815Y-78598815D01*
X134300000Y-78621741D01*
X134281185Y-78598815D01*
X134184494Y-78519463D01*
X134074180Y-78460498D01*
X133954482Y-78424188D01*
X133830000Y-78411928D01*
X132860000Y-78411928D01*
X132735518Y-78424188D01*
X132615820Y-78460498D01*
X132505506Y-78519463D01*
X132408815Y-78598815D01*
X132329463Y-78695506D01*
X132270498Y-78805820D01*
X132234188Y-78925518D01*
X132223691Y-79032100D01*
X132015735Y-79032100D01*
X131913089Y-78963514D01*
X131742929Y-78893032D01*
X131562289Y-78857100D01*
X131378111Y-78857100D01*
X131197471Y-78893032D01*
X131088072Y-78938346D01*
X131088072Y-78470000D01*
X131075812Y-78345518D01*
X131039502Y-78225820D01*
X130980537Y-78115506D01*
X130901185Y-78018815D01*
X130878259Y-78000000D01*
X130901185Y-77981185D01*
X130980537Y-77884494D01*
X131039502Y-77774180D01*
X131075812Y-77654482D01*
X131088072Y-77530000D01*
X131085000Y-77330750D01*
X130926250Y-77172000D01*
X129827000Y-77172000D01*
X129827000Y-77192000D01*
X129573000Y-77192000D01*
X129573000Y-77172000D01*
X129553000Y-77172000D01*
X129553000Y-76961488D01*
X129561986Y-76960603D01*
X129705247Y-76917146D01*
X129741066Y-76898000D01*
X129827000Y-76898000D01*
X129827000Y-76918000D01*
X130926250Y-76918000D01*
X131032105Y-76812145D01*
X131064271Y-76825468D01*
X131244911Y-76861400D01*
X131429089Y-76861400D01*
X131609729Y-76825468D01*
X131779889Y-76754986D01*
X131806622Y-76737124D01*
X131830811Y-76753286D01*
G36*
X106986678Y-77765928D02*
G01*
X107093750Y-77873000D01*
X107175859Y-77873000D01*
X107215506Y-77905537D01*
X107325820Y-77964502D01*
X107442841Y-78000000D01*
X107325820Y-78035498D01*
X107215506Y-78094463D01*
X107175859Y-78127000D01*
X107093750Y-78127000D01*
X106986678Y-78234072D01*
X106967136Y-78240000D01*
X106838313Y-78240000D01*
X106692312Y-78021495D01*
X106670817Y-78000000D01*
X106692312Y-77978505D01*
X106838313Y-77760000D01*
X106967136Y-77760000D01*
X106986678Y-77765928D01*
X106986678Y-77765928D01*
G37*
X106986678Y-77765928D02*
X107093750Y-77873000D01*
X107175859Y-77873000D01*
X107215506Y-77905537D01*
X107325820Y-77964502D01*
X107442841Y-78000000D01*
X107325820Y-78035498D01*
X107215506Y-78094463D01*
X107175859Y-78127000D01*
X107093750Y-78127000D01*
X106986678Y-78234072D01*
X106967136Y-78240000D01*
X106838313Y-78240000D01*
X106692312Y-78021495D01*
X106670817Y-78000000D01*
X106692312Y-77978505D01*
X106838313Y-77760000D01*
X106967136Y-77760000D01*
X106986678Y-77765928D01*
G36*
X105693748Y-74485858D02*
G01*
X105679605Y-74500000D01*
X106564080Y-75384475D01*
X106818261Y-75300792D01*
X106949158Y-75028225D01*
X107024365Y-74735358D01*
X107024657Y-74730052D01*
X107065026Y-74805576D01*
X107081486Y-74825632D01*
X107159999Y-74921301D01*
X107189002Y-74945103D01*
X108330826Y-76086928D01*
X107570000Y-76086928D01*
X107445518Y-76099188D01*
X107325820Y-76135498D01*
X107215506Y-76194463D01*
X107160379Y-76239704D01*
X107157378Y-76240000D01*
X106838313Y-76240000D01*
X106692312Y-76021495D01*
X106478505Y-75807688D01*
X106335690Y-75712262D01*
X106384475Y-75564080D01*
X105500000Y-74679605D01*
X105485858Y-74693748D01*
X105306253Y-74514143D01*
X105320395Y-74500000D01*
X105306253Y-74485858D01*
X105485858Y-74306253D01*
X105500000Y-74320395D01*
X105514143Y-74306253D01*
X105693748Y-74485858D01*
X105693748Y-74485858D01*
G37*
X105693748Y-74485858D02*
X105679605Y-74500000D01*
X106564080Y-75384475D01*
X106818261Y-75300792D01*
X106949158Y-75028225D01*
X107024365Y-74735358D01*
X107024657Y-74730052D01*
X107065026Y-74805576D01*
X107081486Y-74825632D01*
X107159999Y-74921301D01*
X107189002Y-74945103D01*
X108330826Y-76086928D01*
X107570000Y-76086928D01*
X107445518Y-76099188D01*
X107325820Y-76135498D01*
X107215506Y-76194463D01*
X107160379Y-76239704D01*
X107157378Y-76240000D01*
X106838313Y-76240000D01*
X106692312Y-76021495D01*
X106478505Y-75807688D01*
X106335690Y-75712262D01*
X106384475Y-75564080D01*
X105500000Y-74679605D01*
X105485858Y-74693748D01*
X105306253Y-74514143D01*
X105320395Y-74500000D01*
X105306253Y-74485858D01*
X105485858Y-74306253D01*
X105500000Y-74320395D01*
X105514143Y-74306253D01*
X105693748Y-74485858D01*
G36*
X150993748Y-72585858D02*
G01*
X150979605Y-72600000D01*
X150993748Y-72614143D01*
X150814143Y-72793748D01*
X150800000Y-72779605D01*
X148634231Y-74945374D01*
X148885186Y-75311928D01*
X148660000Y-75311928D01*
X148535518Y-75324188D01*
X148415820Y-75360498D01*
X148305506Y-75419463D01*
X148208815Y-75498815D01*
X148188072Y-75524090D01*
X148188072Y-75160000D01*
X148175812Y-75035518D01*
X148139502Y-74915820D01*
X148090957Y-74825000D01*
X148139502Y-74734180D01*
X148175812Y-74614482D01*
X148179466Y-74577385D01*
X148454626Y-74765769D01*
X150620395Y-72600000D01*
X150606253Y-72585858D01*
X150785858Y-72406253D01*
X150800000Y-72420395D01*
X150814143Y-72406253D01*
X150993748Y-72585858D01*
X150993748Y-72585858D01*
G37*
X150993748Y-72585858D02*
X150979605Y-72600000D01*
X150993748Y-72614143D01*
X150814143Y-72793748D01*
X150800000Y-72779605D01*
X148634231Y-74945374D01*
X148885186Y-75311928D01*
X148660000Y-75311928D01*
X148535518Y-75324188D01*
X148415820Y-75360498D01*
X148305506Y-75419463D01*
X148208815Y-75498815D01*
X148188072Y-75524090D01*
X148188072Y-75160000D01*
X148175812Y-75035518D01*
X148139502Y-74915820D01*
X148090957Y-74825000D01*
X148139502Y-74734180D01*
X148175812Y-74614482D01*
X148179466Y-74577385D01*
X148454626Y-74765769D01*
X150620395Y-72600000D01*
X150606253Y-72585858D01*
X150785858Y-72406253D01*
X150800000Y-72420395D01*
X150814143Y-72406253D01*
X150993748Y-72585858D01*
G36*
X143834188Y-70325518D02*
G01*
X143821928Y-70450000D01*
X143825000Y-70914250D01*
X143983750Y-71073000D01*
X144818000Y-71073000D01*
X144818000Y-71053000D01*
X145072000Y-71053000D01*
X145072000Y-71073000D01*
X145092000Y-71073000D01*
X145092000Y-71327000D01*
X145072000Y-71327000D01*
X145072000Y-71347000D01*
X144818000Y-71347000D01*
X144818000Y-71327000D01*
X143983750Y-71327000D01*
X143825000Y-71485750D01*
X143821928Y-71950000D01*
X143834188Y-72074482D01*
X143870498Y-72194180D01*
X143929463Y-72304494D01*
X144008815Y-72401185D01*
X144105506Y-72480537D01*
X144215820Y-72539502D01*
X144335518Y-72575812D01*
X144398212Y-72581987D01*
X144251698Y-72728501D01*
X144222700Y-72752299D01*
X144198902Y-72781297D01*
X144198901Y-72781298D01*
X144127726Y-72868024D01*
X144057154Y-73000054D01*
X144031659Y-73084103D01*
X144013698Y-73143314D01*
X144004101Y-73240754D01*
X143999024Y-73292300D01*
X144002701Y-73329632D01*
X144002700Y-75363073D01*
X143978386Y-75355697D01*
X143866733Y-75344700D01*
X143866722Y-75344700D01*
X143829400Y-75341024D01*
X143792078Y-75344700D01*
X143235300Y-75344700D01*
X143235300Y-73567633D01*
X143238977Y-73530300D01*
X143224303Y-73381314D01*
X143180846Y-73238053D01*
X143110274Y-73106024D01*
X143039099Y-73019297D01*
X143015301Y-72990299D01*
X142986303Y-72966501D01*
X142601788Y-72581987D01*
X142664482Y-72575812D01*
X142784180Y-72539502D01*
X142894494Y-72480537D01*
X142991185Y-72401185D01*
X143070537Y-72304494D01*
X143129502Y-72194180D01*
X143165812Y-72074482D01*
X143178072Y-71950000D01*
X143175000Y-71485750D01*
X143016250Y-71327000D01*
X142182000Y-71327000D01*
X142182000Y-71347000D01*
X141928000Y-71347000D01*
X141928000Y-71327000D01*
X141908000Y-71327000D01*
X141908000Y-71073000D01*
X141928000Y-71073000D01*
X141928000Y-71053000D01*
X142182000Y-71053000D01*
X142182000Y-71073000D01*
X143016250Y-71073000D01*
X143175000Y-70914250D01*
X143178072Y-70450000D01*
X143165812Y-70325518D01*
X143138354Y-70235000D01*
X143861646Y-70235000D01*
X143834188Y-70325518D01*
X143834188Y-70325518D01*
G37*
X143834188Y-70325518D02*
X143821928Y-70450000D01*
X143825000Y-70914250D01*
X143983750Y-71073000D01*
X144818000Y-71073000D01*
X144818000Y-71053000D01*
X145072000Y-71053000D01*
X145072000Y-71073000D01*
X145092000Y-71073000D01*
X145092000Y-71327000D01*
X145072000Y-71327000D01*
X145072000Y-71347000D01*
X144818000Y-71347000D01*
X144818000Y-71327000D01*
X143983750Y-71327000D01*
X143825000Y-71485750D01*
X143821928Y-71950000D01*
X143834188Y-72074482D01*
X143870498Y-72194180D01*
X143929463Y-72304494D01*
X144008815Y-72401185D01*
X144105506Y-72480537D01*
X144215820Y-72539502D01*
X144335518Y-72575812D01*
X144398212Y-72581987D01*
X144251698Y-72728501D01*
X144222700Y-72752299D01*
X144198902Y-72781297D01*
X144198901Y-72781298D01*
X144127726Y-72868024D01*
X144057154Y-73000054D01*
X144031659Y-73084103D01*
X144013698Y-73143314D01*
X144004101Y-73240754D01*
X143999024Y-73292300D01*
X144002701Y-73329632D01*
X144002700Y-75363073D01*
X143978386Y-75355697D01*
X143866733Y-75344700D01*
X143866722Y-75344700D01*
X143829400Y-75341024D01*
X143792078Y-75344700D01*
X143235300Y-75344700D01*
X143235300Y-73567633D01*
X143238977Y-73530300D01*
X143224303Y-73381314D01*
X143180846Y-73238053D01*
X143110274Y-73106024D01*
X143039099Y-73019297D01*
X143015301Y-72990299D01*
X142986303Y-72966501D01*
X142601788Y-72581987D01*
X142664482Y-72575812D01*
X142784180Y-72539502D01*
X142894494Y-72480537D01*
X142991185Y-72401185D01*
X143070537Y-72304494D01*
X143129502Y-72194180D01*
X143165812Y-72074482D01*
X143178072Y-71950000D01*
X143175000Y-71485750D01*
X143016250Y-71327000D01*
X142182000Y-71327000D01*
X142182000Y-71347000D01*
X141928000Y-71347000D01*
X141928000Y-71327000D01*
X141908000Y-71327000D01*
X141908000Y-71073000D01*
X141928000Y-71073000D01*
X141928000Y-71053000D01*
X142182000Y-71053000D01*
X142182000Y-71073000D01*
X143016250Y-71073000D01*
X143175000Y-70914250D01*
X143178072Y-70450000D01*
X143165812Y-70325518D01*
X143138354Y-70235000D01*
X143861646Y-70235000D01*
X143834188Y-70325518D01*
G36*
X147448866Y-72595431D02*
G01*
X147512366Y-73249293D01*
X147513235Y-73252171D01*
X147085750Y-73255000D01*
X146927000Y-73413750D01*
X146927000Y-74063000D01*
X146947000Y-74063000D01*
X146947000Y-74317000D01*
X146927000Y-74317000D01*
X146927000Y-74337000D01*
X146673000Y-74337000D01*
X146673000Y-74317000D01*
X146653000Y-74317000D01*
X146653000Y-74063000D01*
X146673000Y-74063000D01*
X146673000Y-73413750D01*
X146514250Y-73255000D01*
X146050000Y-73251928D01*
X145925518Y-73264188D01*
X145839529Y-73290273D01*
X146541730Y-72588072D01*
X147340000Y-72588072D01*
X147450690Y-72577170D01*
X147448866Y-72595431D01*
X147448866Y-72595431D01*
G37*
X147448866Y-72595431D02*
X147512366Y-73249293D01*
X147513235Y-73252171D01*
X147085750Y-73255000D01*
X146927000Y-73413750D01*
X146927000Y-74063000D01*
X146947000Y-74063000D01*
X146947000Y-74317000D01*
X146927000Y-74317000D01*
X146927000Y-74337000D01*
X146673000Y-74337000D01*
X146673000Y-74317000D01*
X146653000Y-74317000D01*
X146653000Y-74063000D01*
X146673000Y-74063000D01*
X146673000Y-73413750D01*
X146514250Y-73255000D01*
X146050000Y-73251928D01*
X145925518Y-73264188D01*
X145839529Y-73290273D01*
X146541730Y-72588072D01*
X147340000Y-72588072D01*
X147450690Y-72577170D01*
X147448866Y-72595431D01*
M02*
