G04 #@! TF.GenerationSoftware,KiCad,Pcbnew,(5.1.2-1)-1*
G04 #@! TF.CreationDate,2019-05-24T13:24:50+02:00*
G04 #@! TF.ProjectId,XoomFloppy,586f6f6d-466c-46f7-9070-792e6b696361,1.1*
G04 #@! TF.SameCoordinates,Original*
G04 #@! TF.FileFunction,Legend,Top*
G04 #@! TF.FilePolarity,Positive*
%FSLAX46Y46*%
G04 Gerber Fmt 4.6, Leading zero omitted, Abs format (unit mm)*
G04 Created by KiCad (PCBNEW (5.1.2-1)-1) date 2019-05-24 13:24:50*
%MOMM*%
%LPD*%
G04 APERTURE LIST*
%ADD10C,0.200000*%
%ADD11C,0.100000*%
%ADD12C,0.120000*%
%ADD13C,0.150000*%
G04 APERTURE END LIST*
D10*
X114773187Y-78008370D02*
G75*
G03X114773187Y-78008370I-223607J0D01*
G01*
X143674264Y-81750000D02*
G75*
G03X143674264Y-81750000I-424264J0D01*
G01*
X114940092Y-78008370D02*
G75*
G03X114940092Y-78008370I-390512J0D01*
G01*
D11*
X85475000Y-84125000D02*
X86075000Y-84125000D01*
X85475000Y-83400000D02*
X85475000Y-84125000D01*
X85475000Y-71875000D02*
X86025000Y-71875000D01*
X85475000Y-72575000D02*
X85475000Y-71875000D01*
X101600000Y-84125000D02*
X100825000Y-84125000D01*
X101600000Y-71875000D02*
X99825000Y-71875000D01*
X100850000Y-84125000D02*
X99900000Y-84125000D01*
D12*
X120850000Y-84290000D02*
X120550000Y-84290000D01*
X120850000Y-85710000D02*
X120550000Y-85710000D01*
X130250000Y-84290000D02*
X130550000Y-84290000D01*
X130250000Y-85710000D02*
X130550000Y-85710000D01*
X110450000Y-74710000D02*
X110750000Y-74710000D01*
X110450000Y-73290000D02*
X110750000Y-73290000D01*
X111050000Y-82810000D02*
X110750000Y-82810000D01*
X111050000Y-81390000D02*
X110750000Y-81390000D01*
X124100000Y-74910000D02*
X126800000Y-74910000D01*
X126800000Y-74910000D02*
X126800000Y-72890000D01*
X126800000Y-72890000D02*
X124100000Y-72890000D01*
X134450000Y-77710000D02*
X134150000Y-77710000D01*
X134450000Y-76290000D02*
X134150000Y-76290000D01*
X150250000Y-78590000D02*
X149950000Y-78590000D01*
X150250000Y-80010000D02*
X149950000Y-80010000D01*
X134450000Y-75010000D02*
X134150000Y-75010000D01*
X134450000Y-73590000D02*
X134150000Y-73590000D01*
X150250000Y-75990000D02*
X149950000Y-75990000D01*
X150250000Y-77410000D02*
X149950000Y-77410000D01*
X134450000Y-83110000D02*
X134150000Y-83110000D01*
X134450000Y-81690000D02*
X134150000Y-81690000D01*
X145750000Y-71910000D02*
X146050000Y-71910000D01*
X145750000Y-70490000D02*
X146050000Y-70490000D01*
X134450000Y-72210000D02*
X134150000Y-72210000D01*
X134450000Y-70790000D02*
X134150000Y-70790000D01*
X141250000Y-70490000D02*
X140950000Y-70490000D01*
X141250000Y-71910000D02*
X140950000Y-71910000D01*
X134450000Y-79090000D02*
X134150000Y-79090000D01*
X134450000Y-80510000D02*
X134150000Y-80510000D01*
X146050000Y-85510000D02*
X145750000Y-85510000D01*
X146050000Y-84090000D02*
X145750000Y-84090000D01*
X130410000Y-77850000D02*
X130410000Y-78150000D01*
X128990000Y-77850000D02*
X128990000Y-78150000D01*
X130410000Y-72350000D02*
X130410000Y-72050000D01*
X128990000Y-72350000D02*
X128990000Y-72050000D01*
X112150000Y-70990000D02*
X111850000Y-70990000D01*
X112150000Y-72410000D02*
X111850000Y-72410000D01*
X112098000Y-85010000D02*
X111798000Y-85010000D01*
X112098000Y-83590000D02*
X111798000Y-83590000D01*
X140950000Y-84090000D02*
X141250000Y-84090000D01*
X140950000Y-85510000D02*
X141250000Y-85510000D01*
D13*
X112073476Y-77800000D02*
X112232575Y-77959099D01*
X117200000Y-72673476D02*
X117429810Y-72903286D01*
X122326524Y-77800000D02*
X122096714Y-77570190D01*
X117200000Y-82926524D02*
X116970190Y-82696714D01*
X112073476Y-77800000D02*
X112303286Y-77570190D01*
X117200000Y-82926524D02*
X117429810Y-82696714D01*
X122326524Y-77800000D02*
X122096714Y-78029810D01*
X117200000Y-72673476D02*
X116970190Y-72903286D01*
X112232575Y-77959099D02*
X111224948Y-78966726D01*
X146175000Y-82450000D02*
X146175000Y-82425000D01*
X142025000Y-82450000D02*
X142025000Y-82335000D01*
X142025000Y-73550000D02*
X142025000Y-73665000D01*
X146175000Y-73550000D02*
X146175000Y-73665000D01*
X146175000Y-82450000D02*
X142025000Y-82450000D01*
X146175000Y-73550000D02*
X142025000Y-73550000D01*
X146175000Y-82425000D02*
X147550000Y-82425000D01*
D12*
X108410000Y-72250000D02*
X108410000Y-72550000D01*
X106990000Y-72250000D02*
X106990000Y-72550000D01*
X108300000Y-79610000D02*
X110100000Y-79610000D01*
X110100000Y-76390000D02*
X107650000Y-76390000D01*
X108760000Y-82350000D02*
X108760000Y-83650000D01*
X106940000Y-82350000D02*
X106940000Y-83650000D01*
X128300000Y-82300000D02*
X122550000Y-82300000D01*
X122550000Y-82300000D02*
X122550000Y-85900000D01*
X122550000Y-85900000D02*
X128300000Y-85900000D01*
D13*
X101001580Y-78362133D02*
X101715866Y-78362133D01*
X101858723Y-78409752D01*
X101953961Y-78504990D01*
X102001580Y-78647847D01*
X102001580Y-78743085D01*
X101096819Y-77933561D02*
X101049200Y-77885942D01*
X101001580Y-77790704D01*
X101001580Y-77552609D01*
X101049200Y-77457371D01*
X101096819Y-77409752D01*
X101192057Y-77362133D01*
X101287295Y-77362133D01*
X101430152Y-77409752D01*
X102001580Y-77981180D01*
X102001580Y-77362133D01*
X118721428Y-85150000D02*
X118764285Y-85192857D01*
X118807142Y-85321428D01*
X118807142Y-85407142D01*
X118764285Y-85535714D01*
X118678571Y-85621428D01*
X118592857Y-85664285D01*
X118421428Y-85707142D01*
X118292857Y-85707142D01*
X118121428Y-85664285D01*
X118035714Y-85621428D01*
X117950000Y-85535714D01*
X117907142Y-85407142D01*
X117907142Y-85321428D01*
X117950000Y-85192857D01*
X117992857Y-85150000D01*
X118807142Y-84292857D02*
X118807142Y-84807142D01*
X118807142Y-84550000D02*
X117907142Y-84550000D01*
X118035714Y-84635714D01*
X118121428Y-84721428D01*
X118164285Y-84807142D01*
X133121428Y-85150000D02*
X133164285Y-85192857D01*
X133207142Y-85321428D01*
X133207142Y-85407142D01*
X133164285Y-85535714D01*
X133078571Y-85621428D01*
X132992857Y-85664285D01*
X132821428Y-85707142D01*
X132692857Y-85707142D01*
X132521428Y-85664285D01*
X132435714Y-85621428D01*
X132350000Y-85535714D01*
X132307142Y-85407142D01*
X132307142Y-85321428D01*
X132350000Y-85192857D01*
X132392857Y-85150000D01*
X132392857Y-84807142D02*
X132350000Y-84764285D01*
X132307142Y-84678571D01*
X132307142Y-84464285D01*
X132350000Y-84378571D01*
X132392857Y-84335714D01*
X132478571Y-84292857D01*
X132564285Y-84292857D01*
X132692857Y-84335714D01*
X133207142Y-84850000D01*
X133207142Y-84292857D01*
X110450000Y-75921428D02*
X110407142Y-75964285D01*
X110278571Y-76007142D01*
X110192857Y-76007142D01*
X110064285Y-75964285D01*
X109978571Y-75878571D01*
X109935714Y-75792857D01*
X109892857Y-75621428D01*
X109892857Y-75492857D01*
X109935714Y-75321428D01*
X109978571Y-75235714D01*
X110064285Y-75150000D01*
X110192857Y-75107142D01*
X110278571Y-75107142D01*
X110407142Y-75150000D01*
X110450000Y-75192857D01*
X110750000Y-75107142D02*
X111307142Y-75107142D01*
X111007142Y-75450000D01*
X111135714Y-75450000D01*
X111221428Y-75492857D01*
X111264285Y-75535714D01*
X111307142Y-75621428D01*
X111307142Y-75835714D01*
X111264285Y-75921428D01*
X111221428Y-75964285D01*
X111135714Y-76007142D01*
X110878571Y-76007142D01*
X110792857Y-75964285D01*
X110750000Y-75921428D01*
X110750000Y-80921428D02*
X110707142Y-80964285D01*
X110578571Y-81007142D01*
X110492857Y-81007142D01*
X110364285Y-80964285D01*
X110278571Y-80878571D01*
X110235714Y-80792857D01*
X110192857Y-80621428D01*
X110192857Y-80492857D01*
X110235714Y-80321428D01*
X110278571Y-80235714D01*
X110364285Y-80150000D01*
X110492857Y-80107142D01*
X110578571Y-80107142D01*
X110707142Y-80150000D01*
X110750000Y-80192857D01*
X111521428Y-80407142D02*
X111521428Y-81007142D01*
X111307142Y-80064285D02*
X111092857Y-80707142D01*
X111650000Y-80707142D01*
X123307142Y-74564285D02*
X122407142Y-74564285D01*
X122407142Y-74350000D01*
X122450000Y-74221428D01*
X122535714Y-74135714D01*
X122621428Y-74092857D01*
X122792857Y-74050000D01*
X122921428Y-74050000D01*
X123092857Y-74092857D01*
X123178571Y-74135714D01*
X123264285Y-74221428D01*
X123307142Y-74350000D01*
X123307142Y-74564285D01*
X123307142Y-73192857D02*
X123307142Y-73707142D01*
X123307142Y-73450000D02*
X122407142Y-73450000D01*
X122535714Y-73535714D01*
X122621428Y-73621428D01*
X122664285Y-73707142D01*
X132457142Y-77150000D02*
X132028571Y-77450000D01*
X132457142Y-77664285D02*
X131557142Y-77664285D01*
X131557142Y-77321428D01*
X131600000Y-77235714D01*
X131642857Y-77192857D01*
X131728571Y-77150000D01*
X131857142Y-77150000D01*
X131942857Y-77192857D01*
X131985714Y-77235714D01*
X132028571Y-77321428D01*
X132028571Y-77664285D01*
X132457142Y-76292857D02*
X132457142Y-76807142D01*
X132457142Y-76550000D02*
X131557142Y-76550000D01*
X131685714Y-76635714D01*
X131771428Y-76721428D01*
X131814285Y-76807142D01*
X148707142Y-81050000D02*
X148278571Y-81350000D01*
X148707142Y-81564285D02*
X147807142Y-81564285D01*
X147807142Y-81221428D01*
X147850000Y-81135714D01*
X147892857Y-81092857D01*
X147978571Y-81050000D01*
X148107142Y-81050000D01*
X148192857Y-81092857D01*
X148235714Y-81135714D01*
X148278571Y-81221428D01*
X148278571Y-81564285D01*
X147892857Y-80707142D02*
X147850000Y-80664285D01*
X147807142Y-80578571D01*
X147807142Y-80364285D01*
X147850000Y-80278571D01*
X147892857Y-80235714D01*
X147978571Y-80192857D01*
X148064285Y-80192857D01*
X148192857Y-80235714D01*
X148707142Y-80750000D01*
X148707142Y-80192857D01*
X132457142Y-74450000D02*
X132028571Y-74750000D01*
X132457142Y-74964285D02*
X131557142Y-74964285D01*
X131557142Y-74621428D01*
X131600000Y-74535714D01*
X131642857Y-74492857D01*
X131728571Y-74450000D01*
X131857142Y-74450000D01*
X131942857Y-74492857D01*
X131985714Y-74535714D01*
X132028571Y-74621428D01*
X132028571Y-74964285D01*
X131557142Y-74150000D02*
X131557142Y-73592857D01*
X131900000Y-73892857D01*
X131900000Y-73764285D01*
X131942857Y-73678571D01*
X131985714Y-73635714D01*
X132071428Y-73592857D01*
X132285714Y-73592857D01*
X132371428Y-73635714D01*
X132414285Y-73678571D01*
X132457142Y-73764285D01*
X132457142Y-74021428D01*
X132414285Y-74107142D01*
X132371428Y-74150000D01*
X148707142Y-75350000D02*
X148278571Y-75650000D01*
X148707142Y-75864285D02*
X147807142Y-75864285D01*
X147807142Y-75521428D01*
X147850000Y-75435714D01*
X147892857Y-75392857D01*
X147978571Y-75350000D01*
X148107142Y-75350000D01*
X148192857Y-75392857D01*
X148235714Y-75435714D01*
X148278571Y-75521428D01*
X148278571Y-75864285D01*
X148107142Y-74578571D02*
X148707142Y-74578571D01*
X147764285Y-74792857D02*
X148407142Y-75007142D01*
X148407142Y-74450000D01*
X132457142Y-82550000D02*
X132028571Y-82850000D01*
X132457142Y-83064285D02*
X131557142Y-83064285D01*
X131557142Y-82721428D01*
X131600000Y-82635714D01*
X131642857Y-82592857D01*
X131728571Y-82550000D01*
X131857142Y-82550000D01*
X131942857Y-82592857D01*
X131985714Y-82635714D01*
X132028571Y-82721428D01*
X132028571Y-83064285D01*
X131557142Y-81735714D02*
X131557142Y-82164285D01*
X131985714Y-82207142D01*
X131942857Y-82164285D01*
X131900000Y-82078571D01*
X131900000Y-81864285D01*
X131942857Y-81778571D01*
X131985714Y-81735714D01*
X132071428Y-81692857D01*
X132285714Y-81692857D01*
X132371428Y-81735714D01*
X132414285Y-81778571D01*
X132457142Y-81864285D01*
X132457142Y-82078571D01*
X132414285Y-82164285D01*
X132371428Y-82207142D01*
X144107142Y-71350000D02*
X143678571Y-71650000D01*
X144107142Y-71864285D02*
X143207142Y-71864285D01*
X143207142Y-71521428D01*
X143250000Y-71435714D01*
X143292857Y-71392857D01*
X143378571Y-71350000D01*
X143507142Y-71350000D01*
X143592857Y-71392857D01*
X143635714Y-71435714D01*
X143678571Y-71521428D01*
X143678571Y-71864285D01*
X143207142Y-70578571D02*
X143207142Y-70750000D01*
X143250000Y-70835714D01*
X143292857Y-70878571D01*
X143421428Y-70964285D01*
X143592857Y-71007142D01*
X143935714Y-71007142D01*
X144021428Y-70964285D01*
X144064285Y-70921428D01*
X144107142Y-70835714D01*
X144107142Y-70664285D01*
X144064285Y-70578571D01*
X144021428Y-70535714D01*
X143935714Y-70492857D01*
X143721428Y-70492857D01*
X143635714Y-70535714D01*
X143592857Y-70578571D01*
X143550000Y-70664285D01*
X143550000Y-70835714D01*
X143592857Y-70921428D01*
X143635714Y-70964285D01*
X143721428Y-71007142D01*
X132457142Y-71650000D02*
X132028571Y-71950000D01*
X132457142Y-72164285D02*
X131557142Y-72164285D01*
X131557142Y-71821428D01*
X131600000Y-71735714D01*
X131642857Y-71692857D01*
X131728571Y-71650000D01*
X131857142Y-71650000D01*
X131942857Y-71692857D01*
X131985714Y-71735714D01*
X132028571Y-71821428D01*
X132028571Y-72164285D01*
X131557142Y-71350000D02*
X131557142Y-70750000D01*
X132457142Y-71135714D01*
X139307142Y-71350000D02*
X138878571Y-71650000D01*
X139307142Y-71864285D02*
X138407142Y-71864285D01*
X138407142Y-71521428D01*
X138450000Y-71435714D01*
X138492857Y-71392857D01*
X138578571Y-71350000D01*
X138707142Y-71350000D01*
X138792857Y-71392857D01*
X138835714Y-71435714D01*
X138878571Y-71521428D01*
X138878571Y-71864285D01*
X138792857Y-70835714D02*
X138750000Y-70921428D01*
X138707142Y-70964285D01*
X138621428Y-71007142D01*
X138578571Y-71007142D01*
X138492857Y-70964285D01*
X138450000Y-70921428D01*
X138407142Y-70835714D01*
X138407142Y-70664285D01*
X138450000Y-70578571D01*
X138492857Y-70535714D01*
X138578571Y-70492857D01*
X138621428Y-70492857D01*
X138707142Y-70535714D01*
X138750000Y-70578571D01*
X138792857Y-70664285D01*
X138792857Y-70835714D01*
X138835714Y-70921428D01*
X138878571Y-70964285D01*
X138964285Y-71007142D01*
X139135714Y-71007142D01*
X139221428Y-70964285D01*
X139264285Y-70921428D01*
X139307142Y-70835714D01*
X139307142Y-70664285D01*
X139264285Y-70578571D01*
X139221428Y-70535714D01*
X139135714Y-70492857D01*
X138964285Y-70492857D01*
X138878571Y-70535714D01*
X138835714Y-70578571D01*
X138792857Y-70664285D01*
X132457142Y-79950000D02*
X132028571Y-80250000D01*
X132457142Y-80464285D02*
X131557142Y-80464285D01*
X131557142Y-80121428D01*
X131600000Y-80035714D01*
X131642857Y-79992857D01*
X131728571Y-79950000D01*
X131857142Y-79950000D01*
X131942857Y-79992857D01*
X131985714Y-80035714D01*
X132028571Y-80121428D01*
X132028571Y-80464285D01*
X132457142Y-79521428D02*
X132457142Y-79350000D01*
X132414285Y-79264285D01*
X132371428Y-79221428D01*
X132242857Y-79135714D01*
X132071428Y-79092857D01*
X131728571Y-79092857D01*
X131642857Y-79135714D01*
X131600000Y-79178571D01*
X131557142Y-79264285D01*
X131557142Y-79435714D01*
X131600000Y-79521428D01*
X131642857Y-79564285D01*
X131728571Y-79607142D01*
X131942857Y-79607142D01*
X132028571Y-79564285D01*
X132071428Y-79521428D01*
X132114285Y-79435714D01*
X132114285Y-79264285D01*
X132071428Y-79178571D01*
X132028571Y-79135714D01*
X131942857Y-79092857D01*
X144107142Y-85378571D02*
X143678571Y-85678571D01*
X144107142Y-85892857D02*
X143207142Y-85892857D01*
X143207142Y-85550000D01*
X143250000Y-85464285D01*
X143292857Y-85421428D01*
X143378571Y-85378571D01*
X143507142Y-85378571D01*
X143592857Y-85421428D01*
X143635714Y-85464285D01*
X143678571Y-85550000D01*
X143678571Y-85892857D01*
X144107142Y-84521428D02*
X144107142Y-85035714D01*
X144107142Y-84778571D02*
X143207142Y-84778571D01*
X143335714Y-84864285D01*
X143421428Y-84950000D01*
X143464285Y-85035714D01*
X143207142Y-83964285D02*
X143207142Y-83878571D01*
X143250000Y-83792857D01*
X143292857Y-83750000D01*
X143378571Y-83707142D01*
X143550000Y-83664285D01*
X143764285Y-83664285D01*
X143935714Y-83707142D01*
X144021428Y-83750000D01*
X144064285Y-83792857D01*
X144107142Y-83878571D01*
X144107142Y-83964285D01*
X144064285Y-84050000D01*
X144021428Y-84092857D01*
X143935714Y-84135714D01*
X143764285Y-84178571D01*
X143550000Y-84178571D01*
X143378571Y-84135714D01*
X143292857Y-84092857D01*
X143250000Y-84050000D01*
X143207142Y-83964285D01*
X128607142Y-78578571D02*
X128178571Y-78878571D01*
X128607142Y-79092857D02*
X127707142Y-79092857D01*
X127707142Y-78750000D01*
X127750000Y-78664285D01*
X127792857Y-78621428D01*
X127878571Y-78578571D01*
X128007142Y-78578571D01*
X128092857Y-78621428D01*
X128135714Y-78664285D01*
X128178571Y-78750000D01*
X128178571Y-79092857D01*
X128607142Y-77721428D02*
X128607142Y-78235714D01*
X128607142Y-77978571D02*
X127707142Y-77978571D01*
X127835714Y-78064285D01*
X127921428Y-78150000D01*
X127964285Y-78235714D01*
X128607142Y-76864285D02*
X128607142Y-77378571D01*
X128607142Y-77121428D02*
X127707142Y-77121428D01*
X127835714Y-77207142D01*
X127921428Y-77292857D01*
X127964285Y-77378571D01*
X128607142Y-72778571D02*
X128178571Y-73078571D01*
X128607142Y-73292857D02*
X127707142Y-73292857D01*
X127707142Y-72950000D01*
X127750000Y-72864285D01*
X127792857Y-72821428D01*
X127878571Y-72778571D01*
X128007142Y-72778571D01*
X128092857Y-72821428D01*
X128135714Y-72864285D01*
X128178571Y-72950000D01*
X128178571Y-73292857D01*
X128607142Y-71921428D02*
X128607142Y-72435714D01*
X128607142Y-72178571D02*
X127707142Y-72178571D01*
X127835714Y-72264285D01*
X127921428Y-72350000D01*
X127964285Y-72435714D01*
X127792857Y-71578571D02*
X127750000Y-71535714D01*
X127707142Y-71450000D01*
X127707142Y-71235714D01*
X127750000Y-71150000D01*
X127792857Y-71107142D01*
X127878571Y-71064285D01*
X127964285Y-71064285D01*
X128092857Y-71107142D01*
X128607142Y-71621428D01*
X128607142Y-71064285D01*
X110207142Y-72278571D02*
X109778571Y-72578571D01*
X110207142Y-72792857D02*
X109307142Y-72792857D01*
X109307142Y-72450000D01*
X109350000Y-72364285D01*
X109392857Y-72321428D01*
X109478571Y-72278571D01*
X109607142Y-72278571D01*
X109692857Y-72321428D01*
X109735714Y-72364285D01*
X109778571Y-72450000D01*
X109778571Y-72792857D01*
X110207142Y-71421428D02*
X110207142Y-71935714D01*
X110207142Y-71678571D02*
X109307142Y-71678571D01*
X109435714Y-71764285D01*
X109521428Y-71850000D01*
X109564285Y-71935714D01*
X109307142Y-71121428D02*
X109307142Y-70564285D01*
X109650000Y-70864285D01*
X109650000Y-70735714D01*
X109692857Y-70650000D01*
X109735714Y-70607142D01*
X109821428Y-70564285D01*
X110035714Y-70564285D01*
X110121428Y-70607142D01*
X110164285Y-70650000D01*
X110207142Y-70735714D01*
X110207142Y-70992857D01*
X110164285Y-71078571D01*
X110121428Y-71121428D01*
X110207142Y-84878571D02*
X109778571Y-85178571D01*
X110207142Y-85392857D02*
X109307142Y-85392857D01*
X109307142Y-85050000D01*
X109350000Y-84964285D01*
X109392857Y-84921428D01*
X109478571Y-84878571D01*
X109607142Y-84878571D01*
X109692857Y-84921428D01*
X109735714Y-84964285D01*
X109778571Y-85050000D01*
X109778571Y-85392857D01*
X110207142Y-84021428D02*
X110207142Y-84535714D01*
X110207142Y-84278571D02*
X109307142Y-84278571D01*
X109435714Y-84364285D01*
X109521428Y-84450000D01*
X109564285Y-84535714D01*
X109607142Y-83250000D02*
X110207142Y-83250000D01*
X109264285Y-83464285D02*
X109907142Y-83678571D01*
X109907142Y-83121428D01*
X139307142Y-85378571D02*
X138878571Y-85678571D01*
X139307142Y-85892857D02*
X138407142Y-85892857D01*
X138407142Y-85550000D01*
X138450000Y-85464285D01*
X138492857Y-85421428D01*
X138578571Y-85378571D01*
X138707142Y-85378571D01*
X138792857Y-85421428D01*
X138835714Y-85464285D01*
X138878571Y-85550000D01*
X138878571Y-85892857D01*
X139307142Y-84521428D02*
X139307142Y-85035714D01*
X139307142Y-84778571D02*
X138407142Y-84778571D01*
X138535714Y-84864285D01*
X138621428Y-84950000D01*
X138664285Y-85035714D01*
X138407142Y-83750000D02*
X138407142Y-83921428D01*
X138450000Y-84007142D01*
X138492857Y-84050000D01*
X138621428Y-84135714D01*
X138792857Y-84178571D01*
X139135714Y-84178571D01*
X139221428Y-84135714D01*
X139264285Y-84092857D01*
X139307142Y-84007142D01*
X139307142Y-83835714D01*
X139264285Y-83750000D01*
X139221428Y-83707142D01*
X139135714Y-83664285D01*
X138921428Y-83664285D01*
X138835714Y-83707142D01*
X138792857Y-83750000D01*
X138750000Y-83835714D01*
X138750000Y-84007142D01*
X138792857Y-84092857D01*
X138835714Y-84135714D01*
X138921428Y-84178571D01*
X116514285Y-71507142D02*
X116514285Y-72235714D01*
X116557142Y-72321428D01*
X116600000Y-72364285D01*
X116685714Y-72407142D01*
X116857142Y-72407142D01*
X116942857Y-72364285D01*
X116985714Y-72321428D01*
X117028571Y-72235714D01*
X117028571Y-71507142D01*
X117371428Y-71507142D02*
X117928571Y-71507142D01*
X117628571Y-71850000D01*
X117757142Y-71850000D01*
X117842857Y-71892857D01*
X117885714Y-71935714D01*
X117928571Y-72021428D01*
X117928571Y-72235714D01*
X117885714Y-72321428D01*
X117842857Y-72364285D01*
X117757142Y-72407142D01*
X117500000Y-72407142D01*
X117414285Y-72364285D01*
X117371428Y-72321428D01*
X140107142Y-78878571D02*
X139207142Y-78878571D01*
X140021428Y-77935714D02*
X140064285Y-77978571D01*
X140107142Y-78107142D01*
X140107142Y-78192857D01*
X140064285Y-78321428D01*
X139978571Y-78407142D01*
X139892857Y-78450000D01*
X139721428Y-78492857D01*
X139592857Y-78492857D01*
X139421428Y-78450000D01*
X139335714Y-78407142D01*
X139250000Y-78321428D01*
X139207142Y-78192857D01*
X139207142Y-78107142D01*
X139250000Y-77978571D01*
X139292857Y-77935714D01*
X140107142Y-77078571D02*
X140107142Y-77592857D01*
X140107142Y-77335714D02*
X139207142Y-77335714D01*
X139335714Y-77421428D01*
X139421428Y-77507142D01*
X139464285Y-77592857D01*
X106421428Y-72550000D02*
X106464285Y-72592857D01*
X106507142Y-72721428D01*
X106507142Y-72807142D01*
X106464285Y-72935714D01*
X106378571Y-73021428D01*
X106292857Y-73064285D01*
X106121428Y-73107142D01*
X105992857Y-73107142D01*
X105821428Y-73064285D01*
X105735714Y-73021428D01*
X105650000Y-72935714D01*
X105607142Y-72807142D01*
X105607142Y-72721428D01*
X105650000Y-72592857D01*
X105692857Y-72550000D01*
X105607142Y-71735714D02*
X105607142Y-72164285D01*
X106035714Y-72207142D01*
X105992857Y-72164285D01*
X105950000Y-72078571D01*
X105950000Y-71864285D01*
X105992857Y-71778571D01*
X106035714Y-71735714D01*
X106121428Y-71692857D01*
X106335714Y-71692857D01*
X106421428Y-71735714D01*
X106464285Y-71778571D01*
X106507142Y-71864285D01*
X106507142Y-72078571D01*
X106464285Y-72164285D01*
X106421428Y-72207142D01*
X107314342Y-76099142D02*
X107314342Y-75199142D01*
X107528628Y-75199142D01*
X107657200Y-75242000D01*
X107742914Y-75327714D01*
X107785771Y-75413428D01*
X107828628Y-75584857D01*
X107828628Y-75713428D01*
X107785771Y-75884857D01*
X107742914Y-75970571D01*
X107657200Y-76056285D01*
X107528628Y-76099142D01*
X107314342Y-76099142D01*
X108128628Y-75199142D02*
X108728628Y-75199142D01*
X108128628Y-76099142D01*
X108728628Y-76099142D01*
X109542914Y-76099142D02*
X109028628Y-76099142D01*
X109285771Y-76099142D02*
X109285771Y-75199142D01*
X109200057Y-75327714D01*
X109114342Y-75413428D01*
X109028628Y-75456285D01*
X105978571Y-83783333D02*
X105978571Y-84116666D01*
X106502380Y-84116666D02*
X105502380Y-84116666D01*
X105502380Y-83640476D01*
X106502380Y-82735714D02*
X106502380Y-83307142D01*
X106502380Y-83021428D02*
X105502380Y-83021428D01*
X105645238Y-83116666D01*
X105740476Y-83211904D01*
X105788095Y-83307142D01*
X125123809Y-81376190D02*
X125123809Y-81852380D01*
X124790476Y-80852380D02*
X125123809Y-81376190D01*
X125457142Y-80852380D01*
X126314285Y-81852380D02*
X125742857Y-81852380D01*
X126028571Y-81852380D02*
X126028571Y-80852380D01*
X125933333Y-80995238D01*
X125838095Y-81090476D01*
X125742857Y-81138095D01*
M02*
