G04 #@! TF.GenerationSoftware,KiCad,Pcbnew,(5.1.2-1)-1*
G04 #@! TF.CreationDate,2019-05-24T13:24:50+02:00*
G04 #@! TF.ProjectId,XoomFloppy,586f6f6d-466c-46f7-9070-792e6b696361,1.1*
G04 #@! TF.SameCoordinates,Original*
G04 #@! TF.FileFunction,Copper,L2,Bot*
G04 #@! TF.FilePolarity,Positive*
%FSLAX46Y46*%
G04 Gerber Fmt 4.6, Leading zero omitted, Abs format (unit mm)*
G04 Created by KiCad (PCBNEW (5.1.2-1)-1) date 2019-05-24 13:24:50*
%MOMM*%
%LPD*%
G04 APERTURE LIST*
%ADD10C,1.800000*%
%ADD11C,2.200000*%
%ADD12O,3.500000X2.000000*%
%ADD13C,5.400000*%
%ADD14R,1.350000X1.350000*%
%ADD15O,1.350000X1.350000*%
%ADD16R,1.000000X1.000000*%
%ADD17O,1.000000X1.000000*%
%ADD18C,0.700000*%
%ADD19C,0.600000*%
%ADD20C,0.350000*%
%ADD21C,0.250000*%
%ADD22C,0.254000*%
G04 APERTURE END LIST*
D10*
X105500000Y-81500000D03*
X105500000Y-79000000D03*
X105500000Y-77000000D03*
X105500000Y-74500000D03*
D11*
X103400000Y-80300000D03*
X103400000Y-75700000D03*
D12*
X103400000Y-83850000D03*
X103400000Y-72150000D03*
D13*
X150750000Y-83400000D03*
X150800000Y-72600000D03*
D14*
X137800000Y-83000000D03*
D15*
X137800000Y-81000000D03*
X137800000Y-79000000D03*
X137800000Y-77000000D03*
X137800000Y-75000000D03*
X137800000Y-73000000D03*
D16*
X127100000Y-70800000D03*
D17*
X125830000Y-70800000D03*
X124560000Y-70800000D03*
X123290000Y-70800000D03*
X122020000Y-70800000D03*
X120750000Y-70800000D03*
X119480000Y-70800000D03*
X118210000Y-70800000D03*
X116940000Y-70800000D03*
X115670000Y-70800000D03*
D18*
X106985000Y-78000000D03*
D19*
X116200000Y-76700000D03*
X117300000Y-84900000D03*
X121904900Y-83028200D03*
X114681700Y-77485800D03*
X125288500Y-83481400D03*
X114663000Y-78414100D03*
X120602900Y-78122400D03*
X120694400Y-77137000D03*
X145441800Y-75719200D03*
X139424000Y-76730000D03*
X116053000Y-80765900D03*
X143414700Y-82415200D03*
X117576900Y-83256300D03*
X145502900Y-79270000D03*
X145492400Y-76730000D03*
X119705600Y-83238600D03*
X118633400Y-75084500D03*
X142950800Y-79270000D03*
X132273700Y-75924700D03*
X119280200Y-78750800D03*
X131337000Y-75926400D03*
X119623100Y-79547300D03*
X131470200Y-79792100D03*
X118803300Y-76160000D03*
X143056200Y-84800000D03*
X123625100Y-72648600D03*
X113023400Y-81488100D03*
X111869600Y-77530000D03*
X109863200Y-80827800D03*
X114174300Y-83624600D03*
X114278400Y-76556600D03*
X131986600Y-71163400D03*
X140052800Y-78842300D03*
X132193700Y-83831900D03*
X117287900Y-73752300D03*
D20*
X105500000Y-74771400D02*
X104328600Y-74771400D01*
X104328600Y-74771400D02*
X103400000Y-75700000D01*
X106985000Y-78000000D02*
X106985000Y-76256400D01*
X106985000Y-76256400D02*
X105500000Y-74771400D01*
X105500000Y-74500000D02*
X105500000Y-74771400D01*
X103400000Y-75700000D02*
X103400000Y-80300000D01*
X137800000Y-81000000D02*
X138850300Y-81000000D01*
X150800000Y-72600000D02*
X147250300Y-72600000D01*
X147250300Y-72600000D02*
X138850300Y-81000000D01*
X103400000Y-80300000D02*
X103400000Y-83850000D01*
D21*
X114681700Y-77485800D02*
X119280400Y-82084500D01*
X119280400Y-82084500D02*
X120961200Y-82084500D01*
X120961200Y-82084500D02*
X121904900Y-83028200D01*
X125288500Y-83481400D02*
X125113400Y-83656500D01*
X125113400Y-83656500D02*
X121007900Y-83656500D01*
X121007900Y-83656500D02*
X119964700Y-82613300D01*
X119964700Y-82613300D02*
X118862200Y-82613300D01*
X118862200Y-82613300D02*
X114663000Y-78414100D01*
X127100000Y-71625300D02*
X126983100Y-71625300D01*
X126983100Y-71625300D02*
X121924100Y-76684300D01*
X121924100Y-76684300D02*
X121924100Y-76801200D01*
X121924100Y-76801200D02*
X120602900Y-78122400D01*
X127100000Y-70800000D02*
X127100000Y-71625300D01*
X120694400Y-77137000D02*
X124560000Y-73271400D01*
X124560000Y-73271400D02*
X124560000Y-70800000D01*
X145441800Y-75719200D02*
X138800300Y-82360700D01*
X138800300Y-82360700D02*
X138800300Y-83000000D01*
X137800000Y-83000000D02*
X138800300Y-83000000D01*
X137800000Y-79000000D02*
X139424000Y-77376000D01*
X139424000Y-77376000D02*
X139424000Y-76730000D01*
X143414700Y-82415200D02*
X140908600Y-84921300D01*
X140908600Y-84921300D02*
X120208400Y-84921300D01*
X120208400Y-84921300D02*
X116053000Y-80765900D01*
X117576900Y-83256300D02*
X119743800Y-85423200D01*
X119743800Y-85423200D02*
X141317100Y-85423200D01*
X141317100Y-85423200D02*
X145502900Y-81237400D01*
X145502900Y-81237400D02*
X145502900Y-79270000D01*
X119705600Y-83238600D02*
X120928700Y-84461700D01*
X120928700Y-84461700D02*
X138831800Y-84461700D01*
X138831800Y-84461700D02*
X145492400Y-77801100D01*
X145492400Y-77801100D02*
X145492400Y-76730000D01*
X142950800Y-79270000D02*
X142950800Y-79689500D01*
X142950800Y-79689500D02*
X138639900Y-84000400D01*
X138639900Y-84000400D02*
X136188600Y-84000400D01*
X136188600Y-84000400D02*
X133282300Y-81094100D01*
X133282300Y-81094100D02*
X119563800Y-81094100D01*
X119563800Y-81094100D02*
X118177900Y-79708200D01*
X118177900Y-79708200D02*
X118177900Y-75540000D01*
X118177900Y-75540000D02*
X118633400Y-75084500D01*
X132273700Y-75924700D02*
X131623400Y-75274400D01*
X131623400Y-75274400D02*
X123970900Y-75274400D01*
X123970900Y-75274400D02*
X122374400Y-76870900D01*
X122374400Y-76870900D02*
X122374400Y-77269000D01*
X122374400Y-77269000D02*
X120892600Y-78750800D01*
X120892600Y-78750800D02*
X119280200Y-78750800D01*
X119623100Y-79547300D02*
X120776800Y-79547300D01*
X120776800Y-79547300D02*
X122824700Y-77499400D01*
X122824700Y-77499400D02*
X122824700Y-77057500D01*
X122824700Y-77057500D02*
X124157500Y-75724700D01*
X124157500Y-75724700D02*
X131135300Y-75724700D01*
X131135300Y-75724700D02*
X131337000Y-75926400D01*
X131470200Y-79792100D02*
X130979700Y-80282600D01*
X130979700Y-80282600D02*
X119394500Y-80282600D01*
X119394500Y-80282600D02*
X118649600Y-79537700D01*
X118649600Y-79537700D02*
X118649600Y-76313700D01*
X118649600Y-76313700D02*
X118803300Y-76160000D01*
X113023400Y-81488100D02*
X113023400Y-83408800D01*
X113023400Y-83408800D02*
X115488200Y-85873600D01*
X115488200Y-85873600D02*
X141982600Y-85873600D01*
X141982600Y-85873600D02*
X143056200Y-84800000D01*
X111521200Y-79395700D02*
X113023400Y-80897900D01*
X113023400Y-80897900D02*
X113023400Y-81488100D01*
X111869600Y-77530000D02*
X116751000Y-72648600D01*
X116751000Y-72648600D02*
X123625100Y-72648600D01*
X111521200Y-79395700D02*
X111521200Y-77878400D01*
X111521200Y-77878400D02*
X111869600Y-77530000D01*
X111521200Y-79395700D02*
X111295300Y-79395700D01*
X111295300Y-79395700D02*
X109863200Y-80827800D01*
X114174300Y-83624600D02*
X114009700Y-83460000D01*
X114009700Y-83460000D02*
X114009700Y-76825300D01*
X114009700Y-76825300D02*
X114278400Y-76556600D01*
X131986600Y-71163400D02*
X137423700Y-71163400D01*
X137423700Y-71163400D02*
X140052800Y-73792500D01*
X140052800Y-73792500D02*
X140052800Y-78842300D01*
X117287900Y-73752300D02*
X117287900Y-79455100D01*
X117287900Y-79455100D02*
X119377300Y-81544500D01*
X119377300Y-81544500D02*
X129906300Y-81544500D01*
X129906300Y-81544500D02*
X132193700Y-83831900D01*
D22*
G36*
X114616324Y-70363553D02*
G01*
X114551423Y-70577501D01*
X114529509Y-70800000D01*
X114551423Y-71022499D01*
X114616324Y-71236447D01*
X114721716Y-71433623D01*
X114863551Y-71606449D01*
X115036377Y-71748284D01*
X115233553Y-71853676D01*
X115447501Y-71918577D01*
X115614248Y-71935000D01*
X115725752Y-71935000D01*
X115892499Y-71918577D01*
X116106447Y-71853676D01*
X116303623Y-71748284D01*
X116305000Y-71747154D01*
X116306377Y-71748284D01*
X116503553Y-71853676D01*
X116641962Y-71895662D01*
X116602014Y-71899597D01*
X116485304Y-71935000D01*
X116458753Y-71943054D01*
X116326723Y-72013626D01*
X116279268Y-72052572D01*
X116210999Y-72108599D01*
X116187201Y-72137597D01*
X111717952Y-76606847D01*
X111596871Y-76630932D01*
X111426711Y-76701414D01*
X111273572Y-76803738D01*
X111143338Y-76933972D01*
X111041014Y-77087111D01*
X110970532Y-77257271D01*
X110945819Y-77381511D01*
X110886226Y-77454124D01*
X110815654Y-77586154D01*
X110797764Y-77645133D01*
X110772198Y-77729414D01*
X110764977Y-77802729D01*
X110757524Y-77878400D01*
X110761201Y-77915732D01*
X110761200Y-78850856D01*
X110755299Y-78855699D01*
X110731501Y-78884697D01*
X109711551Y-79904647D01*
X109590471Y-79928732D01*
X109420311Y-79999214D01*
X109267172Y-80101538D01*
X109136938Y-80231772D01*
X109034614Y-80384911D01*
X108964132Y-80555071D01*
X108928200Y-80735711D01*
X108928200Y-80919889D01*
X108964132Y-81100529D01*
X109034614Y-81270689D01*
X109136938Y-81423828D01*
X109267172Y-81554062D01*
X109420311Y-81656386D01*
X109590471Y-81726868D01*
X109771111Y-81762800D01*
X109955289Y-81762800D01*
X110135929Y-81726868D01*
X110306089Y-81656386D01*
X110459228Y-81554062D01*
X110589462Y-81423828D01*
X110691786Y-81270689D01*
X110762268Y-81100529D01*
X110786353Y-80979449D01*
X111408250Y-80357551D01*
X112165846Y-81115147D01*
X112124332Y-81215371D01*
X112088400Y-81396011D01*
X112088400Y-81580189D01*
X112124332Y-81760829D01*
X112194814Y-81930989D01*
X112263400Y-82033636D01*
X112263401Y-83371468D01*
X112259724Y-83408800D01*
X112263401Y-83446133D01*
X112274398Y-83557786D01*
X112279961Y-83576124D01*
X112317854Y-83701046D01*
X112388426Y-83833076D01*
X112441158Y-83897329D01*
X112483400Y-83948801D01*
X112512398Y-83972599D01*
X114304798Y-85765000D01*
X102035945Y-85765000D01*
X101852098Y-85746974D01*
X101709822Y-85704018D01*
X101578608Y-85634250D01*
X101463439Y-85540321D01*
X101368708Y-85425810D01*
X101298025Y-85295085D01*
X101254078Y-85153116D01*
X101235000Y-84971599D01*
X101235000Y-84674251D01*
X101404078Y-84916317D01*
X101636046Y-85138895D01*
X101906980Y-85311942D01*
X102206468Y-85428807D01*
X102523000Y-85485000D01*
X103273000Y-85485000D01*
X103273000Y-83977000D01*
X103527000Y-83977000D01*
X103527000Y-85485000D01*
X104277000Y-85485000D01*
X104593532Y-85428807D01*
X104893020Y-85311942D01*
X105163954Y-85138895D01*
X105395922Y-84916317D01*
X105580010Y-84652761D01*
X105709144Y-84358355D01*
X105740124Y-84230434D01*
X105620777Y-83977000D01*
X103527000Y-83977000D01*
X103273000Y-83977000D01*
X103253000Y-83977000D01*
X103253000Y-83723000D01*
X103273000Y-83723000D01*
X103273000Y-82215000D01*
X102523000Y-82215000D01*
X102206468Y-82271193D01*
X101906980Y-82388058D01*
X101636046Y-82561105D01*
X101404078Y-82783683D01*
X101235000Y-83025749D01*
X101235000Y-80358639D01*
X101657591Y-80358639D01*
X101702511Y-80697439D01*
X101812664Y-81020966D01*
X101918662Y-81219274D01*
X102193288Y-81327107D01*
X103220395Y-80300000D01*
X102193288Y-79272893D01*
X101918662Y-79380726D01*
X101767784Y-79687384D01*
X101679631Y-80017585D01*
X101657591Y-80358639D01*
X101235000Y-80358639D01*
X101235000Y-75758639D01*
X101657591Y-75758639D01*
X101702511Y-76097439D01*
X101812664Y-76420966D01*
X101918662Y-76619274D01*
X102193288Y-76727107D01*
X103220395Y-75700000D01*
X102193288Y-74672893D01*
X101918662Y-74780726D01*
X101767784Y-75087384D01*
X101679631Y-75417585D01*
X101657591Y-75758639D01*
X101235000Y-75758639D01*
X101235000Y-74493288D01*
X102372893Y-74493288D01*
X103400000Y-75520395D01*
X103414143Y-75506253D01*
X103593748Y-75685858D01*
X103579605Y-75700000D01*
X103593748Y-75714143D01*
X103414143Y-75893748D01*
X103400000Y-75879605D01*
X102372893Y-76906712D01*
X102480726Y-77181338D01*
X102787384Y-77332216D01*
X103117585Y-77420369D01*
X103458639Y-77442409D01*
X103797439Y-77397489D01*
X104000257Y-77328434D01*
X104023989Y-77447743D01*
X104139701Y-77727095D01*
X104307688Y-77978505D01*
X104329183Y-78000000D01*
X104307688Y-78021495D01*
X104139701Y-78272905D01*
X104023989Y-78552257D01*
X104001595Y-78664842D01*
X103682415Y-78579631D01*
X103341361Y-78557591D01*
X103002561Y-78602511D01*
X102679034Y-78712664D01*
X102480726Y-78818662D01*
X102372893Y-79093288D01*
X103400000Y-80120395D01*
X103414143Y-80106253D01*
X103593748Y-80285858D01*
X103579605Y-80300000D01*
X103593748Y-80314143D01*
X103414143Y-80493748D01*
X103400000Y-80479605D01*
X102372893Y-81506712D01*
X102480726Y-81781338D01*
X102787384Y-81932216D01*
X103117585Y-82020369D01*
X103458639Y-82042409D01*
X103797439Y-81997489D01*
X104018887Y-81922092D01*
X104023989Y-81947743D01*
X104134691Y-82215000D01*
X103527000Y-82215000D01*
X103527000Y-83723000D01*
X105620777Y-83723000D01*
X105740124Y-83469566D01*
X105709144Y-83341645D01*
X105580010Y-83047239D01*
X105571461Y-83035000D01*
X105651184Y-83035000D01*
X105947743Y-82976011D01*
X106227095Y-82860299D01*
X106478505Y-82692312D01*
X106692312Y-82478505D01*
X106860299Y-82227095D01*
X106976011Y-81947743D01*
X107035000Y-81651184D01*
X107035000Y-81348816D01*
X106976011Y-81052257D01*
X106860299Y-80772905D01*
X106692312Y-80521495D01*
X106478505Y-80307688D01*
X106392169Y-80250000D01*
X106478505Y-80192312D01*
X106692312Y-79978505D01*
X106860299Y-79727095D01*
X106976011Y-79447743D01*
X107035000Y-79151184D01*
X107035000Y-78848816D01*
X106976011Y-78552257D01*
X106860299Y-78272905D01*
X106692312Y-78021495D01*
X106670817Y-78000000D01*
X106692312Y-77978505D01*
X106860299Y-77727095D01*
X106976011Y-77447743D01*
X107035000Y-77151184D01*
X107035000Y-76848816D01*
X106976011Y-76552257D01*
X106860299Y-76272905D01*
X106692312Y-76021495D01*
X106478505Y-75807688D01*
X106335690Y-75712262D01*
X106384475Y-75564080D01*
X105500000Y-74679605D01*
X105485858Y-74693748D01*
X105306253Y-74514143D01*
X105320395Y-74500000D01*
X105679605Y-74500000D01*
X106564080Y-75384475D01*
X106818261Y-75300792D01*
X106949158Y-75028225D01*
X107024365Y-74735358D01*
X107040991Y-74433447D01*
X106998397Y-74134093D01*
X106898222Y-73848801D01*
X106818261Y-73699208D01*
X106564080Y-73615525D01*
X105679605Y-74500000D01*
X105320395Y-74500000D01*
X105306253Y-74485858D01*
X105485858Y-74306253D01*
X105500000Y-74320395D01*
X106384475Y-73435920D01*
X106300792Y-73181739D01*
X106028225Y-73050842D01*
X105735358Y-72975635D01*
X105570379Y-72966550D01*
X105580010Y-72952761D01*
X105709144Y-72658355D01*
X105740124Y-72530434D01*
X105620777Y-72277000D01*
X103527000Y-72277000D01*
X103527000Y-73785000D01*
X104140538Y-73785000D01*
X104050842Y-73971775D01*
X104024665Y-74073712D01*
X104012616Y-74067784D01*
X103682415Y-73979631D01*
X103341361Y-73957591D01*
X103002561Y-74002511D01*
X102679034Y-74112664D01*
X102480726Y-74218662D01*
X102372893Y-74493288D01*
X101235000Y-74493288D01*
X101235000Y-72974251D01*
X101404078Y-73216317D01*
X101636046Y-73438895D01*
X101906980Y-73611942D01*
X102206468Y-73728807D01*
X102523000Y-73785000D01*
X103273000Y-73785000D01*
X103273000Y-72277000D01*
X103253000Y-72277000D01*
X103253000Y-72023000D01*
X103273000Y-72023000D01*
X103273000Y-70515000D01*
X103527000Y-70515000D01*
X103527000Y-72023000D01*
X105620777Y-72023000D01*
X105740124Y-71769566D01*
X105709144Y-71641645D01*
X105580010Y-71347239D01*
X105395922Y-71083683D01*
X105163954Y-70861105D01*
X104893020Y-70688058D01*
X104593532Y-70571193D01*
X104277000Y-70515000D01*
X103527000Y-70515000D01*
X103273000Y-70515000D01*
X102523000Y-70515000D01*
X102206468Y-70571193D01*
X101906980Y-70688058D01*
X101636046Y-70861105D01*
X101404078Y-71083683D01*
X101235000Y-71325749D01*
X101235000Y-71035945D01*
X101253026Y-70852098D01*
X101295982Y-70709822D01*
X101365750Y-70578608D01*
X101459680Y-70463439D01*
X101574187Y-70368709D01*
X101704916Y-70298024D01*
X101846883Y-70254078D01*
X102028401Y-70235000D01*
X114685037Y-70235000D01*
X114616324Y-70363553D01*
X114616324Y-70363553D01*
G37*
X114616324Y-70363553D02*
X114551423Y-70577501D01*
X114529509Y-70800000D01*
X114551423Y-71022499D01*
X114616324Y-71236447D01*
X114721716Y-71433623D01*
X114863551Y-71606449D01*
X115036377Y-71748284D01*
X115233553Y-71853676D01*
X115447501Y-71918577D01*
X115614248Y-71935000D01*
X115725752Y-71935000D01*
X115892499Y-71918577D01*
X116106447Y-71853676D01*
X116303623Y-71748284D01*
X116305000Y-71747154D01*
X116306377Y-71748284D01*
X116503553Y-71853676D01*
X116641962Y-71895662D01*
X116602014Y-71899597D01*
X116485304Y-71935000D01*
X116458753Y-71943054D01*
X116326723Y-72013626D01*
X116279268Y-72052572D01*
X116210999Y-72108599D01*
X116187201Y-72137597D01*
X111717952Y-76606847D01*
X111596871Y-76630932D01*
X111426711Y-76701414D01*
X111273572Y-76803738D01*
X111143338Y-76933972D01*
X111041014Y-77087111D01*
X110970532Y-77257271D01*
X110945819Y-77381511D01*
X110886226Y-77454124D01*
X110815654Y-77586154D01*
X110797764Y-77645133D01*
X110772198Y-77729414D01*
X110764977Y-77802729D01*
X110757524Y-77878400D01*
X110761201Y-77915732D01*
X110761200Y-78850856D01*
X110755299Y-78855699D01*
X110731501Y-78884697D01*
X109711551Y-79904647D01*
X109590471Y-79928732D01*
X109420311Y-79999214D01*
X109267172Y-80101538D01*
X109136938Y-80231772D01*
X109034614Y-80384911D01*
X108964132Y-80555071D01*
X108928200Y-80735711D01*
X108928200Y-80919889D01*
X108964132Y-81100529D01*
X109034614Y-81270689D01*
X109136938Y-81423828D01*
X109267172Y-81554062D01*
X109420311Y-81656386D01*
X109590471Y-81726868D01*
X109771111Y-81762800D01*
X109955289Y-81762800D01*
X110135929Y-81726868D01*
X110306089Y-81656386D01*
X110459228Y-81554062D01*
X110589462Y-81423828D01*
X110691786Y-81270689D01*
X110762268Y-81100529D01*
X110786353Y-80979449D01*
X111408250Y-80357551D01*
X112165846Y-81115147D01*
X112124332Y-81215371D01*
X112088400Y-81396011D01*
X112088400Y-81580189D01*
X112124332Y-81760829D01*
X112194814Y-81930989D01*
X112263400Y-82033636D01*
X112263401Y-83371468D01*
X112259724Y-83408800D01*
X112263401Y-83446133D01*
X112274398Y-83557786D01*
X112279961Y-83576124D01*
X112317854Y-83701046D01*
X112388426Y-83833076D01*
X112441158Y-83897329D01*
X112483400Y-83948801D01*
X112512398Y-83972599D01*
X114304798Y-85765000D01*
X102035945Y-85765000D01*
X101852098Y-85746974D01*
X101709822Y-85704018D01*
X101578608Y-85634250D01*
X101463439Y-85540321D01*
X101368708Y-85425810D01*
X101298025Y-85295085D01*
X101254078Y-85153116D01*
X101235000Y-84971599D01*
X101235000Y-84674251D01*
X101404078Y-84916317D01*
X101636046Y-85138895D01*
X101906980Y-85311942D01*
X102206468Y-85428807D01*
X102523000Y-85485000D01*
X103273000Y-85485000D01*
X103273000Y-83977000D01*
X103527000Y-83977000D01*
X103527000Y-85485000D01*
X104277000Y-85485000D01*
X104593532Y-85428807D01*
X104893020Y-85311942D01*
X105163954Y-85138895D01*
X105395922Y-84916317D01*
X105580010Y-84652761D01*
X105709144Y-84358355D01*
X105740124Y-84230434D01*
X105620777Y-83977000D01*
X103527000Y-83977000D01*
X103273000Y-83977000D01*
X103253000Y-83977000D01*
X103253000Y-83723000D01*
X103273000Y-83723000D01*
X103273000Y-82215000D01*
X102523000Y-82215000D01*
X102206468Y-82271193D01*
X101906980Y-82388058D01*
X101636046Y-82561105D01*
X101404078Y-82783683D01*
X101235000Y-83025749D01*
X101235000Y-80358639D01*
X101657591Y-80358639D01*
X101702511Y-80697439D01*
X101812664Y-81020966D01*
X101918662Y-81219274D01*
X102193288Y-81327107D01*
X103220395Y-80300000D01*
X102193288Y-79272893D01*
X101918662Y-79380726D01*
X101767784Y-79687384D01*
X101679631Y-80017585D01*
X101657591Y-80358639D01*
X101235000Y-80358639D01*
X101235000Y-75758639D01*
X101657591Y-75758639D01*
X101702511Y-76097439D01*
X101812664Y-76420966D01*
X101918662Y-76619274D01*
X102193288Y-76727107D01*
X103220395Y-75700000D01*
X102193288Y-74672893D01*
X101918662Y-74780726D01*
X101767784Y-75087384D01*
X101679631Y-75417585D01*
X101657591Y-75758639D01*
X101235000Y-75758639D01*
X101235000Y-74493288D01*
X102372893Y-74493288D01*
X103400000Y-75520395D01*
X103414143Y-75506253D01*
X103593748Y-75685858D01*
X103579605Y-75700000D01*
X103593748Y-75714143D01*
X103414143Y-75893748D01*
X103400000Y-75879605D01*
X102372893Y-76906712D01*
X102480726Y-77181338D01*
X102787384Y-77332216D01*
X103117585Y-77420369D01*
X103458639Y-77442409D01*
X103797439Y-77397489D01*
X104000257Y-77328434D01*
X104023989Y-77447743D01*
X104139701Y-77727095D01*
X104307688Y-77978505D01*
X104329183Y-78000000D01*
X104307688Y-78021495D01*
X104139701Y-78272905D01*
X104023989Y-78552257D01*
X104001595Y-78664842D01*
X103682415Y-78579631D01*
X103341361Y-78557591D01*
X103002561Y-78602511D01*
X102679034Y-78712664D01*
X102480726Y-78818662D01*
X102372893Y-79093288D01*
X103400000Y-80120395D01*
X103414143Y-80106253D01*
X103593748Y-80285858D01*
X103579605Y-80300000D01*
X103593748Y-80314143D01*
X103414143Y-80493748D01*
X103400000Y-80479605D01*
X102372893Y-81506712D01*
X102480726Y-81781338D01*
X102787384Y-81932216D01*
X103117585Y-82020369D01*
X103458639Y-82042409D01*
X103797439Y-81997489D01*
X104018887Y-81922092D01*
X104023989Y-81947743D01*
X104134691Y-82215000D01*
X103527000Y-82215000D01*
X103527000Y-83723000D01*
X105620777Y-83723000D01*
X105740124Y-83469566D01*
X105709144Y-83341645D01*
X105580010Y-83047239D01*
X105571461Y-83035000D01*
X105651184Y-83035000D01*
X105947743Y-82976011D01*
X106227095Y-82860299D01*
X106478505Y-82692312D01*
X106692312Y-82478505D01*
X106860299Y-82227095D01*
X106976011Y-81947743D01*
X107035000Y-81651184D01*
X107035000Y-81348816D01*
X106976011Y-81052257D01*
X106860299Y-80772905D01*
X106692312Y-80521495D01*
X106478505Y-80307688D01*
X106392169Y-80250000D01*
X106478505Y-80192312D01*
X106692312Y-79978505D01*
X106860299Y-79727095D01*
X106976011Y-79447743D01*
X107035000Y-79151184D01*
X107035000Y-78848816D01*
X106976011Y-78552257D01*
X106860299Y-78272905D01*
X106692312Y-78021495D01*
X106670817Y-78000000D01*
X106692312Y-77978505D01*
X106860299Y-77727095D01*
X106976011Y-77447743D01*
X107035000Y-77151184D01*
X107035000Y-76848816D01*
X106976011Y-76552257D01*
X106860299Y-76272905D01*
X106692312Y-76021495D01*
X106478505Y-75807688D01*
X106335690Y-75712262D01*
X106384475Y-75564080D01*
X105500000Y-74679605D01*
X105485858Y-74693748D01*
X105306253Y-74514143D01*
X105320395Y-74500000D01*
X105679605Y-74500000D01*
X106564080Y-75384475D01*
X106818261Y-75300792D01*
X106949158Y-75028225D01*
X107024365Y-74735358D01*
X107040991Y-74433447D01*
X106998397Y-74134093D01*
X106898222Y-73848801D01*
X106818261Y-73699208D01*
X106564080Y-73615525D01*
X105679605Y-74500000D01*
X105320395Y-74500000D01*
X105306253Y-74485858D01*
X105485858Y-74306253D01*
X105500000Y-74320395D01*
X106384475Y-73435920D01*
X106300792Y-73181739D01*
X106028225Y-73050842D01*
X105735358Y-72975635D01*
X105570379Y-72966550D01*
X105580010Y-72952761D01*
X105709144Y-72658355D01*
X105740124Y-72530434D01*
X105620777Y-72277000D01*
X103527000Y-72277000D01*
X103527000Y-73785000D01*
X104140538Y-73785000D01*
X104050842Y-73971775D01*
X104024665Y-74073712D01*
X104012616Y-74067784D01*
X103682415Y-73979631D01*
X103341361Y-73957591D01*
X103002561Y-74002511D01*
X102679034Y-74112664D01*
X102480726Y-74218662D01*
X102372893Y-74493288D01*
X101235000Y-74493288D01*
X101235000Y-72974251D01*
X101404078Y-73216317D01*
X101636046Y-73438895D01*
X101906980Y-73611942D01*
X102206468Y-73728807D01*
X102523000Y-73785000D01*
X103273000Y-73785000D01*
X103273000Y-72277000D01*
X103253000Y-72277000D01*
X103253000Y-72023000D01*
X103273000Y-72023000D01*
X103273000Y-70515000D01*
X103527000Y-70515000D01*
X103527000Y-72023000D01*
X105620777Y-72023000D01*
X105740124Y-71769566D01*
X105709144Y-71641645D01*
X105580010Y-71347239D01*
X105395922Y-71083683D01*
X105163954Y-70861105D01*
X104893020Y-70688058D01*
X104593532Y-70571193D01*
X104277000Y-70515000D01*
X103527000Y-70515000D01*
X103273000Y-70515000D01*
X102523000Y-70515000D01*
X102206468Y-70571193D01*
X101906980Y-70688058D01*
X101636046Y-70861105D01*
X101404078Y-71083683D01*
X101235000Y-71325749D01*
X101235000Y-71035945D01*
X101253026Y-70852098D01*
X101295982Y-70709822D01*
X101365750Y-70578608D01*
X101459680Y-70463439D01*
X101574187Y-70368709D01*
X101704916Y-70298024D01*
X101846883Y-70254078D01*
X102028401Y-70235000D01*
X114685037Y-70235000D01*
X114616324Y-70363553D01*
G36*
X148341019Y-70320627D02*
G01*
X148454624Y-70434232D01*
X148016172Y-70734411D01*
X147705704Y-71313356D01*
X147514148Y-71941746D01*
X147448866Y-72595431D01*
X147512366Y-73249293D01*
X147702208Y-73878203D01*
X148011096Y-74457992D01*
X148016172Y-74465589D01*
X148454626Y-74765769D01*
X150620395Y-72600000D01*
X150606253Y-72585858D01*
X150785858Y-72406253D01*
X150800000Y-72420395D01*
X150814143Y-72406253D01*
X150993748Y-72585858D01*
X150979605Y-72600000D01*
X150993748Y-72614143D01*
X150814143Y-72793748D01*
X150800000Y-72779605D01*
X148634231Y-74945374D01*
X148934411Y-75383828D01*
X149513356Y-75694296D01*
X150141746Y-75885852D01*
X150795431Y-75951134D01*
X151449293Y-75887634D01*
X152078203Y-75697792D01*
X152299253Y-75580026D01*
X152000569Y-75951513D01*
X151964056Y-76007311D01*
X151926841Y-76062484D01*
X151922026Y-76071540D01*
X151922023Y-76071544D01*
X151922023Y-76071545D01*
X151659807Y-76573119D01*
X151634836Y-76634924D01*
X151609038Y-76696295D01*
X151606071Y-76706119D01*
X151446271Y-77249073D01*
X151433777Y-77314572D01*
X151420394Y-77379767D01*
X151419392Y-77389980D01*
X151368096Y-77953632D01*
X151368561Y-78020247D01*
X151368096Y-78086861D01*
X151369097Y-78097074D01*
X151428258Y-78659954D01*
X151441664Y-78725261D01*
X151454137Y-78790647D01*
X151457102Y-78800471D01*
X151624468Y-79341141D01*
X151650298Y-79402588D01*
X151675238Y-79464318D01*
X151680055Y-79473379D01*
X151949249Y-79971243D01*
X151986529Y-80026513D01*
X152022978Y-80082213D01*
X152029464Y-80090166D01*
X152344230Y-80470651D01*
X152036644Y-80305704D01*
X151408254Y-80114148D01*
X150754569Y-80048866D01*
X150100707Y-80112366D01*
X149471797Y-80302208D01*
X148892008Y-80611096D01*
X148884411Y-80616172D01*
X148584231Y-81054626D01*
X150750000Y-83220395D01*
X150764143Y-83206253D01*
X150943748Y-83385858D01*
X150929605Y-83400000D01*
X150943748Y-83414143D01*
X150764143Y-83593748D01*
X150750000Y-83579605D01*
X150735858Y-83593748D01*
X150556253Y-83414143D01*
X150570395Y-83400000D01*
X148404626Y-81234231D01*
X147966172Y-81534411D01*
X147655704Y-82113356D01*
X147464148Y-82741746D01*
X147398866Y-83395431D01*
X147462366Y-84049293D01*
X147652208Y-84678203D01*
X147961096Y-85257992D01*
X147966172Y-85265589D01*
X148404624Y-85565768D01*
X148291019Y-85679373D01*
X148376646Y-85765000D01*
X143166002Y-85765000D01*
X143207849Y-85723153D01*
X143328929Y-85699068D01*
X143499089Y-85628586D01*
X143652228Y-85526262D01*
X143782462Y-85396028D01*
X143884786Y-85242889D01*
X143955268Y-85072729D01*
X143991200Y-84892089D01*
X143991200Y-84707911D01*
X143955268Y-84527271D01*
X143884786Y-84357111D01*
X143782462Y-84203972D01*
X143696796Y-84118306D01*
X146013904Y-81801198D01*
X146042901Y-81777401D01*
X146082562Y-81729074D01*
X146137874Y-81661677D01*
X146208446Y-81529647D01*
X146213276Y-81513723D01*
X146251903Y-81386386D01*
X146262900Y-81274733D01*
X146262900Y-81274724D01*
X146266576Y-81237401D01*
X146262900Y-81200078D01*
X146262900Y-79815535D01*
X146331486Y-79712889D01*
X146401968Y-79542729D01*
X146437900Y-79362089D01*
X146437900Y-79177911D01*
X146401968Y-78997271D01*
X146331486Y-78827111D01*
X146229162Y-78673972D01*
X146098928Y-78543738D01*
X145945789Y-78441414D01*
X145932424Y-78435878D01*
X146003404Y-78364898D01*
X146032401Y-78341101D01*
X146127374Y-78225376D01*
X146197946Y-78093347D01*
X146241403Y-77950086D01*
X146252400Y-77838433D01*
X146252400Y-77838423D01*
X146256076Y-77801100D01*
X146252400Y-77763777D01*
X146252400Y-77275535D01*
X146320986Y-77172889D01*
X146391468Y-77002729D01*
X146427400Y-76822089D01*
X146427400Y-76637911D01*
X146391468Y-76457271D01*
X146320986Y-76287111D01*
X146253918Y-76186736D01*
X146270386Y-76162089D01*
X146340868Y-75991929D01*
X146376800Y-75811289D01*
X146376800Y-75627111D01*
X146340868Y-75446471D01*
X146270386Y-75276311D01*
X146168062Y-75123172D01*
X146037828Y-74992938D01*
X145884689Y-74890614D01*
X145714529Y-74820132D01*
X145533889Y-74784200D01*
X145349711Y-74784200D01*
X145169071Y-74820132D01*
X144998911Y-74890614D01*
X144845772Y-74992938D01*
X144715538Y-75123172D01*
X144613214Y-75276311D01*
X144542732Y-75446471D01*
X144518648Y-75567549D01*
X140938220Y-79147978D01*
X140951868Y-79115029D01*
X140987800Y-78934389D01*
X140987800Y-78750211D01*
X140951868Y-78569571D01*
X140881386Y-78399411D01*
X140812800Y-78296765D01*
X140812800Y-73829823D01*
X140816476Y-73792500D01*
X140812800Y-73755177D01*
X140812800Y-73755167D01*
X140801803Y-73643514D01*
X140758346Y-73500253D01*
X140736859Y-73460054D01*
X140687774Y-73368223D01*
X140616599Y-73281497D01*
X140592801Y-73252499D01*
X140563804Y-73228702D01*
X137987504Y-70652403D01*
X137963701Y-70623399D01*
X137847976Y-70528426D01*
X137715947Y-70457854D01*
X137572686Y-70414397D01*
X137461033Y-70403400D01*
X137461022Y-70403400D01*
X137423700Y-70399724D01*
X137386378Y-70403400D01*
X132532135Y-70403400D01*
X132429489Y-70334814D01*
X132259329Y-70264332D01*
X132111869Y-70235000D01*
X148426646Y-70235000D01*
X148341019Y-70320627D01*
X148341019Y-70320627D01*
G37*
X148341019Y-70320627D02*
X148454624Y-70434232D01*
X148016172Y-70734411D01*
X147705704Y-71313356D01*
X147514148Y-71941746D01*
X147448866Y-72595431D01*
X147512366Y-73249293D01*
X147702208Y-73878203D01*
X148011096Y-74457992D01*
X148016172Y-74465589D01*
X148454626Y-74765769D01*
X150620395Y-72600000D01*
X150606253Y-72585858D01*
X150785858Y-72406253D01*
X150800000Y-72420395D01*
X150814143Y-72406253D01*
X150993748Y-72585858D01*
X150979605Y-72600000D01*
X150993748Y-72614143D01*
X150814143Y-72793748D01*
X150800000Y-72779605D01*
X148634231Y-74945374D01*
X148934411Y-75383828D01*
X149513356Y-75694296D01*
X150141746Y-75885852D01*
X150795431Y-75951134D01*
X151449293Y-75887634D01*
X152078203Y-75697792D01*
X152299253Y-75580026D01*
X152000569Y-75951513D01*
X151964056Y-76007311D01*
X151926841Y-76062484D01*
X151922026Y-76071540D01*
X151922023Y-76071544D01*
X151922023Y-76071545D01*
X151659807Y-76573119D01*
X151634836Y-76634924D01*
X151609038Y-76696295D01*
X151606071Y-76706119D01*
X151446271Y-77249073D01*
X151433777Y-77314572D01*
X151420394Y-77379767D01*
X151419392Y-77389980D01*
X151368096Y-77953632D01*
X151368561Y-78020247D01*
X151368096Y-78086861D01*
X151369097Y-78097074D01*
X151428258Y-78659954D01*
X151441664Y-78725261D01*
X151454137Y-78790647D01*
X151457102Y-78800471D01*
X151624468Y-79341141D01*
X151650298Y-79402588D01*
X151675238Y-79464318D01*
X151680055Y-79473379D01*
X151949249Y-79971243D01*
X151986529Y-80026513D01*
X152022978Y-80082213D01*
X152029464Y-80090166D01*
X152344230Y-80470651D01*
X152036644Y-80305704D01*
X151408254Y-80114148D01*
X150754569Y-80048866D01*
X150100707Y-80112366D01*
X149471797Y-80302208D01*
X148892008Y-80611096D01*
X148884411Y-80616172D01*
X148584231Y-81054626D01*
X150750000Y-83220395D01*
X150764143Y-83206253D01*
X150943748Y-83385858D01*
X150929605Y-83400000D01*
X150943748Y-83414143D01*
X150764143Y-83593748D01*
X150750000Y-83579605D01*
X150735858Y-83593748D01*
X150556253Y-83414143D01*
X150570395Y-83400000D01*
X148404626Y-81234231D01*
X147966172Y-81534411D01*
X147655704Y-82113356D01*
X147464148Y-82741746D01*
X147398866Y-83395431D01*
X147462366Y-84049293D01*
X147652208Y-84678203D01*
X147961096Y-85257992D01*
X147966172Y-85265589D01*
X148404624Y-85565768D01*
X148291019Y-85679373D01*
X148376646Y-85765000D01*
X143166002Y-85765000D01*
X143207849Y-85723153D01*
X143328929Y-85699068D01*
X143499089Y-85628586D01*
X143652228Y-85526262D01*
X143782462Y-85396028D01*
X143884786Y-85242889D01*
X143955268Y-85072729D01*
X143991200Y-84892089D01*
X143991200Y-84707911D01*
X143955268Y-84527271D01*
X143884786Y-84357111D01*
X143782462Y-84203972D01*
X143696796Y-84118306D01*
X146013904Y-81801198D01*
X146042901Y-81777401D01*
X146082562Y-81729074D01*
X146137874Y-81661677D01*
X146208446Y-81529647D01*
X146213276Y-81513723D01*
X146251903Y-81386386D01*
X146262900Y-81274733D01*
X146262900Y-81274724D01*
X146266576Y-81237401D01*
X146262900Y-81200078D01*
X146262900Y-79815535D01*
X146331486Y-79712889D01*
X146401968Y-79542729D01*
X146437900Y-79362089D01*
X146437900Y-79177911D01*
X146401968Y-78997271D01*
X146331486Y-78827111D01*
X146229162Y-78673972D01*
X146098928Y-78543738D01*
X145945789Y-78441414D01*
X145932424Y-78435878D01*
X146003404Y-78364898D01*
X146032401Y-78341101D01*
X146127374Y-78225376D01*
X146197946Y-78093347D01*
X146241403Y-77950086D01*
X146252400Y-77838433D01*
X146252400Y-77838423D01*
X146256076Y-77801100D01*
X146252400Y-77763777D01*
X146252400Y-77275535D01*
X146320986Y-77172889D01*
X146391468Y-77002729D01*
X146427400Y-76822089D01*
X146427400Y-76637911D01*
X146391468Y-76457271D01*
X146320986Y-76287111D01*
X146253918Y-76186736D01*
X146270386Y-76162089D01*
X146340868Y-75991929D01*
X146376800Y-75811289D01*
X146376800Y-75627111D01*
X146340868Y-75446471D01*
X146270386Y-75276311D01*
X146168062Y-75123172D01*
X146037828Y-74992938D01*
X145884689Y-74890614D01*
X145714529Y-74820132D01*
X145533889Y-74784200D01*
X145349711Y-74784200D01*
X145169071Y-74820132D01*
X144998911Y-74890614D01*
X144845772Y-74992938D01*
X144715538Y-75123172D01*
X144613214Y-75276311D01*
X144542732Y-75446471D01*
X144518648Y-75567549D01*
X140938220Y-79147978D01*
X140951868Y-79115029D01*
X140987800Y-78934389D01*
X140987800Y-78750211D01*
X140951868Y-78569571D01*
X140881386Y-78399411D01*
X140812800Y-78296765D01*
X140812800Y-73829823D01*
X140816476Y-73792500D01*
X140812800Y-73755177D01*
X140812800Y-73755167D01*
X140801803Y-73643514D01*
X140758346Y-73500253D01*
X140736859Y-73460054D01*
X140687774Y-73368223D01*
X140616599Y-73281497D01*
X140592801Y-73252499D01*
X140563804Y-73228702D01*
X137987504Y-70652403D01*
X137963701Y-70623399D01*
X137847976Y-70528426D01*
X137715947Y-70457854D01*
X137572686Y-70414397D01*
X137461033Y-70403400D01*
X137461022Y-70403400D01*
X137423700Y-70399724D01*
X137386378Y-70403400D01*
X132532135Y-70403400D01*
X132429489Y-70334814D01*
X132259329Y-70264332D01*
X132111869Y-70235000D01*
X148426646Y-70235000D01*
X148341019Y-70320627D01*
G36*
X115335354Y-80161256D02*
G01*
X115326738Y-80169872D01*
X115224414Y-80323011D01*
X115153932Y-80493171D01*
X115118000Y-80673811D01*
X115118000Y-80857989D01*
X115153932Y-81038629D01*
X115224414Y-81208789D01*
X115326738Y-81361928D01*
X115456972Y-81492162D01*
X115610111Y-81594486D01*
X115780271Y-81664968D01*
X115901352Y-81689053D01*
X116861604Y-82649306D01*
X116850638Y-82660272D01*
X116748314Y-82813411D01*
X116677832Y-82983571D01*
X116641900Y-83164211D01*
X116641900Y-83348389D01*
X116677832Y-83529029D01*
X116748314Y-83699189D01*
X116850638Y-83852328D01*
X116980872Y-83982562D01*
X117134011Y-84084886D01*
X117304171Y-84155368D01*
X117425252Y-84179453D01*
X118359398Y-85113600D01*
X115803002Y-85113600D01*
X114904354Y-84214953D01*
X115002886Y-84067489D01*
X115073368Y-83897329D01*
X115109300Y-83716689D01*
X115109300Y-83532511D01*
X115073368Y-83351871D01*
X115002886Y-83181711D01*
X114900562Y-83028572D01*
X114770328Y-82898338D01*
X114769700Y-82897918D01*
X114769700Y-79595601D01*
X115335354Y-80161256D01*
X115335354Y-80161256D01*
G37*
X115335354Y-80161256D02*
X115326738Y-80169872D01*
X115224414Y-80323011D01*
X115153932Y-80493171D01*
X115118000Y-80673811D01*
X115118000Y-80857989D01*
X115153932Y-81038629D01*
X115224414Y-81208789D01*
X115326738Y-81361928D01*
X115456972Y-81492162D01*
X115610111Y-81594486D01*
X115780271Y-81664968D01*
X115901352Y-81689053D01*
X116861604Y-82649306D01*
X116850638Y-82660272D01*
X116748314Y-82813411D01*
X116677832Y-82983571D01*
X116641900Y-83164211D01*
X116641900Y-83348389D01*
X116677832Y-83529029D01*
X116748314Y-83699189D01*
X116850638Y-83852328D01*
X116980872Y-83982562D01*
X117134011Y-84084886D01*
X117304171Y-84155368D01*
X117425252Y-84179453D01*
X118359398Y-85113600D01*
X115803002Y-85113600D01*
X114904354Y-84214953D01*
X115002886Y-84067489D01*
X115073368Y-83897329D01*
X115109300Y-83716689D01*
X115109300Y-83532511D01*
X115073368Y-83351871D01*
X115002886Y-83181711D01*
X114900562Y-83028572D01*
X114770328Y-82898338D01*
X114769700Y-82897918D01*
X114769700Y-79595601D01*
X115335354Y-80161256D01*
G36*
X131713871Y-70264332D02*
G01*
X131543711Y-70334814D01*
X131390572Y-70437138D01*
X131260338Y-70567372D01*
X131158014Y-70720511D01*
X131087532Y-70890671D01*
X131051600Y-71071311D01*
X131051600Y-71255489D01*
X131087532Y-71436129D01*
X131158014Y-71606289D01*
X131260338Y-71759428D01*
X131390572Y-71889662D01*
X131543711Y-71991986D01*
X131713871Y-72062468D01*
X131894511Y-72098400D01*
X132078689Y-72098400D01*
X132259329Y-72062468D01*
X132429489Y-71991986D01*
X132532135Y-71923400D01*
X137046877Y-71923400D01*
X136869208Y-72069208D01*
X136705505Y-72268682D01*
X136583862Y-72496259D01*
X136508955Y-72743195D01*
X136483662Y-73000000D01*
X136508955Y-73256805D01*
X136583862Y-73503741D01*
X136705505Y-73731318D01*
X136869208Y-73930792D01*
X136953539Y-74000000D01*
X136869208Y-74069208D01*
X136705505Y-74268682D01*
X136583862Y-74496259D01*
X136508955Y-74743195D01*
X136483662Y-75000000D01*
X136508955Y-75256805D01*
X136583862Y-75503741D01*
X136705505Y-75731318D01*
X136869208Y-75930792D01*
X136953539Y-76000000D01*
X136869208Y-76069208D01*
X136705505Y-76268682D01*
X136583862Y-76496259D01*
X136508955Y-76743195D01*
X136483662Y-77000000D01*
X136508955Y-77256805D01*
X136583862Y-77503741D01*
X136705505Y-77731318D01*
X136869208Y-77930792D01*
X136953539Y-78000000D01*
X136869208Y-78069208D01*
X136705505Y-78268682D01*
X136583862Y-78496259D01*
X136508955Y-78743195D01*
X136483662Y-79000000D01*
X136508955Y-79256805D01*
X136583862Y-79503741D01*
X136705505Y-79731318D01*
X136869208Y-79930792D01*
X136957648Y-80003372D01*
X136821697Y-80128773D01*
X136670527Y-80336371D01*
X136562762Y-80569472D01*
X136532090Y-80670600D01*
X136655776Y-80873000D01*
X137673000Y-80873000D01*
X137673000Y-80853000D01*
X137927000Y-80853000D01*
X137927000Y-80873000D01*
X137947000Y-80873000D01*
X137947000Y-81127000D01*
X137927000Y-81127000D01*
X137927000Y-81147000D01*
X137673000Y-81147000D01*
X137673000Y-81127000D01*
X136655776Y-81127000D01*
X136532090Y-81329400D01*
X136562762Y-81430528D01*
X136670527Y-81663629D01*
X136767559Y-81796881D01*
X136673815Y-81873815D01*
X136594463Y-81970506D01*
X136535498Y-82080820D01*
X136499188Y-82200518D01*
X136486928Y-82325000D01*
X136486928Y-83223926D01*
X133846104Y-80583103D01*
X133822301Y-80554099D01*
X133706576Y-80459126D01*
X133574547Y-80388554D01*
X133431286Y-80345097D01*
X133319633Y-80334100D01*
X133319622Y-80334100D01*
X133282300Y-80330424D01*
X133244978Y-80334100D01*
X132232562Y-80334100D01*
X132298786Y-80234989D01*
X132369268Y-80064829D01*
X132405200Y-79884189D01*
X132405200Y-79700011D01*
X132369268Y-79519371D01*
X132298786Y-79349211D01*
X132196462Y-79196072D01*
X132066228Y-79065838D01*
X131913089Y-78963514D01*
X131742929Y-78893032D01*
X131562289Y-78857100D01*
X131378111Y-78857100D01*
X131197471Y-78893032D01*
X131027311Y-78963514D01*
X130874172Y-79065838D01*
X130743938Y-79196072D01*
X130641614Y-79349211D01*
X130571132Y-79519371D01*
X130570490Y-79522600D01*
X127251719Y-79522600D01*
X127435107Y-79248141D01*
X127633739Y-78768601D01*
X127735000Y-78259525D01*
X127735000Y-77740475D01*
X127633739Y-77231399D01*
X127435107Y-76751859D01*
X127256597Y-76484700D01*
X130585529Y-76484700D01*
X130610738Y-76522428D01*
X130740972Y-76652662D01*
X130894111Y-76754986D01*
X131064271Y-76825468D01*
X131244911Y-76861400D01*
X131429089Y-76861400D01*
X131609729Y-76825468D01*
X131779889Y-76754986D01*
X131806622Y-76737124D01*
X131830811Y-76753286D01*
X132000971Y-76823768D01*
X132181611Y-76859700D01*
X132365789Y-76859700D01*
X132546429Y-76823768D01*
X132716589Y-76753286D01*
X132869728Y-76650962D01*
X132999962Y-76520728D01*
X133102286Y-76367589D01*
X133172768Y-76197429D01*
X133208700Y-76016789D01*
X133208700Y-75832611D01*
X133172768Y-75651971D01*
X133102286Y-75481811D01*
X132999962Y-75328672D01*
X132869728Y-75198438D01*
X132716589Y-75096114D01*
X132546429Y-75025632D01*
X132425349Y-75001547D01*
X132187203Y-74763402D01*
X132163401Y-74734399D01*
X132047676Y-74639426D01*
X131915647Y-74568854D01*
X131772386Y-74525397D01*
X131660733Y-74514400D01*
X131660722Y-74514400D01*
X131623400Y-74510724D01*
X131586078Y-74514400D01*
X125168802Y-74514400D01*
X127334988Y-72348215D01*
X127392247Y-72330846D01*
X127524276Y-72260274D01*
X127640001Y-72165301D01*
X127734974Y-72049576D01*
X127805546Y-71917547D01*
X127811000Y-71899567D01*
X127844180Y-71889502D01*
X127954494Y-71830537D01*
X128051185Y-71751185D01*
X128130537Y-71654494D01*
X128189502Y-71544180D01*
X128225812Y-71424482D01*
X128238072Y-71300000D01*
X128238072Y-70300000D01*
X128231670Y-70235000D01*
X131861331Y-70235000D01*
X131713871Y-70264332D01*
X131713871Y-70264332D01*
G37*
X131713871Y-70264332D02*
X131543711Y-70334814D01*
X131390572Y-70437138D01*
X131260338Y-70567372D01*
X131158014Y-70720511D01*
X131087532Y-70890671D01*
X131051600Y-71071311D01*
X131051600Y-71255489D01*
X131087532Y-71436129D01*
X131158014Y-71606289D01*
X131260338Y-71759428D01*
X131390572Y-71889662D01*
X131543711Y-71991986D01*
X131713871Y-72062468D01*
X131894511Y-72098400D01*
X132078689Y-72098400D01*
X132259329Y-72062468D01*
X132429489Y-71991986D01*
X132532135Y-71923400D01*
X137046877Y-71923400D01*
X136869208Y-72069208D01*
X136705505Y-72268682D01*
X136583862Y-72496259D01*
X136508955Y-72743195D01*
X136483662Y-73000000D01*
X136508955Y-73256805D01*
X136583862Y-73503741D01*
X136705505Y-73731318D01*
X136869208Y-73930792D01*
X136953539Y-74000000D01*
X136869208Y-74069208D01*
X136705505Y-74268682D01*
X136583862Y-74496259D01*
X136508955Y-74743195D01*
X136483662Y-75000000D01*
X136508955Y-75256805D01*
X136583862Y-75503741D01*
X136705505Y-75731318D01*
X136869208Y-75930792D01*
X136953539Y-76000000D01*
X136869208Y-76069208D01*
X136705505Y-76268682D01*
X136583862Y-76496259D01*
X136508955Y-76743195D01*
X136483662Y-77000000D01*
X136508955Y-77256805D01*
X136583862Y-77503741D01*
X136705505Y-77731318D01*
X136869208Y-77930792D01*
X136953539Y-78000000D01*
X136869208Y-78069208D01*
X136705505Y-78268682D01*
X136583862Y-78496259D01*
X136508955Y-78743195D01*
X136483662Y-79000000D01*
X136508955Y-79256805D01*
X136583862Y-79503741D01*
X136705505Y-79731318D01*
X136869208Y-79930792D01*
X136957648Y-80003372D01*
X136821697Y-80128773D01*
X136670527Y-80336371D01*
X136562762Y-80569472D01*
X136532090Y-80670600D01*
X136655776Y-80873000D01*
X137673000Y-80873000D01*
X137673000Y-80853000D01*
X137927000Y-80853000D01*
X137927000Y-80873000D01*
X137947000Y-80873000D01*
X137947000Y-81127000D01*
X137927000Y-81127000D01*
X137927000Y-81147000D01*
X137673000Y-81147000D01*
X137673000Y-81127000D01*
X136655776Y-81127000D01*
X136532090Y-81329400D01*
X136562762Y-81430528D01*
X136670527Y-81663629D01*
X136767559Y-81796881D01*
X136673815Y-81873815D01*
X136594463Y-81970506D01*
X136535498Y-82080820D01*
X136499188Y-82200518D01*
X136486928Y-82325000D01*
X136486928Y-83223926D01*
X133846104Y-80583103D01*
X133822301Y-80554099D01*
X133706576Y-80459126D01*
X133574547Y-80388554D01*
X133431286Y-80345097D01*
X133319633Y-80334100D01*
X133319622Y-80334100D01*
X133282300Y-80330424D01*
X133244978Y-80334100D01*
X132232562Y-80334100D01*
X132298786Y-80234989D01*
X132369268Y-80064829D01*
X132405200Y-79884189D01*
X132405200Y-79700011D01*
X132369268Y-79519371D01*
X132298786Y-79349211D01*
X132196462Y-79196072D01*
X132066228Y-79065838D01*
X131913089Y-78963514D01*
X131742929Y-78893032D01*
X131562289Y-78857100D01*
X131378111Y-78857100D01*
X131197471Y-78893032D01*
X131027311Y-78963514D01*
X130874172Y-79065838D01*
X130743938Y-79196072D01*
X130641614Y-79349211D01*
X130571132Y-79519371D01*
X130570490Y-79522600D01*
X127251719Y-79522600D01*
X127435107Y-79248141D01*
X127633739Y-78768601D01*
X127735000Y-78259525D01*
X127735000Y-77740475D01*
X127633739Y-77231399D01*
X127435107Y-76751859D01*
X127256597Y-76484700D01*
X130585529Y-76484700D01*
X130610738Y-76522428D01*
X130740972Y-76652662D01*
X130894111Y-76754986D01*
X131064271Y-76825468D01*
X131244911Y-76861400D01*
X131429089Y-76861400D01*
X131609729Y-76825468D01*
X131779889Y-76754986D01*
X131806622Y-76737124D01*
X131830811Y-76753286D01*
X132000971Y-76823768D01*
X132181611Y-76859700D01*
X132365789Y-76859700D01*
X132546429Y-76823768D01*
X132716589Y-76753286D01*
X132869728Y-76650962D01*
X132999962Y-76520728D01*
X133102286Y-76367589D01*
X133172768Y-76197429D01*
X133208700Y-76016789D01*
X133208700Y-75832611D01*
X133172768Y-75651971D01*
X133102286Y-75481811D01*
X132999962Y-75328672D01*
X132869728Y-75198438D01*
X132716589Y-75096114D01*
X132546429Y-75025632D01*
X132425349Y-75001547D01*
X132187203Y-74763402D01*
X132163401Y-74734399D01*
X132047676Y-74639426D01*
X131915647Y-74568854D01*
X131772386Y-74525397D01*
X131660733Y-74514400D01*
X131660722Y-74514400D01*
X131623400Y-74510724D01*
X131586078Y-74514400D01*
X125168802Y-74514400D01*
X127334988Y-72348215D01*
X127392247Y-72330846D01*
X127524276Y-72260274D01*
X127640001Y-72165301D01*
X127734974Y-72049576D01*
X127805546Y-71917547D01*
X127811000Y-71899567D01*
X127844180Y-71889502D01*
X127954494Y-71830537D01*
X128051185Y-71751185D01*
X128130537Y-71654494D01*
X128189502Y-71544180D01*
X128225812Y-71424482D01*
X128238072Y-71300000D01*
X128238072Y-70300000D01*
X128231670Y-70235000D01*
X131861331Y-70235000D01*
X131713871Y-70264332D01*
G36*
X138949904Y-81136295D02*
G01*
X138944225Y-81127002D01*
X138959197Y-81127002D01*
X138949904Y-81136295D01*
X138949904Y-81136295D01*
G37*
X138949904Y-81136295D02*
X138944225Y-81127002D01*
X138959197Y-81127002D01*
X138949904Y-81136295D01*
G36*
X139117800Y-78934389D02*
G01*
X139153732Y-79115029D01*
X139224214Y-79285189D01*
X139326538Y-79438328D01*
X139456772Y-79568562D01*
X139609911Y-79670886D01*
X139780071Y-79741368D01*
X139960711Y-79777300D01*
X140144889Y-79777300D01*
X140325529Y-79741368D01*
X140358478Y-79727720D01*
X139110000Y-80976199D01*
X139110000Y-80872998D01*
X138944225Y-80872998D01*
X139067910Y-80670600D01*
X139037238Y-80569472D01*
X138929473Y-80336371D01*
X138778303Y-80128773D01*
X138642352Y-80003372D01*
X138730792Y-79930792D01*
X138894495Y-79731318D01*
X139016138Y-79503741D01*
X139091045Y-79256805D01*
X139116338Y-79000000D01*
X139094682Y-78780120D01*
X139117800Y-78757001D01*
X139117800Y-78934389D01*
X139117800Y-78934389D01*
G37*
X139117800Y-78934389D02*
X139153732Y-79115029D01*
X139224214Y-79285189D01*
X139326538Y-79438328D01*
X139456772Y-79568562D01*
X139609911Y-79670886D01*
X139780071Y-79741368D01*
X139960711Y-79777300D01*
X140144889Y-79777300D01*
X140325529Y-79741368D01*
X140358478Y-79727720D01*
X139110000Y-80976199D01*
X139110000Y-80872998D01*
X138944225Y-80872998D01*
X139067910Y-80670600D01*
X139037238Y-80569472D01*
X138929473Y-80336371D01*
X138778303Y-80128773D01*
X138642352Y-80003372D01*
X138730792Y-79930792D01*
X138894495Y-79731318D01*
X139016138Y-79503741D01*
X139091045Y-79256805D01*
X139116338Y-79000000D01*
X139094682Y-78780120D01*
X139117800Y-78757001D01*
X139117800Y-78934389D01*
G36*
X116459314Y-74195189D02*
G01*
X116527900Y-74297836D01*
X116527901Y-78257199D01*
X115604853Y-77334152D01*
X115580768Y-77213071D01*
X115510286Y-77042911D01*
X115407962Y-76889772D01*
X115277728Y-76759538D01*
X115201484Y-76708594D01*
X115213400Y-76648689D01*
X115213400Y-76464511D01*
X115177468Y-76283871D01*
X115106986Y-76113711D01*
X115004662Y-75960572D01*
X114874428Y-75830338D01*
X114736334Y-75738067D01*
X116406564Y-74067838D01*
X116459314Y-74195189D01*
X116459314Y-74195189D01*
G37*
X116459314Y-74195189D02*
X116527900Y-74297836D01*
X116527901Y-78257199D01*
X115604853Y-77334152D01*
X115580768Y-77213071D01*
X115510286Y-77042911D01*
X115407962Y-76889772D01*
X115277728Y-76759538D01*
X115201484Y-76708594D01*
X115213400Y-76648689D01*
X115213400Y-76464511D01*
X115177468Y-76283871D01*
X115106986Y-76113711D01*
X115004662Y-75960572D01*
X114874428Y-75830338D01*
X114736334Y-75738067D01*
X116406564Y-74067838D01*
X116459314Y-74195189D01*
M02*
