M48
; DRILL file {KiCad (5.1.2-1)-1} date Freitag, 24. Mai 2019 um 13:24:55
; FORMAT={-:-/ absolute / inch / decimal}
; #@! TF.CreationDate,2019-05-24T13:24:55+02:00
; #@! TF.GenerationSoftware,Kicad,Pcbnew,(5.1.2-1)-1
FMAT,2
INCH
T1C0.0118
T2C0.0157
T3C0.0256
T4C0.0315
T5C0.0394
T6C0.0472
T7C0.1063
T8C0.1575
%
G90
G05
T1
X4.3253Y-3.1822
X4.4043Y-3.0524
X4.4497Y-3.2082
X4.4951Y-3.2923
X4.4991Y-3.014
X4.5143Y-3.0872
X4.515Y-3.0506
X4.569Y-3.1798
X4.5748Y-3.0197
X4.6176Y-2.9036
X4.6181Y-3.3425
X4.629Y-3.2778
X4.6706Y-2.9561
X4.6773Y-2.9984
X4.6961Y-3.1004
X4.7096Y-3.1318
X4.7128Y-3.2771
X4.7481Y-3.0757
X4.7517Y-3.0369
X4.7994Y-3.2688
X4.8671Y-2.8602
X4.9326Y-3.2867
X5.1707Y-2.9892
X5.176Y-3.1414
X5.1963Y-2.8017
X5.2045Y-3.3005
X5.2076Y-2.9892
X5.4891Y-3.0209
X5.5139Y-3.104
X5.628Y-3.1209
X5.6321Y-3.3386
X5.6462Y-3.2447
X5.7261Y-2.9811
X5.728Y-3.0209
X5.7285Y-3.1209
T2
X4.212Y-3.0709
T3
X4.5539Y-2.7874
X4.6039Y-2.7874
X4.6539Y-2.7874
X4.7039Y-2.7874
X4.7539Y-2.7874
X4.8039Y-2.7874
X4.8539Y-2.7874
X4.9039Y-2.7874
X4.9539Y-2.7874
X5.0039Y-2.7874
T4
X5.4252Y-2.874
X5.4252Y-2.9528
X5.4252Y-3.0315
X5.4252Y-3.1102
X5.4252Y-3.189
X5.4252Y-3.2677
T5
X4.1535Y-2.9331
X4.1535Y-3.0315
X4.1535Y-3.1102
X4.1535Y-3.2087
T6
X4.0709Y-2.9803
X4.0709Y-3.1614
T7
X5.935Y-3.2835
X5.937Y-2.8583
T8
X4.9252Y-3.0709
T5
G00X4.1004Y-2.8406
M15
G01X4.0413Y-2.8406
M16
G05
G00X4.1004Y-3.3012
M15
G01X4.0413Y-3.3012
M16
G05
T0
M30
