G04 #@! TF.GenerationSoftware,KiCad,Pcbnew,(5.1.2-1)-1*
G04 #@! TF.CreationDate,2019-05-24T13:24:50+02:00*
G04 #@! TF.ProjectId,XoomFloppy,586f6f6d-466c-46f7-9070-792e6b696361,1.1*
G04 #@! TF.SameCoordinates,Original*
G04 #@! TF.FileFunction,Soldermask,Top*
G04 #@! TF.FilePolarity,Negative*
%FSLAX46Y46*%
G04 Gerber Fmt 4.6, Leading zero omitted, Abs format (unit mm)*
G04 Created by KiCad (PCBNEW (5.1.2-1)-1) date 2019-05-24 13:24:50*
%MOMM*%
%LPD*%
G04 APERTURE LIST*
%ADD10C,2.200000*%
%ADD11C,2.600000*%
%ADD12O,3.900000X2.400000*%
%ADD13C,4.400000*%
%ADD14C,5.800000*%
%ADD15R,1.370000X1.900000*%
%ADD16R,1.750000X1.750000*%
%ADD17O,1.750000X1.750000*%
%ADD18R,1.900000X1.370000*%
%ADD19C,0.950000*%
%ADD20C,0.100000*%
%ADD21R,1.900000X1.000000*%
%ADD22R,1.460000X1.050000*%
%ADD23R,2.200000X1.470000*%
%ADD24R,2.400000X2.800000*%
%ADD25R,1.400000X1.400000*%
%ADD26O,1.400000X1.400000*%
G04 APERTURE END LIST*
D10*
X105500000Y-81500000D03*
X105500000Y-79000000D03*
X105500000Y-77000000D03*
X105500000Y-74500000D03*
D11*
X103400000Y-80300000D03*
X103400000Y-75700000D03*
D12*
X103400000Y-83850000D03*
X103400000Y-72150000D03*
D13*
X125100000Y-78000000D03*
D14*
X150750000Y-83400000D03*
X150800000Y-72600000D03*
D15*
X119745000Y-85000000D03*
X121655000Y-85000000D03*
X129445000Y-85000000D03*
X131355000Y-85000000D03*
X111555000Y-74000000D03*
X109645000Y-74000000D03*
X111855000Y-82100000D03*
X109945000Y-82100000D03*
X126055000Y-73900000D03*
X124145000Y-73900000D03*
D16*
X137800000Y-83000000D03*
D17*
X137800000Y-81000000D03*
X137800000Y-79000000D03*
X137800000Y-77000000D03*
X137800000Y-75000000D03*
X137800000Y-73000000D03*
D15*
X135255000Y-77000000D03*
X133345000Y-77000000D03*
X149145000Y-79300000D03*
X151055000Y-79300000D03*
X135255000Y-74300000D03*
X133345000Y-74300000D03*
X149145000Y-76700000D03*
X151055000Y-76700000D03*
X135255000Y-82400000D03*
X133345000Y-82400000D03*
X146855000Y-71200000D03*
X144945000Y-71200000D03*
X135255000Y-71500000D03*
X133345000Y-71500000D03*
X140145000Y-71200000D03*
X142055000Y-71200000D03*
X133345000Y-79800000D03*
X135255000Y-79800000D03*
X146855000Y-84800000D03*
X144945000Y-84800000D03*
D18*
X129700000Y-77045000D03*
X129700000Y-78955000D03*
X129700000Y-71245000D03*
X129700000Y-73155000D03*
D15*
X111045000Y-71700000D03*
X112955000Y-71700000D03*
X112903000Y-84300000D03*
X110993000Y-84300000D03*
X140145000Y-84800000D03*
X142055000Y-84800000D03*
D19*
X112214897Y-78825305D03*
D20*
G36*
X111843666Y-79868288D02*
G01*
X111171914Y-79196536D01*
X112586128Y-77782322D01*
X113257880Y-78454074D01*
X111843666Y-79868288D01*
X111843666Y-79868288D01*
G37*
D19*
X112780583Y-79390990D03*
D20*
G36*
X112409352Y-80433973D02*
G01*
X111737600Y-79762221D01*
X113151814Y-78348007D01*
X113823566Y-79019759D01*
X112409352Y-80433973D01*
X112409352Y-80433973D01*
G37*
D19*
X113346268Y-79956676D03*
D20*
G36*
X112975037Y-80999659D02*
G01*
X112303285Y-80327907D01*
X113717499Y-78913693D01*
X114389251Y-79585445D01*
X112975037Y-80999659D01*
X112975037Y-80999659D01*
G37*
D19*
X113911953Y-80522361D03*
D20*
G36*
X113540722Y-81565344D02*
G01*
X112868970Y-80893592D01*
X114283184Y-79479378D01*
X114954936Y-80151130D01*
X113540722Y-81565344D01*
X113540722Y-81565344D01*
G37*
D19*
X114477639Y-81088047D03*
D20*
G36*
X114106408Y-82131030D02*
G01*
X113434656Y-81459278D01*
X114848870Y-80045064D01*
X115520622Y-80716816D01*
X114106408Y-82131030D01*
X114106408Y-82131030D01*
G37*
D19*
X115043324Y-81653732D03*
D20*
G36*
X114672093Y-82696715D02*
G01*
X114000341Y-82024963D01*
X115414555Y-80610749D01*
X116086307Y-81282501D01*
X114672093Y-82696715D01*
X114672093Y-82696715D01*
G37*
D19*
X115609010Y-82219417D03*
D20*
G36*
X115237779Y-83262400D02*
G01*
X114566027Y-82590648D01*
X115980241Y-81176434D01*
X116651993Y-81848186D01*
X115237779Y-83262400D01*
X115237779Y-83262400D01*
G37*
D19*
X116174695Y-82785103D03*
D20*
G36*
X115803464Y-83828086D02*
G01*
X115131712Y-83156334D01*
X116545926Y-81742120D01*
X117217678Y-82413872D01*
X115803464Y-83828086D01*
X115803464Y-83828086D01*
G37*
D19*
X118225305Y-82785103D03*
D20*
G36*
X119268288Y-83156334D02*
G01*
X118596536Y-83828086D01*
X117182322Y-82413872D01*
X117854074Y-81742120D01*
X119268288Y-83156334D01*
X119268288Y-83156334D01*
G37*
D19*
X118790990Y-82219417D03*
D20*
G36*
X119833973Y-82590648D02*
G01*
X119162221Y-83262400D01*
X117748007Y-81848186D01*
X118419759Y-81176434D01*
X119833973Y-82590648D01*
X119833973Y-82590648D01*
G37*
D19*
X119356676Y-81653732D03*
D20*
G36*
X120399659Y-82024963D02*
G01*
X119727907Y-82696715D01*
X118313693Y-81282501D01*
X118985445Y-80610749D01*
X120399659Y-82024963D01*
X120399659Y-82024963D01*
G37*
D19*
X119922361Y-81088047D03*
D20*
G36*
X120965344Y-81459278D02*
G01*
X120293592Y-82131030D01*
X118879378Y-80716816D01*
X119551130Y-80045064D01*
X120965344Y-81459278D01*
X120965344Y-81459278D01*
G37*
D19*
X120488047Y-80522361D03*
D20*
G36*
X121531030Y-80893592D02*
G01*
X120859278Y-81565344D01*
X119445064Y-80151130D01*
X120116816Y-79479378D01*
X121531030Y-80893592D01*
X121531030Y-80893592D01*
G37*
D19*
X121053732Y-79956676D03*
D20*
G36*
X122096715Y-80327907D02*
G01*
X121424963Y-80999659D01*
X120010749Y-79585445D01*
X120682501Y-78913693D01*
X122096715Y-80327907D01*
X122096715Y-80327907D01*
G37*
D19*
X121619417Y-79390990D03*
D20*
G36*
X122662400Y-79762221D02*
G01*
X121990648Y-80433973D01*
X120576434Y-79019759D01*
X121248186Y-78348007D01*
X122662400Y-79762221D01*
X122662400Y-79762221D01*
G37*
D19*
X122185103Y-78825305D03*
D20*
G36*
X123228086Y-79196536D02*
G01*
X122556334Y-79868288D01*
X121142120Y-78454074D01*
X121813872Y-77782322D01*
X123228086Y-79196536D01*
X123228086Y-79196536D01*
G37*
D19*
X122185103Y-76774695D03*
D20*
G36*
X121813872Y-77817678D02*
G01*
X121142120Y-77145926D01*
X122556334Y-75731712D01*
X123228086Y-76403464D01*
X121813872Y-77817678D01*
X121813872Y-77817678D01*
G37*
D19*
X121619417Y-76209010D03*
D20*
G36*
X121248186Y-77251993D02*
G01*
X120576434Y-76580241D01*
X121990648Y-75166027D01*
X122662400Y-75837779D01*
X121248186Y-77251993D01*
X121248186Y-77251993D01*
G37*
D19*
X121053732Y-75643324D03*
D20*
G36*
X120682501Y-76686307D02*
G01*
X120010749Y-76014555D01*
X121424963Y-74600341D01*
X122096715Y-75272093D01*
X120682501Y-76686307D01*
X120682501Y-76686307D01*
G37*
D19*
X120488047Y-75077639D03*
D20*
G36*
X120116816Y-76120622D02*
G01*
X119445064Y-75448870D01*
X120859278Y-74034656D01*
X121531030Y-74706408D01*
X120116816Y-76120622D01*
X120116816Y-76120622D01*
G37*
D19*
X119922361Y-74511953D03*
D20*
G36*
X119551130Y-75554936D02*
G01*
X118879378Y-74883184D01*
X120293592Y-73468970D01*
X120965344Y-74140722D01*
X119551130Y-75554936D01*
X119551130Y-75554936D01*
G37*
D19*
X119356676Y-73946268D03*
D20*
G36*
X118985445Y-74989251D02*
G01*
X118313693Y-74317499D01*
X119727907Y-72903285D01*
X120399659Y-73575037D01*
X118985445Y-74989251D01*
X118985445Y-74989251D01*
G37*
D19*
X118790990Y-73380583D03*
D20*
G36*
X118419759Y-74423566D02*
G01*
X117748007Y-73751814D01*
X119162221Y-72337600D01*
X119833973Y-73009352D01*
X118419759Y-74423566D01*
X118419759Y-74423566D01*
G37*
D19*
X118225305Y-72814897D03*
D20*
G36*
X117854074Y-73857880D02*
G01*
X117182322Y-73186128D01*
X118596536Y-71771914D01*
X119268288Y-72443666D01*
X117854074Y-73857880D01*
X117854074Y-73857880D01*
G37*
D19*
X116174695Y-72814897D03*
D20*
G36*
X117217678Y-73186128D02*
G01*
X116545926Y-73857880D01*
X115131712Y-72443666D01*
X115803464Y-71771914D01*
X117217678Y-73186128D01*
X117217678Y-73186128D01*
G37*
D19*
X115609010Y-73380583D03*
D20*
G36*
X116651993Y-73751814D02*
G01*
X115980241Y-74423566D01*
X114566027Y-73009352D01*
X115237779Y-72337600D01*
X116651993Y-73751814D01*
X116651993Y-73751814D01*
G37*
D19*
X115043324Y-73946268D03*
D20*
G36*
X116086307Y-74317499D02*
G01*
X115414555Y-74989251D01*
X114000341Y-73575037D01*
X114672093Y-72903285D01*
X116086307Y-74317499D01*
X116086307Y-74317499D01*
G37*
D19*
X114477639Y-74511953D03*
D20*
G36*
X115520622Y-74883184D02*
G01*
X114848870Y-75554936D01*
X113434656Y-74140722D01*
X114106408Y-73468970D01*
X115520622Y-74883184D01*
X115520622Y-74883184D01*
G37*
D19*
X113911953Y-75077639D03*
D20*
G36*
X114954936Y-75448870D02*
G01*
X114283184Y-76120622D01*
X112868970Y-74706408D01*
X113540722Y-74034656D01*
X114954936Y-75448870D01*
X114954936Y-75448870D01*
G37*
D19*
X113346268Y-75643324D03*
D20*
G36*
X114389251Y-76014555D02*
G01*
X113717499Y-76686307D01*
X112303285Y-75272093D01*
X112975037Y-74600341D01*
X114389251Y-76014555D01*
X114389251Y-76014555D01*
G37*
D19*
X112780583Y-76209010D03*
D20*
G36*
X113823566Y-76580241D02*
G01*
X113151814Y-77251993D01*
X111737600Y-75837779D01*
X112409352Y-75166027D01*
X113823566Y-76580241D01*
X113823566Y-76580241D01*
G37*
D19*
X112214897Y-76774695D03*
D20*
G36*
X113257880Y-77145926D02*
G01*
X112586128Y-77817678D01*
X111171914Y-76403464D01*
X111843666Y-75731712D01*
X113257880Y-77145926D01*
X113257880Y-77145926D01*
G37*
D21*
X146800000Y-81810000D03*
X146800000Y-80540000D03*
X146800000Y-79270000D03*
X146800000Y-78000000D03*
X146800000Y-76730000D03*
X146800000Y-75460000D03*
X146800000Y-74190000D03*
X141400000Y-74190000D03*
X141400000Y-75460000D03*
X141400000Y-76730000D03*
X141400000Y-78000000D03*
X141400000Y-79270000D03*
X141400000Y-80540000D03*
X141400000Y-81810000D03*
D18*
X107700000Y-71445000D03*
X107700000Y-73355000D03*
D22*
X108100000Y-77050000D03*
X108100000Y-78000000D03*
X108100000Y-78950000D03*
X110300000Y-78950000D03*
X110300000Y-77050000D03*
X110300000Y-78000000D03*
D23*
X107850000Y-81495000D03*
X107850000Y-84505000D03*
D24*
X123750000Y-84100000D03*
X127450000Y-84100000D03*
D25*
X127100000Y-70800000D03*
D26*
X125830000Y-70800000D03*
X124560000Y-70800000D03*
X123290000Y-70800000D03*
X122020000Y-70800000D03*
X120750000Y-70800000D03*
X119480000Y-70800000D03*
X118210000Y-70800000D03*
X116940000Y-70800000D03*
X115670000Y-70800000D03*
M02*
